STIXTwoText-Italic.ufo
<glyph name="exclam" format="2">
  <advance width="273"/>
  <unicode hex="0021"/>
  <outline>
    <contour>
      <point x="138" y="170" type="line"/>
      <point x="249" y="538" type="line" smooth="yes"/>
      <point x="261" y="576"/>
      <point x="269" y="607"/>
      <point x="269" y="622" type="curve" smooth="yes"/>
      <point x="269" y="650"/>
      <point x="257" y="669"/>
      <point x="227" y="669" type="curve" smooth="yes"/>
      <point x="185" y="669"/>
      <point x="168" y="640"/>
      <point x="160" y="603" type="curve" smooth="yes"/>
      <point x="157" y="587"/>
      <point x="154" y="566"/>
      <point x="150" y="538" type="curve" smooth="yes"/>
      <point x="103" y="170" type="line"/>
    </contour>
    <contour>
      <point x="97" y="-8" type="curve" smooth="yes"/>
      <point x="134" y="-8"/>
      <point x="154" y="17"/>
      <point x="154" y="47" type="curve" smooth="yes"/>
      <point x="154" y="78"/>
      <point x="134" y="105"/>
      <point x="98" y="105" type="curve" smooth="yes"/>
      <point x="62" y="105"/>
      <point x="41" y="79"/>
      <point x="41" y="47" type="curve" smooth="yes"/>
      <point x="41" y="15"/>
      <point x="60" y="-8"/>
    </contour>
  </outline>
</glyph>
<glyph name="quotedbl" format="2">
  <advance width="334"/>
  <unicode hex="0022"/>
  <outline>
    <contour>
      <point x="292" y="504" type="line"/>
      <point x="380" y="688" type="line"/>
      <point x="384" y="706" type="line"/>
      <point x="295" y="706" type="line"/>
      <point x="254" y="504" type="line"/>
    </contour>
    <contour>
      <point x="145" y="504" type="line"/>
      <point x="233" y="688" type="line"/>
      <point x="237" y="706" type="line"/>
      <point x="149" y="706" type="line"/>
      <point x="107" y="504" type="line"/>
    </contour>
  </outline>
</glyph>
<glyph name="numbersign" format="2">
  <advance width="573"/>
  <unicode hex="0023"/>
  <outline>
    <contour>
      <point x="122" y="32" type="line"/>
      <point x="341" y="622" type="line"/>
      <point x="293" y="621" type="line"/>
      <point x="75" y="32" type="line"/>
    </contour>
    <contour>
      <point x="519" y="212" type="line"/>
      <point x="528" y="252" type="line"/>
      <point x="41" y="252" type="line"/>
      <point x="32" y="212" type="line"/>
    </contour>
    <contour>
      <point x="329" y="32" type="line"/>
      <point x="543" y="621" type="line"/>
      <point x="495" y="621" type="line"/>
      <point x="281" y="32" type="line"/>
    </contour>
    <contour>
      <point x="579" y="395" type="line"/>
      <point x="588" y="436" type="line"/>
      <point x="104" y="436" type="line"/>
      <point x="95" y="395" type="line"/>
    </contour>
  </outline>
</glyph>
<glyph name="dollar" format="2">
  <advance width="495"/>
  <unicode hex="0024"/>
  <outline>
    <contour>
      <point x="184" y="-7" type="curve" smooth="yes"/>
      <point x="299" y="-7"/>
      <point x="451" y="32"/>
      <point x="451" y="195" type="curve" smooth="yes"/>
      <point x="451" y="286"/>
      <point x="375" y="327"/>
      <point x="284" y="378" type="curve"/>
      <point x="259" y="290" type="line"/>
      <point x="330" y="249"/>
      <point x="366" y="212"/>
      <point x="366" y="164" type="curve" smooth="yes"/>
      <point x="366" y="74"/>
      <point x="302" y="29"/>
      <point x="193" y="29" type="curve" smooth="yes"/>
      <point x="107" y="29"/>
      <point x="61" y="72"/>
      <point x="65" y="192" type="curve"/>
      <point x="36" y="192" type="line"/>
      <point x="4" y="40" type="line"/>
      <point x="51" y="7"/>
      <point x="100" y="-7"/>
    </contour>
    <contour>
      <point x="201" y="-93" type="line"/>
      <point x="371" y="705" type="line"/>
      <point x="331" y="705" type="line"/>
      <point x="161" y="-93" type="line"/>
    </contour>
    <contour>
      <point x="286" y="374" type="line"/>
      <point x="212" y="419"/>
      <point x="177" y="454"/>
      <point x="177" y="494" type="curve" smooth="yes"/>
      <point x="177" y="569"/>
      <point x="247" y="605"/>
      <point x="329" y="605" type="curve" smooth="yes"/>
      <point x="416" y="605"/>
      <point x="455" y="555"/>
      <point x="454" y="458" type="curve"/>
      <point x="483" y="458" type="line"/>
      <point x="511" y="588" type="line"/>
      <point x="479" y="612"/>
      <point x="418" y="640"/>
      <point x="331" y="639" type="curve" smooth="yes"/>
      <point x="214" y="637"/>
      <point x="99" y="580"/>
      <point x="99" y="461" type="curve" smooth="yes"/>
      <point x="99" y="390"/>
      <point x="146" y="352"/>
      <point x="264" y="281" type="curve"/>
    </contour>
  </outline>
</glyph>
<glyph name="percent" format="2">
  <advance width="685"/>
  <unicode hex="0025"/>
  <outline>
    <contour>
      <point x="127" y="-19" type="line"/>
      <point x="678" y="668" type="line"/>
      <point x="633" y="668" type="line"/>
      <point x="545" y="595"/>
      <point x="513" y="579"/>
      <point x="467" y="579" type="curve" smooth="yes"/>
      <point x="379" y="579"/>
      <point x="374" y="639"/>
      <point x="295" y="639" type="curve" smooth="yes"/>
      <point x="186" y="639"/>
      <point x="82" y="526"/>
      <point x="82" y="409" type="curve" smooth="yes"/>
      <point x="82" y="343"/>
      <point x="115" y="308"/>
      <point x="173" y="308" type="curve" smooth="yes"/>
      <point x="278" y="308"/>
      <point x="382" y="425"/>
      <point x="382" y="546" type="curve" smooth="yes"/>
      <point x="382" y="566"/>
      <point x="382" y="573"/>
      <point x="377" y="587" type="curve"/>
      <point x="374" y="559" type="line"/>
      <point x="384" y="568" type="line"/>
      <point x="414" y="554"/>
      <point x="426" y="551"/>
      <point x="450" y="551" type="curve" smooth="yes"/>
      <point x="491" y="551"/>
      <point x="519" y="560"/>
      <point x="559" y="584" type="curve"/>
      <point x="563" y="584" type="line"/>
      <point x="79" y="-19" type="line"/>
    </contour>
    <contour>
      <point x="193" y="342" type="curve" smooth="yes"/>
      <point x="162" y="342"/>
      <point x="149" y="360"/>
      <point x="149" y="399" type="curve" smooth="yes"/>
      <point x="149" y="497"/>
      <point x="229" y="611"/>
      <point x="299" y="611" type="curve" smooth="yes"/>
      <point x="331" y="611"/>
      <point x="349" y="587"/>
      <point x="349" y="542" type="curve" smooth="yes"/>
      <point x="349" y="446"/>
      <point x="266" y="342"/>
    </contour>
    <contour>
      <point x="431" y="-18" type="curve" smooth="yes"/>
      <point x="540" y="-18"/>
      <point x="642" y="97"/>
      <point x="642" y="216" type="curve" smooth="yes"/>
      <point x="642" y="280"/>
      <point x="613" y="312"/>
      <point x="554" y="312" type="curve" smooth="yes"/>
      <point x="444" y="312"/>
      <point x="340" y="201"/>
      <point x="340" y="82" type="curve" smooth="yes"/>
      <point x="340" y="16"/>
      <point x="372" y="-18"/>
    </contour>
    <contour>
      <point x="452" y="15" type="curve" smooth="yes"/>
      <point x="421" y="15"/>
      <point x="408" y="33"/>
      <point x="408" y="72" type="curve" smooth="yes"/>
      <point x="408" y="170"/>
      <point x="488" y="284"/>
      <point x="558" y="284" type="curve" smooth="yes"/>
      <point x="590" y="284"/>
      <point x="608" y="260"/>
      <point x="608" y="215" type="curve" smooth="yes"/>
      <point x="608" y="119"/>
      <point x="525" y="15"/>
    </contour>
  </outline>
</glyph>
<glyph name="ampersand" format="2">
  <advance width="720"/>
  <unicode hex="0026"/>
  <anchor x="322" y="0" name="bottom"/>
  <anchor x="322" y="0" name="cedilla"/>
  <anchor x="322" y="0" name="ogonek"/>
  <anchor x="398" y="661" name="top"/>
  <outline>
    <contour>
      <point x="512" y="-13" type="curve" smooth="yes"/>
      <point x="576" y="-13"/>
      <point x="641" y="27"/>
      <point x="682" y="98" type="curve"/>
      <point x="667" y="109" type="line"/>
      <point x="632" y="69"/>
      <point x="598" y="51"/>
      <point x="557" y="51" type="curve" smooth="yes"/>
      <point x="501" y="51"/>
      <point x="463" y="91"/>
      <point x="421" y="151" type="curve"/>
      <point x="422" y="173" type="line"/>
      <point x="409" y="173" type="line"/>
      <point x="356" y="269"/>
      <point x="290" y="432"/>
      <point x="290" y="517" type="curve" smooth="yes"/>
      <point x="290" y="595"/>
      <point x="333" y="634"/>
      <point x="391" y="634" type="curve" smooth="yes"/>
      <point x="437" y="634"/>
      <point x="455" y="601"/>
      <point x="455" y="561" type="curve" smooth="yes"/>
      <point x="455" y="511"/>
      <point x="445" y="451"/>
      <point x="302" y="391" type="curve"/>
      <point x="312" y="368" type="line"/>
      <point x="474" y="433"/>
      <point x="516" y="489"/>
      <point x="516" y="564" type="curve" smooth="yes"/>
      <point x="516" y="631"/>
      <point x="467" y="661"/>
      <point x="398" y="661" type="curve" smooth="yes"/>
      <point x="292" y="661"/>
      <point x="217" y="601"/>
      <point x="217" y="492" type="curve" smooth="yes"/>
      <point x="217" y="399"/>
      <point x="304" y="177"/>
      <point x="358" y="95" type="curve" smooth="yes"/>
      <point x="409" y="17"/>
      <point x="446" y="-13"/>
    </contour>
    <contour>
      <point x="157" y="-16" type="curve" smooth="yes"/>
      <point x="255" y="-16"/>
      <point x="322" y="24"/>
      <point x="374" y="83" type="curve"/>
      <point x="357" y="108" type="line"/>
      <point x="320" y="73"/>
      <point x="257" y="47"/>
      <point x="204" y="47" type="curve" smooth="yes"/>
      <point x="150" y="47"/>
      <point x="110" y="74"/>
      <point x="110" y="146" type="curve" smooth="yes"/>
      <point x="110" y="223"/>
      <point x="140" y="280"/>
      <point x="261" y="341" type="curve"/>
      <point x="253" y="369" type="line"/>
      <point x="69" y="282"/>
      <point x="19" y="217"/>
      <point x="19" y="117" type="curve" smooth="yes"/>
      <point x="19" y="26"/>
      <point x="81" y="-16"/>
    </contour>
    <contour>
      <point x="422" y="133" type="line"/>
      <point x="480" y="236"/>
      <point x="527" y="358"/>
      <point x="606" y="358" type="curve" smooth="yes"/>
      <point x="644" y="358"/>
      <point x="641" y="296"/>
      <point x="680" y="296" type="curve" smooth="yes"/>
      <point x="699" y="296"/>
      <point x="723" y="306"/>
      <point x="723" y="337" type="curve" smooth="yes"/>
      <point x="723" y="367"/>
      <point x="698" y="405"/>
      <point x="634" y="405" type="curve" smooth="yes"/>
      <point x="551" y="405"/>
      <point x="504" y="361"/>
      <point x="406" y="158" type="curve"/>
    </contour>
  </outline>
</glyph>
<glyph name="quotesingle" format="2">
  <advance width="187"/>
  <unicode hex="0027"/>
  <outline>
    <contour>
      <point x="145" y="505" type="line"/>
      <point x="233" y="688" type="line"/>
      <point x="237" y="706" type="line"/>
      <point x="149" y="706" type="line"/>
      <point x="107" y="505" type="line"/>
    </contour>
  </outline>
</glyph>
<glyph name="parenleft" format="2">
  <advance width="340"/>
  <unicode hex="0028"/>
  <outline>
    <contour>
      <point x="231" y="-158" type="line"/>
      <point x="143" y="-90"/>
      <point x="104" y="15"/>
      <point x="104" y="151" type="curve" smooth="yes"/>
      <point x="104" y="444"/>
      <point x="250" y="608"/>
      <point x="417" y="705" type="curve"/>
      <point x="404" y="730" type="line"/>
      <point x="184" y="629"/>
      <point x="27" y="428"/>
      <point x="27" y="169" type="curve" smooth="yes"/>
      <point x="27" y="7"/>
      <point x="101" y="-115"/>
      <point x="214" y="-181" type="curve"/>
    </contour>
  </outline>
</glyph>
<glyph name="parenright" format="2">
  <advance width="339"/>
  <unicode hex="0029"/>
  <outline>
    <contour>
      <point x="-53" y="-181" type="line"/>
      <point x="167" y="-80"/>
      <point x="324" y="121"/>
      <point x="324" y="380" type="curve" smooth="yes"/>
      <point x="324" y="542"/>
      <point x="250" y="664"/>
      <point x="137" y="730" type="curve"/>
      <point x="120" y="707" type="line"/>
      <point x="208" y="639"/>
      <point x="247" y="534"/>
      <point x="247" y="398" type="curve" smooth="yes"/>
      <point x="247" y="105"/>
      <point x="101" y="-59"/>
      <point x="-66" y="-156" type="curve"/>
    </contour>
  </outline>
</glyph>
<glyph name="asterisk" format="2">
  <advance width="391"/>
  <unicode hex="002A"/>
  <outline>
    <contour>
      <point x="210" y="315" type="curve" smooth="yes"/>
      <point x="232" y="315"/>
      <point x="255" y="326"/>
      <point x="255" y="365" type="curve" smooth="yes"/>
      <point x="255" y="386"/>
      <point x="254" y="406"/>
      <point x="254" y="424" type="curve" smooth="yes"/>
      <point x="254" y="443"/>
      <point x="255" y="462"/>
      <point x="259" y="480" type="curve"/>
      <point x="260" y="480" type="line"/>
      <point x="300" y="448"/>
      <point x="324" y="391"/>
      <point x="356" y="391" type="curve" smooth="yes"/>
      <point x="378" y="391"/>
      <point x="399" y="409"/>
      <point x="399" y="434" type="curve"/>
      <point x="398" y="472"/>
      <point x="325" y="472"/>
      <point x="276" y="502" type="curve"/>
      <point x="276" y="504" type="line"/>
      <point x="341" y="539"/>
      <point x="432" y="528"/>
      <point x="432" y="583" type="curve" smooth="yes"/>
      <point x="432" y="601"/>
      <point x="420" y="616"/>
      <point x="403" y="616" type="curve"/>
      <point x="374" y="615"/>
      <point x="319" y="559"/>
      <point x="268" y="524" type="curve"/>
      <point x="269" y="525" type="line"/>
      <point x="280" y="581"/>
      <point x="319" y="632"/>
      <point x="319" y="661" type="curve" smooth="yes"/>
      <point x="319" y="680"/>
      <point x="306" y="689"/>
      <point x="289" y="689" type="curve" smooth="yes"/>
      <point x="270" y="689"/>
      <point x="243" y="679"/>
      <point x="243" y="637" type="curve" smooth="yes"/>
      <point x="243" y="618"/>
      <point x="245" y="586"/>
      <point x="245" y="566" type="curve" smooth="yes"/>
      <point x="245" y="557"/>
      <point x="244" y="547"/>
      <point x="239" y="526" type="curve"/>
      <point x="237" y="525" type="line"/>
      <point x="200" y="559"/>
      <point x="170" y="613"/>
      <point x="142" y="613" type="curve" smooth="yes"/>
      <point x="120" y="613"/>
      <point x="98" y="589"/>
      <point x="98" y="568" type="curve" smooth="yes"/>
      <point x="98" y="544"/>
      <point x="126" y="536"/>
      <point x="159" y="527" type="curve" smooth="yes"/>
      <point x="180" y="521"/>
      <point x="202" y="515"/>
      <point x="221" y="504" type="curve"/>
      <point x="221" y="502" type="line"/>
      <point x="155" y="469"/>
      <point x="64" y="471"/>
      <point x="64" y="421" type="curve" smooth="yes"/>
      <point x="64" y="405"/>
      <point x="75" y="388"/>
      <point x="93" y="388" type="curve"/>
      <point x="123" y="387"/>
      <point x="177" y="450"/>
      <point x="228" y="480" type="curve"/>
      <point x="229" y="479" type="line"/>
      <point x="218" y="422"/>
      <point x="180" y="373"/>
      <point x="180" y="344" type="curve" smooth="yes"/>
      <point x="180" y="325"/>
      <point x="194" y="315"/>
    </contour>
  </outline>
</glyph>
<glyph name="period" format="2">
  <advance width="242"/>
  <unicode hex="002E"/>
  <outline>
    <contour>
      <point x="77" y="-8" type="curve" smooth="yes"/>
      <point x="116" y="-8"/>
      <point x="137" y="18"/>
      <point x="137" y="49" type="curve" smooth="yes"/>
      <point x="137" y="82"/>
      <point x="116" y="110"/>
      <point x="79" y="110" type="curve" smooth="yes"/>
      <point x="41" y="110"/>
      <point x="19" y="83"/>
      <point x="19" y="49" type="curve" smooth="yes"/>
      <point x="19" y="16"/>
      <point x="39" y="-8"/>
    </contour>
  </outline>
</glyph>
<glyph name="slash" format="2">
  <advance width="386"/>
  <unicode hex="002F"/>
  <outline>
    <contour>
      <point x="21" y="-89" type="line"/>
      <point x="451" y="709" type="line"/>
      <point x="397" y="709" type="line"/>
      <point x="-34" y="-89" type="line"/>
    </contour>
  </outline>
</glyph>
<glyph name="zero" format="2">
  <advance width="495"/>
  <unicode hex="0030"/>
  <anchor x="193" y="0" name="bottom"/>
  <anchor x="194" y="0" name="cedilla"/>
  <anchor x="194" y="0" name="ogonek"/>
  <anchor x="322" y="657" name="top"/>
  <outline>
    <contour>
      <point x="196" y="-11" type="curve" smooth="yes"/>
      <point x="393" y="-11"/>
      <point x="480" y="225"/>
      <point x="480" y="412" type="curve" smooth="yes"/>
      <point x="480" y="556"/>
      <point x="419" y="642"/>
      <point x="319" y="642" type="curve" smooth="yes"/>
      <point x="139" y="642"/>
      <point x="33" y="446"/>
      <point x="33" y="217" type="curve" smooth="yes"/>
      <point x="33" y="92"/>
      <point x="78" y="-11"/>
    </contour>
    <contour>
      <point x="205" y="25" type="curve" smooth="yes"/>
      <point x="152" y="25"/>
      <point x="124" y="83"/>
      <point x="124" y="191" type="curve" smooth="yes"/>
      <point x="124" y="375"/>
      <point x="178" y="608"/>
      <point x="307" y="608" type="curve" smooth="yes"/>
      <point x="361" y="608"/>
      <point x="389" y="552"/>
      <point x="389" y="443" type="curve" smooth="yes"/>
      <point x="389" y="245"/>
      <point x="331" y="25"/>
    </contour>
  </outline>
</glyph>
<glyph name="one" format="2">
  <advance width="495"/>
  <unicode hex="0031"/>
  <anchor x="204" y="0" name="bottom"/>
  <anchor x="204" y="0" name="cedilla"/>
  <anchor x="203" y="0" name="ogonek"/>
  <anchor x="333" y="657" name="top"/>
  <outline>
    <contour>
      <point x="371" y="0" type="line"/>
      <point x="377" y="28" type="line"/>
      <point x="299" y="28"/>
      <point x="272" y="41"/>
      <point x="272" y="75" type="curve" smooth="yes"/>
      <point x="272" y="81"/>
      <point x="273" y="88"/>
      <point x="274" y="95" type="curve" smooth="yes"/>
      <point x="390" y="639" type="line"/>
      <point x="361" y="639" type="line"/>
      <point x="170" y="584" type="line"/>
      <point x="163" y="551" type="line"/>
      <point x="196" y="561"/>
      <point x="234" y="567"/>
      <point x="254" y="567" type="curve" smooth="yes"/>
      <point x="272" y="567"/>
      <point x="280" y="560"/>
      <point x="280" y="543" type="curve" smooth="yes"/>
      <point x="280" y="536"/>
      <point x="278" y="528"/>
      <point x="276" y="518" type="curve" smooth="yes"/>
      <point x="186" y="95" type="line" smooth="yes"/>
      <point x="176" y="45"/>
      <point x="152" y="28"/>
      <point x="58" y="28" type="curve"/>
      <point x="52" y="0" type="line"/>
    </contour>
  </outline>
</glyph>
<glyph name="two" format="2">
  <advance width="495"/>
  <unicode hex="0032"/>
  <anchor x="202" y="0" name="bottom"/>
  <anchor x="202" y="0" name="cedilla"/>
  <anchor x="202" y="0" name="ogonek"/>
  <anchor x="331" y="657" name="top"/>
  <outline>
    <contour>
      <point x="380" y="0" type="line"/>
      <point x="446" y="160" type="line"/>
      <point x="417" y="160" type="line"/>
      <point x="381" y="100"/>
      <point x="364" y="79"/>
      <point x="311" y="79" type="curve" smooth="yes"/>
      <point x="172" y="79" type="line"/>
      <point x="105" y="76" type="line"/>
      <point x="106" y="81" type="line"/>
      <point x="260" y="206" type="line"/>
      <point x="412" y="332"/>
      <point x="482" y="400"/>
      <point x="482" y="504" type="curve" smooth="yes"/>
      <point x="482" y="589"/>
      <point x="424" y="644"/>
      <point x="329" y="644" type="curve" smooth="yes"/>
      <point x="225" y="644"/>
      <point x="156" y="586"/>
      <point x="100" y="491" type="curve"/>
      <point x="122" y="481" type="line"/>
      <point x="179" y="555"/>
      <point x="224" y="581"/>
      <point x="289" y="581" type="curve" smooth="yes"/>
      <point x="354" y="581"/>
      <point x="388" y="541"/>
      <point x="388" y="483" type="curve" smooth="yes"/>
      <point x="388" y="376"/>
      <point x="333" y="317"/>
      <point x="180" y="184" type="curve"/>
      <point x="-3" y="34" type="line"/>
      <point x="-10" y="0" type="line"/>
    </contour>
  </outline>
</glyph>
<glyph name="three" format="2">
  <advance width="495"/>
  <unicode hex="0033"/>
  <anchor x="203" y="0" name="bottom"/>
  <anchor x="204" y="0" name="cedilla"/>
  <anchor x="204" y="0" name="ogonek"/>
  <anchor x="332" y="657" name="top"/>
  <outline>
    <contour>
      <point x="125" y="-13" type="curve" smooth="yes"/>
      <point x="289" y="-13"/>
      <point x="445" y="71"/>
      <point x="445" y="222" type="curve" smooth="yes"/>
      <point x="445" y="293"/>
      <point x="395" y="334"/>
      <point x="331" y="356" type="curve"/>
      <point x="331" y="359" type="line"/>
      <point x="416" y="406"/>
      <point x="472" y="451"/>
      <point x="472" y="533" type="curve" smooth="yes"/>
      <point x="472" y="597"/>
      <point x="427" y="644"/>
      <point x="340" y="644" type="curve" smooth="yes"/>
      <point x="248" y="644"/>
      <point x="187" y="596"/>
      <point x="129" y="511" type="curve"/>
      <point x="149" y="498" type="line"/>
      <point x="194" y="551"/>
      <point x="233" y="581"/>
      <point x="297" y="581" type="curve" smooth="yes"/>
      <point x="350" y="581"/>
      <point x="384" y="557"/>
      <point x="384" y="505" type="curve" smooth="yes"/>
      <point x="384" y="416"/>
      <point x="288" y="350"/>
      <point x="207" y="350" type="curve" smooth="yes"/>
      <point x="192" y="350" type="line"/>
      <point x="184" y="312" type="line"/>
      <point x="204" y="312" type="line" smooth="yes"/>
      <point x="290" y="312"/>
      <point x="359" y="262"/>
      <point x="359" y="187" type="curve" smooth="yes"/>
      <point x="359" y="76"/>
      <point x="279" y="37"/>
      <point x="205" y="37" type="curve" smooth="yes"/>
      <point x="129" y="37"/>
      <point x="113" y="86"/>
      <point x="70" y="86" type="curve" smooth="yes"/>
      <point x="39" y="86"/>
      <point x="24" y="59"/>
      <point x="24" y="38" type="curve" smooth="yes"/>
      <point x="24" y="11"/>
      <point x="41" y="-13"/>
    </contour>
  </outline>
</glyph>
<glyph name="four" format="2">
  <advance width="495"/>
  <unicode hex="0034"/>
  <anchor x="223" y="0" name="bottom"/>
  <anchor x="223" y="0" name="cedilla"/>
  <anchor x="224" y="0" name="ogonek"/>
  <anchor x="352" y="657" name="top"/>
  <outline>
    <contour>
      <point x="333" y="0" type="line"/>
      <point x="470" y="645" type="line"/>
      <point x="409" y="645" type="line"/>
      <point x="36" y="221" type="line"/>
      <point x="23" y="158" type="line"/>
      <point x="469" y="158" type="line"/>
      <point x="483" y="227" type="line"/>
      <point x="92" y="227" type="line"/>
      <point x="93" y="231" type="line"/>
      <point x="354" y="531" type="line"/>
      <point x="358" y="531" type="line"/>
      <point x="244" y="0" type="line"/>
    </contour>
  </outline>
</glyph>
<glyph name="five" format="2">
  <advance width="495"/>
  <unicode hex="0035"/>
  <anchor x="211" y="0" name="bottom"/>
  <anchor x="213" y="0" name="cedilla"/>
  <anchor x="212" y="0" name="ogonek"/>
  <anchor x="340" y="657" name="top"/>
  <outline>
    <contour>
      <point x="130" y="-13" type="curve" smooth="yes"/>
      <point x="316" y="-13"/>
      <point x="445" y="86"/>
      <point x="445" y="253" type="curve" smooth="yes"/>
      <point x="445" y="399"/>
      <point x="300" y="429"/>
      <point x="190" y="433" type="curve"/>
      <point x="224" y="549" type="line"/>
      <point x="472" y="549" type="line"/>
      <point x="495" y="630" type="line"/>
      <point x="202" y="630" type="line"/>
      <point x="125" y="371" type="line"/>
      <point x="134" y="356" type="line"/>
      <point x="134" y="356"/>
      <point x="153" y="356"/>
      <point x="179" y="354" type="curve" smooth="yes"/>
      <point x="296" y="345"/>
      <point x="364" y="312"/>
      <point x="364" y="213" type="curve" smooth="yes"/>
      <point x="364" y="88"/>
      <point x="288" y="37"/>
      <point x="203" y="37" type="curve" smooth="yes"/>
      <point x="139" y="37"/>
      <point x="116" y="86"/>
      <point x="76" y="86" type="curve" smooth="yes"/>
      <point x="47" y="86"/>
      <point x="29" y="63"/>
      <point x="29" y="37" type="curve" smooth="yes"/>
      <point x="29" y="5"/>
      <point x="60" y="-13"/>
    </contour>
  </outline>
</glyph>
<glyph name="six" format="2">
  <advance width="494"/>
  <unicode hex="0036"/>
  <anchor x="205" y="0" name="bottom"/>
  <anchor x="207" y="0" name="cedilla"/>
  <anchor x="206" y="0" name="ogonek"/>
  <anchor x="334" y="657" name="top"/>
  <outline>
    <contour>
      <point x="208" y="-13" type="curve" smooth="yes"/>
      <point x="362" y="-13"/>
      <point x="455" y="98"/>
      <point x="455" y="255" type="curve" smooth="yes"/>
      <point x="455" y="353"/>
      <point x="404" y="413"/>
      <point x="314" y="413" type="curve" smooth="yes"/>
      <point x="250" y="413"/>
      <point x="208" y="387"/>
      <point x="159" y="347" type="curve"/>
      <point x="152" y="348" type="line"/>
      <point x="208" y="498"/>
      <point x="357" y="598"/>
      <point x="501" y="619" type="curve"/>
      <point x="501" y="646" type="line"/>
      <point x="245" y="635"/>
      <point x="41" y="457"/>
      <point x="41" y="183" type="curve" smooth="yes"/>
      <point x="41" y="74"/>
      <point x="91" y="-13"/>
    </contour>
    <contour>
      <point x="217" y="23" type="curve" smooth="yes"/>
      <point x="153" y="23"/>
      <point x="123" y="81"/>
      <point x="123" y="163" type="curve" smooth="yes"/>
      <point x="123" y="312"/>
      <point x="202" y="355"/>
      <point x="271" y="355" type="curve" smooth="yes"/>
      <point x="337" y="355"/>
      <point x="369" y="305"/>
      <point x="369" y="239" type="curve" smooth="yes"/>
      <point x="369" y="117"/>
      <point x="322" y="23"/>
    </contour>
  </outline>
</glyph>
<glyph name="seven" format="2">
  <advance width="495"/>
  <unicode hex="0037"/>
  <anchor x="185" y="0" name="bottom"/>
  <anchor x="187" y="0" name="cedilla"/>
  <anchor x="185" y="0" name="ogonek"/>
  <anchor x="314" y="657" name="top"/>
  <outline>
    <contour>
      <point x="155" y="-8" type="line"/>
      <point x="515" y="599" type="line"/>
      <point x="522" y="630" type="line"/>
      <point x="128" y="630" type="line"/>
      <point x="72" y="481" type="line"/>
      <point x="103" y="476" type="line"/>
      <point x="142" y="542"/>
      <point x="146" y="551"/>
      <point x="194" y="551" type="curve" smooth="yes"/>
      <point x="429" y="551" type="line"/>
      <point x="70" y="-8" type="line"/>
    </contour>
  </outline>
</glyph>
<glyph name="eight" format="2">
  <advance width="495"/>
  <unicode hex="0038"/>
  <anchor x="195" y="0" name="bottom"/>
  <anchor x="194" y="0" name="cedilla"/>
  <anchor x="194" y="0" name="ogonek"/>
  <anchor x="324" y="657" name="top"/>
  <outline>
    <contour>
      <point x="191" y="-12" type="curve" smooth="yes"/>
      <point x="327" y="-12"/>
      <point x="431" y="55"/>
      <point x="431" y="180" type="curve" smooth="yes"/>
      <point x="431" y="240"/>
      <point x="397" y="286"/>
      <point x="295" y="355" type="curve" smooth="yes"/>
      <point x="221" y="405"/>
      <point x="193" y="448"/>
      <point x="193" y="501" type="curve" smooth="yes"/>
      <point x="193" y="569"/>
      <point x="247" y="615"/>
      <point x="328" y="615" type="curve" smooth="yes"/>
      <point x="382" y="615"/>
      <point x="409" y="586"/>
      <point x="409" y="533" type="curve" smooth="yes"/>
      <point x="409" y="462"/>
      <point x="356" y="397"/>
      <point x="275" y="357" type="curve"/>
      <point x="312" y="334" type="line"/>
      <point x="316" y="346" type="line"/>
      <point x="452" y="415"/>
      <point x="484" y="477"/>
      <point x="484" y="534" type="curve" smooth="yes"/>
      <point x="484" y="604"/>
      <point x="425" y="648"/>
      <point x="337" y="648" type="curve" smooth="yes"/>
      <point x="213" y="648"/>
      <point x="113" y="579"/>
      <point x="113" y="466" type="curve" smooth="yes"/>
      <point x="113" y="414"/>
      <point x="136" y="374"/>
      <point x="215" y="315" type="curve" smooth="yes"/>
      <point x="307" y="247"/>
      <point x="346" y="204"/>
      <point x="346" y="138" type="curve" smooth="yes"/>
      <point x="346" y="57"/>
      <point x="277" y="19"/>
      <point x="205" y="19" type="curve" smooth="yes"/>
      <point x="142" y="19"/>
      <point x="104" y="51"/>
      <point x="104" y="123" type="curve" smooth="yes"/>
      <point x="104" y="212"/>
      <point x="145" y="251"/>
      <point x="243" y="309" type="curve"/>
      <point x="205" y="332" type="line"/>
      <point x="201" y="320" type="line"/>
      <point x="70" y="251"/>
      <point x="25" y="197"/>
      <point x="25" y="109" type="curve" smooth="yes"/>
      <point x="25" y="29"/>
      <point x="89" y="-12"/>
    </contour>
  </outline>
</glyph>
<glyph name="nine" format="2">
  <advance width="495"/>
  <unicode hex="0039"/>
  <anchor x="172" y="0" name="bottom"/>
  <anchor x="174" y="0" name="cedilla"/>
  <anchor x="173" y="0" name="ogonek"/>
  <anchor x="301" y="657" name="top"/>
  <outline>
    <contour>
      <point x="20" y="-13" type="line"/>
      <point x="292" y="-17"/>
      <point x="475" y="155"/>
      <point x="475" y="450" type="curve" smooth="yes"/>
      <point x="475" y="559"/>
      <point x="424" y="646"/>
      <point x="308" y="646" type="curve" smooth="yes"/>
      <point x="155" y="646"/>
      <point x="65" y="546"/>
      <point x="65" y="387" type="curve" smooth="yes"/>
      <point x="65" y="289"/>
      <point x="119" y="223"/>
      <point x="209" y="223" type="curve" smooth="yes"/>
      <point x="275" y="223"/>
      <point x="315" y="248"/>
      <point x="368" y="297" type="curve"/>
      <point x="374" y="296" type="line"/>
      <point x="314" y="116"/>
      <point x="162" y="24"/>
      <point x="20" y="14" type="curve"/>
    </contour>
    <contour>
      <point x="247" y="281" type="curve" smooth="yes"/>
      <point x="181" y="281"/>
      <point x="147" y="333"/>
      <point x="147" y="402" type="curve" smooth="yes"/>
      <point x="147" y="540"/>
      <point x="209" y="610"/>
      <point x="302" y="610" type="curve" smooth="yes"/>
      <point x="365" y="610"/>
      <point x="394" y="555"/>
      <point x="394" y="476" type="curve" smooth="yes"/>
      <point x="394" y="322"/>
      <point x="316" y="281"/>
    </contour>
  </outline>
</glyph>
<glyph name="question" format="2">
  <advance width="400"/>
  <unicode hex="003F"/>
  <outline>
    <contour>
      <point x="202" y="170" type="line"/>
      <point x="206" y="186" type="line" smooth="yes"/>
      <point x="235" y="302"/>
      <point x="438" y="368"/>
      <point x="438" y="529" type="curve" smooth="yes"/>
      <point x="438" y="619"/>
      <point x="374" y="669"/>
      <point x="281" y="669" type="curve" smooth="yes"/>
      <point x="170" y="669"/>
      <point x="86" y="598"/>
      <point x="86" y="519" type="curve" smooth="yes"/>
      <point x="86" y="484"/>
      <point x="102" y="466"/>
      <point x="128" y="466" type="curve" smooth="yes"/>
      <point x="152" y="466"/>
      <point x="175" y="481"/>
      <point x="175" y="515" type="curve" smooth="yes"/>
      <point x="175" y="535"/>
      <point x="167" y="549"/>
      <point x="167" y="566" type="curve" smooth="yes"/>
      <point x="167" y="603"/>
      <point x="203" y="635"/>
      <point x="260" y="635" type="curve" smooth="yes"/>
      <point x="321" y="635"/>
      <point x="352" y="598"/>
      <point x="352" y="525" type="curve" smooth="yes"/>
      <point x="352" y="366"/>
      <point x="204" y="345"/>
      <point x="170" y="196" type="curve" smooth="yes"/>
      <point x="164" y="170" type="line"/>
    </contour>
    <contour>
      <point x="170" y="-8" type="curve" smooth="yes"/>
      <point x="207" y="-8"/>
      <point x="227" y="17"/>
      <point x="227" y="47" type="curve" smooth="yes"/>
      <point x="227" y="78"/>
      <point x="207" y="105"/>
      <point x="171" y="105" type="curve" smooth="yes"/>
      <point x="135" y="105"/>
      <point x="114" y="79"/>
      <point x="114" y="46" type="curve" smooth="yes"/>
      <point x="114" y="15"/>
      <point x="133" y="-8"/>
    </contour>
  </outline>
</glyph>
<glyph name="at" format="2">
  <advance width="916"/>
  <unicode hex="0040"/>
  <outline>
    <contour>
      <point x="391" y="-186" type="curve" smooth="yes"/>
      <point x="483" y="-186"/>
      <point x="565" y="-167"/>
      <point x="666" y="-116" type="curve"/>
      <point x="654" y="-88" type="line"/>
      <point x="562" y="-128"/>
      <point x="484" y="-136"/>
      <point x="410" y="-136" type="curve" smooth="yes"/>
      <point x="228" y="-136"/>
      <point x="116" y="-48"/>
      <point x="116" y="140" type="curve" smooth="yes"/>
      <point x="116" y="411"/>
      <point x="313" y="582"/>
      <point x="553" y="582" type="curve" smooth="yes"/>
      <point x="710" y="582"/>
      <point x="809" y="487"/>
      <point x="809" y="334" type="curve" smooth="yes"/>
      <point x="809" y="239"/>
      <point x="768" y="50"/>
      <point x="629" y="50" type="curve" smooth="yes"/>
      <point x="598" y="50"/>
      <point x="596" y="75"/>
      <point x="602" y="103" type="curve" smooth="yes"/>
      <point x="677" y="439" type="line"/>
      <point x="633" y="439" type="line"/>
      <point x="598" y="396" type="line"/>
      <point x="591" y="396" type="line"/>
      <point x="576" y="422"/>
      <point x="551" y="445"/>
      <point x="503" y="445" type="curve" smooth="yes"/>
      <point x="337" y="445"/>
      <point x="240" y="274"/>
      <point x="240" y="129" type="curve" smooth="yes"/>
      <point x="240" y="21"/>
      <point x="294" y="-12"/>
      <point x="357" y="-12" type="curve" smooth="yes"/>
      <point x="417" y="-12"/>
      <point x="477" y="24"/>
      <point x="523" y="82" type="curve"/>
      <point x="528" y="82" type="line"/>
      <point x="523" y="17"/>
      <point x="541" y="-8"/>
      <point x="604" y="-8" type="curve" smooth="yes"/>
      <point x="759" y="-8"/>
      <point x="871" y="140"/>
      <point x="871" y="340" type="curve" smooth="yes"/>
      <point x="871" y="508"/>
      <point x="763" y="626"/>
      <point x="560" y="626" type="curve" smooth="yes"/>
      <point x="273" y="626"/>
      <point x="53" y="417"/>
      <point x="53" y="128" type="curve" smooth="yes"/>
      <point x="53" y="-63"/>
      <point x="169" y="-186"/>
    </contour>
    <contour>
      <point x="398" y="50" type="curve" smooth="yes"/>
      <point x="357" y="50"/>
      <point x="322" y="72"/>
      <point x="322" y="153" type="curve" smooth="yes"/>
      <point x="322" y="244"/>
      <point x="374" y="411"/>
      <point x="497" y="411" type="curve" smooth="yes"/>
      <point x="550" y="411"/>
      <point x="576" y="368"/>
      <point x="575" y="323" type="curve"/>
      <point x="533" y="137" type="line"/>
      <point x="508" y="96"/>
      <point x="461" y="50"/>
    </contour>
  </outline>
</glyph>
<glyph name="A" format="2">
  <advance width="681"/>
  <unicode hex="0041"/>
  <anchor x="262" y="0" name="bottom"/>
  <anchor x="262" y="0" name="cedilla"/>
  <anchor x="371" y="0" name="ogonek"/>
  <anchor x="451" y="657" name="top"/>
  <outline>
    <contour>
      <point x="147" y="0" type="line"/>
      <point x="154" y="30" type="line"/>
      <point x="110" y="30"/>
      <point x="96" y="36"/>
      <point x="96" y="57" type="curve" smooth="yes"/>
      <point x="96" y="76"/>
      <point x="107" y="94"/>
      <point x="121" y="113" type="curve"/>
      <point x="197" y="229" type="line"/>
      <point x="209" y="249" type="line"/>
      <point x="409" y="548" type="line"/>
      <point x="412" y="548" type="line"/>
      <point x="446" y="249" type="line"/>
      <point x="448" y="229" type="line"/>
      <point x="459" y="129" type="line"/>
      <point x="460" y="117"/>
      <point x="461" y="103"/>
      <point x="461" y="87" type="curve" smooth="yes"/>
      <point x="461" y="37"/>
      <point x="430" y="30"/>
      <point x="381" y="30" type="curve"/>
      <point x="375" y="0" type="line"/>
      <point x="642" y="0" type="line"/>
      <point x="648" y="30" type="line"/>
      <point x="588" y="30"/>
      <point x="574" y="53"/>
      <point x="561" y="119" type="curve"/>
      <point x="482" y="661" type="line"/>
      <point x="440" y="661" type="line"/>
      <point x="94" y="160" type="line"/>
      <point x="19" y="46"/>
      <point x="0" y="30"/>
      <point x="-55" y="30" type="curve"/>
      <point x="-62" y="0" type="line"/>
    </contour>
    <contour>
      <point x="459" y="219" type="line"/>
      <point x="455" y="259" type="line"/>
      <point x="203" y="259" type="line"/>
      <point x="179" y="219" type="line"/>
    </contour>
  </outline>
</glyph>
<glyph name="B" format="2">
  <advance width="593"/>
  <unicode hex="0042"/>
  <anchor x="223" y="0" name="bottom"/>
  <anchor x="224" y="0" name="cedilla"/>
  <anchor x="223" y="0" name="ogonek"/>
  <anchor x="362" y="657" name="top"/>
  <outline>
    <contour>
      <point x="275" y="0" type="line" smooth="yes"/>
      <point x="432" y="0"/>
      <point x="556" y="73"/>
      <point x="556" y="207" type="curve" smooth="yes"/>
      <point x="556" y="291"/>
      <point x="491" y="333"/>
      <point x="413" y="344" type="curve"/>
      <point x="413" y="349" type="line"/>
      <point x="508" y="371"/>
      <point x="588" y="420"/>
      <point x="588" y="528" type="curve" smooth="yes"/>
      <point x="588" y="600"/>
      <point x="540" y="657"/>
      <point x="371" y="657" type="curve" smooth="yes"/>
      <point x="118" y="657" type="line"/>
      <point x="112" y="627" type="line"/>
      <point x="186" y="627"/>
      <point x="205" y="616"/>
      <point x="188" y="536" type="curve" smooth="yes"/>
      <point x="103" y="125" type="line" smooth="yes"/>
      <point x="86" y="42"/>
      <point x="69" y="30"/>
      <point x="-7" y="30" type="curve"/>
      <point x="-13" y="0" type="line"/>
    </contour>
    <contour>
      <point x="237" y="36" type="curve" smooth="yes"/>
      <point x="212" y="36"/>
      <point x="199" y="37"/>
      <point x="176" y="39" type="curve"/>
      <point x="293" y="616" type="line"/>
      <point x="314" y="618"/>
      <point x="323" y="619"/>
      <point x="343" y="619" type="curve" smooth="yes"/>
      <point x="455" y="619"/>
      <point x="489" y="575"/>
      <point x="489" y="521" type="curve" smooth="yes"/>
      <point x="489" y="422"/>
      <point x="437" y="362"/>
      <point x="299" y="362" type="curve" smooth="yes"/>
      <point x="231" y="362" type="line"/>
      <point x="223" y="322" type="line"/>
      <point x="292" y="322" type="line" smooth="yes"/>
      <point x="376" y="322"/>
      <point x="453" y="296"/>
      <point x="453" y="204" type="curve" smooth="yes"/>
      <point x="453" y="56"/>
      <point x="328" y="36"/>
    </contour>
  </outline>
</glyph>
<glyph name="D" format="2">
  <advance width="702"/>
  <unicode hex="0044"/>
  <anchor x="243" y="0" name="bottom"/>
  <anchor x="241" y="0" name="cedilla"/>
  <anchor x="241" y="0" name="ogonek"/>
  <anchor x="382" y="657" name="top"/>
  <outline>
    <contour>
      <point x="241" y="0" type="line" smooth="yes"/>
      <point x="496" y="0"/>
      <point x="680" y="115"/>
      <point x="680" y="398" type="curve" smooth="yes"/>
      <point x="680" y="554"/>
      <point x="586" y="657"/>
      <point x="378" y="657" type="curve" smooth="yes"/>
      <point x="118" y="657" type="line"/>
      <point x="112" y="627" type="line"/>
      <point x="184" y="627"/>
      <point x="204" y="616"/>
      <point x="190" y="543" type="curve"/>
      <point x="103" y="124" type="line"/>
      <point x="87" y="43"/>
      <point x="69" y="30"/>
      <point x="-7" y="30" type="curve"/>
      <point x="-13" y="0" type="line"/>
    </contour>
    <contour>
      <point x="241" y="39" type="curve" smooth="yes"/>
      <point x="215" y="39"/>
      <point x="195" y="39"/>
      <point x="176" y="42" type="curve"/>
      <point x="294" y="614" type="line"/>
      <point x="312" y="616"/>
      <point x="321" y="617"/>
      <point x="338" y="617" type="curve" smooth="yes"/>
      <point x="535" y="617"/>
      <point x="580" y="511"/>
      <point x="580" y="389" type="curve" smooth="yes"/>
      <point x="580" y="142"/>
      <point x="456" y="39"/>
    </contour>
  </outline>
</glyph>
<glyph name="E" format="2">
  <advance width="614"/>
  <unicode hex="0045"/>
  <anchor x="268" y="0" name="bottom"/>
  <anchor x="268" y="0" name="cedilla"/>
  <anchor x="370" y="0" name="ogonek"/>
  <anchor x="387" y="657" name="top"/>
  <outline>
    <contour>
      <point x="506" y="0" type="line"/>
      <point x="560" y="186" type="line"/>
      <point x="528" y="186" type="line"/>
      <point x="464" y="65"/>
      <point x="450" y="38"/>
      <point x="296" y="39" type="curve"/>
      <point x="175" y="39" type="line"/>
      <point x="293" y="618" type="line"/>
      <point x="432" y="618" type="line" smooth="yes"/>
      <point x="555" y="618"/>
      <point x="577" y="593"/>
      <point x="572" y="493" type="curve"/>
      <point x="603" y="493" type="line"/>
      <point x="630" y="657" type="line"/>
      <point x="118" y="657" type="line"/>
      <point x="112" y="627" type="line"/>
      <point x="194" y="627"/>
      <point x="204" y="611"/>
      <point x="188" y="535" type="curve" smooth="yes"/>
      <point x="100" y="112" type="line" smooth="yes"/>
      <point x="86" y="42"/>
      <point x="62" y="30"/>
      <point x="-7" y="30" type="curve"/>
      <point x="-13" y="0" type="line"/>
    </contour>
    <contour>
      <point x="467" y="226" type="line"/>
      <point x="514" y="458" type="line"/>
      <point x="482" y="458" type="line"/>
      <point x="466" y="377"/>
      <point x="442" y="358"/>
      <point x="350" y="358" type="curve" smooth="yes"/>
      <point x="229" y="358" type="line"/>
      <point x="222" y="320" type="line"/>
      <point x="342" y="320" type="line" smooth="yes"/>
      <point x="434" y="320"/>
      <point x="452" y="309"/>
      <point x="436" y="226" type="curve"/>
    </contour>
  </outline>
</glyph>
<glyph name="F" format="2">
  <advance width="583"/>
  <unicode hex="0046"/>
  <anchor x="127" y="0" name="bottom"/>
  <anchor x="128" y="0" name="cedilla"/>
  <anchor x="127" y="0" name="ogonek"/>
  <anchor x="392" y="657" name="top"/>
  <outline>
    <contour>
      <point x="275" y="0" type="line"/>
      <point x="280" y="30" type="line"/>
      <point x="218" y="30"/>
      <point x="186" y="37"/>
      <point x="186" y="72" type="curve" smooth="yes"/>
      <point x="186" y="81"/>
      <point x="187" y="93"/>
      <point x="190" y="106" type="curve"/>
      <point x="294" y="618" type="line"/>
      <point x="444" y="618" type="line" smooth="yes"/>
      <point x="574" y="618"/>
      <point x="578" y="589"/>
      <point x="577" y="494" type="curve"/>
      <point x="607" y="494" type="line"/>
      <point x="634" y="657" type="line"/>
      <point x="118" y="657" type="line"/>
      <point x="112" y="627" type="line"/>
      <point x="193" y="627"/>
      <point x="204" y="613"/>
      <point x="190" y="544" type="curve" smooth="yes"/>
      <point x="101" y="116" type="line" smooth="yes"/>
      <point x="86" y="42"/>
      <point x="62" y="30"/>
      <point x="-7" y="30" type="curve"/>
      <point x="-13" y="0" type="line"/>
    </contour>
    <contour>
      <point x="460" y="224" type="line"/>
      <point x="506" y="457" type="line"/>
      <point x="474" y="457" type="line"/>
      <point x="457" y="377"/>
      <point x="436" y="358"/>
      <point x="351" y="358" type="curve" smooth="yes"/>
      <point x="230" y="358" type="line"/>
      <point x="223" y="320" type="line"/>
      <point x="341" y="320" type="line" smooth="yes"/>
      <point x="427" y="320"/>
      <point x="443" y="309"/>
      <point x="427" y="224" type="curve"/>
    </contour>
  </outline>
</glyph>
<glyph name="I" format="2">
  <advance width="343"/>
  <unicode hex="0049"/>
  <anchor x="118" y="0" name="bottom"/>
  <anchor x="107" y="0" name="cedilla"/>
  <anchor x="106" y="0" name="ogonek"/>
  <anchor x="252" y="657" name="top"/>
  <outline>
    <contour>
      <point x="260" y="0" type="line"/>
      <point x="266" y="30" type="line"/>
      <point x="185" y="30"/>
      <point x="176" y="40"/>
      <point x="193" y="127" type="curve" smooth="yes"/>
      <point x="275" y="525" type="line"/>
      <point x="290" y="603"/>
      <point x="300" y="627"/>
      <point x="389" y="627" type="curve"/>
      <point x="395" y="657" type="line"/>
      <point x="118" y="657" type="line"/>
      <point x="112" y="627" type="line"/>
      <point x="203" y="627"/>
      <point x="203" y="603"/>
      <point x="186" y="525" type="curve"/>
      <point x="104" y="131" type="line" smooth="yes"/>
      <point x="86" y="43"/>
      <point x="74" y="30"/>
      <point x="-7" y="30" type="curve"/>
      <point x="-13" y="0" type="line"/>
    </contour>
  </outline>
</glyph>
<glyph name="K" format="2">
  <advance width="655"/>
  <unicode hex="004B"/>
  <anchor x="298" y="0" name="bottom"/>
  <anchor x="299" y="0" name="cedilla"/>
  <anchor x="475" y="0" name="ogonek"/>
  <anchor x="427" y="657" name="top"/>
  <outline>
    <contour>
      <point x="266" y="0" type="line"/>
      <point x="272" y="30" type="line"/>
      <point x="183" y="30"/>
      <point x="178" y="45"/>
      <point x="195" y="131" type="curve" smooth="yes"/>
      <point x="275" y="525" type="line" smooth="yes"/>
      <point x="291" y="603"/>
      <point x="300" y="627"/>
      <point x="395" y="627" type="curve"/>
      <point x="400" y="657" type="line"/>
      <point x="118" y="657" type="line"/>
      <point x="112" y="627" type="line"/>
      <point x="200" y="627"/>
      <point x="202" y="603"/>
      <point x="186" y="525" type="curve" smooth="yes"/>
      <point x="104" y="131" type="line" smooth="yes"/>
      <point x="86" y="45"/>
      <point x="76" y="30"/>
      <point x="-7" y="30" type="curve"/>
      <point x="-13" y="0" type="line"/>
    </contour>
    <contour>
      <point x="637" y="0" type="line"/>
      <point x="643" y="30" type="line"/>
      <point x="594" y="30"/>
      <point x="563" y="41"/>
      <point x="537" y="73" type="curve" smooth="yes"/>
      <point x="306" y="366" type="line"/>
      <point x="233" y="321" type="line"/>
      <point x="306" y="233" type="line" smooth="yes"/>
      <point x="391" y="130"/>
      <point x="415" y="91"/>
      <point x="415" y="59" type="curve" smooth="yes"/>
      <point x="415" y="36"/>
      <point x="397" y="30"/>
      <point x="367" y="30" type="curve" smooth="yes"/>
      <point x="354" y="30" type="line"/>
      <point x="349" y="0" type="line"/>
    </contour>
    <contour>
      <point x="261" y="309" type="line"/>
      <point x="574" y="561" type="line" smooth="yes"/>
      <point x="635" y="610"/>
      <point x="655" y="622"/>
      <point x="712" y="627" type="curve"/>
      <point x="717" y="657" type="line"/>
      <point x="482" y="657" type="line"/>
      <point x="475" y="627" type="line"/>
      <point x="492" y="627" type="line" smooth="yes"/>
      <point x="515" y="627"/>
      <point x="529" y="619"/>
      <point x="529" y="604" type="curve" smooth="yes"/>
      <point x="529" y="574"/>
      <point x="490" y="542"/>
      <point x="432" y="495" type="curve" smooth="yes"/>
      <point x="241" y="338" type="line"/>
      <point x="230" y="338" type="line"/>
      <point x="224" y="309" type="line"/>
    </contour>
  </outline>
</glyph>
<glyph name="M" format="2">
  <advance width="869"/>
  <unicode hex="004D"/>
  <anchor x="365" y="0" name="bottom"/>
  <anchor x="366" y="0" name="cedilla"/>
  <anchor x="340" y="0" name="ogonek"/>
  <anchor x="514" y="657" name="top"/>
  <outline>
    <contour>
      <point x="208" y="0" type="line"/>
      <point x="214" y="30" type="line"/>
      <point x="138" y="30"/>
      <point x="126" y="43"/>
      <point x="147" y="146" type="curve" smooth="yes"/>
      <point x="230" y="550" type="line"/>
      <point x="234" y="550" type="line"/>
      <point x="355" y="0" type="line"/>
      <point x="377" y="0" type="line"/>
      <point x="713" y="551" type="line"/>
      <point x="717" y="551" type="line"/>
      <point x="628" y="119" type="line" smooth="yes"/>
      <point x="613" y="46"/>
      <point x="599" y="30"/>
      <point x="525" y="30" type="curve"/>
      <point x="519" y="0" type="line"/>
      <point x="786" y="0" type="line"/>
      <point x="792" y="30" type="line"/>
      <point x="721" y="30"/>
      <point x="702" y="46"/>
      <point x="717" y="119" type="curve" smooth="yes"/>
      <point x="802" y="536" type="line"/>
      <point x="818" y="610"/>
      <point x="837" y="627"/>
      <point x="908" y="627" type="curve"/>
      <point x="914" y="657" type="line"/>
      <point x="725" y="657" type="line"/>
      <point x="420" y="151" type="line"/>
      <point x="416" y="151" type="line"/>
      <point x="308" y="657" type="line"/>
      <point x="108" y="657" type="line"/>
      <point x="102" y="627" type="line"/>
      <point x="181" y="627"/>
      <point x="193" y="610"/>
      <point x="177" y="535" type="curve"/>
      <point x="98" y="146" type="line" smooth="yes"/>
      <point x="77" y="43"/>
      <point x="60" y="30"/>
      <point x="-17" y="30" type="curve"/>
      <point x="-23" y="0" type="line"/>
    </contour>
  </outline>
</glyph>
<glyph name="N" format="2">
  <advance width="714"/>
  <unicode hex="004E"/>
  <anchor x="299" y="0" name="bottom"/>
  <anchor x="300" y="0" name="cedilla"/>
  <anchor x="300" y="0" name="ogonek"/>
  <anchor x="443" y="657" name="top"/>
  <outline>
    <contour>
      <point x="557" y="-8" type="line"/>
      <point x="659" y="493" type="line" smooth="yes"/>
      <point x="678" y="588"/>
      <point x="703" y="627"/>
      <point x="777" y="627" type="curve"/>
      <point x="783" y="657" type="line"/>
      <point x="547" y="657" type="line"/>
      <point x="541" y="627" type="line"/>
      <point x="624" y="627"/>
      <point x="631" y="599"/>
      <point x="611" y="498" type="curve" smooth="yes"/>
      <point x="542" y="165" type="line"/>
      <point x="537" y="165" type="line"/>
      <point x="267" y="657" type="line"/>
      <point x="110" y="657" type="line"/>
      <point x="104" y="627" type="line"/>
      <point x="154" y="627"/>
      <point x="169" y="615"/>
      <point x="199" y="561" type="curve"/>
      <point x="222" y="543" type="line"/>
      <point x="524" y="-8" type="line"/>
    </contour>
    <contour>
      <point x="209" y="0" type="line"/>
      <point x="215" y="30" type="line"/>
      <point x="140" y="30"/>
      <point x="127" y="49"/>
      <point x="147" y="149" type="curve" smooth="yes"/>
      <point x="225" y="529" type="line"/>
      <point x="261" y="529" type="line"/>
      <point x="191" y="600" type="line"/>
      <point x="98" y="149" type="line"/>
      <point x="78" y="48"/>
      <point x="63" y="30"/>
      <point x="-15" y="30" type="curve"/>
      <point x="-21" y="0" type="line"/>
    </contour>
  </outline>
</glyph>
<glyph name="O" format="2">
  <advance width="707"/>
  <unicode hex="004F"/>
  <anchor x="304" y="0" name="bottom"/>
  <anchor x="315" y="0" name="cedilla"/>
  <anchor x="364" y="0" name="ogonek"/>
  <anchor x="432" y="657" name="top"/>
  <outline>
    <contour>
      <point x="313" y="-12" type="curve" smooth="yes"/>
      <point x="524" y="-12"/>
      <point x="685" y="155"/>
      <point x="685" y="410" type="curve" smooth="yes"/>
      <point x="685" y="545"/>
      <point x="611" y="669"/>
      <point x="430" y="669" type="curve" smooth="yes"/>
      <point x="215" y="669"/>
      <point x="60" y="487"/>
      <point x="60" y="249" type="curve" smooth="yes"/>
      <point x="60" y="102"/>
      <point x="129" y="-12"/>
    </contour>
    <contour>
      <point x="325" y="31" type="curve" smooth="yes"/>
      <point x="201" y="31"/>
      <point x="163" y="124"/>
      <point x="163" y="243" type="curve" smooth="yes"/>
      <point x="163" y="455"/>
      <point x="261" y="626"/>
      <point x="419" y="626" type="curve" smooth="yes"/>
      <point x="522" y="626"/>
      <point x="583" y="555"/>
      <point x="583" y="414" type="curve" smooth="yes"/>
      <point x="583" y="192"/>
      <point x="487" y="31"/>
    </contour>
  </outline>
</glyph>
<glyph name="R" format="2">
  <advance width="620"/>
  <unicode hex="0052"/>
  <anchor x="272" y="0" name="bottom"/>
  <anchor x="268" y="0" name="cedilla"/>
  <anchor x="268" y="0" name="ogonek"/>
  <anchor x="346" y="657" name="top"/>
  <outline>
    <contour>
      <point x="267" y="0" type="line"/>
      <point x="272" y="30" type="line"/>
      <point x="186" y="30"/>
      <point x="175" y="41"/>
      <point x="192" y="124" type="curve" smooth="yes"/>
      <point x="292" y="615" type="line"/>
      <point x="315" y="617"/>
      <point x="325" y="618"/>
      <point x="351" y="618" type="curve" smooth="yes"/>
      <point x="450" y="618"/>
      <point x="480" y="569"/>
      <point x="480" y="515" type="curve" smooth="yes"/>
      <point x="480" y="387"/>
      <point x="387" y="342"/>
      <point x="267" y="338" type="curve"/>
      <point x="227" y="339" type="line"/>
      <point x="220" y="302" type="line"/>
      <point x="250" y="302" type="line" smooth="yes"/>
      <point x="286" y="302"/>
      <point x="299" y="296"/>
      <point x="314" y="268" type="curve" smooth="yes"/>
      <point x="345" y="207"/>
      <point x="366" y="165"/>
      <point x="441" y="0" type="curve"/>
      <point x="593" y="0" type="line"/>
      <point x="599" y="30" type="line"/>
      <point x="553" y="30"/>
      <point x="529" y="41"/>
      <point x="507" y="81" type="curve" smooth="yes"/>
      <point x="425" y="236"/>
      <point x="405" y="287"/>
      <point x="369" y="312" type="curve"/>
      <point x="369" y="317" type="line"/>
      <point x="456" y="332"/>
      <point x="579" y="378"/>
      <point x="579" y="519" type="curve" smooth="yes"/>
      <point x="579" y="616"/>
      <point x="497" y="657"/>
      <point x="357" y="657" type="curve" smooth="yes"/>
      <point x="122" y="657" type="line"/>
      <point x="116" y="627" type="line"/>
      <point x="196" y="627"/>
      <point x="202" y="608"/>
      <point x="191" y="553" type="curve" smooth="yes"/>
      <point x="103" y="124" type="line" smooth="yes"/>
      <point x="86" y="40"/>
      <point x="71" y="30"/>
      <point x="-3" y="30" type="curve"/>
      <point x="-9" y="0" type="line"/>
    </contour>
  </outline>
</glyph>
<glyph name="T" format="2">
  <advance width="610"/>
  <unicode hex="0054"/>
  <anchor x="253" y="0" name="bottom"/>
  <anchor x="253" y="0" name="cedilla"/>
  <anchor x="253" y="0" name="ogonek"/>
  <anchor x="382" y="657" name="top"/>
  <outline>
    <contour>
      <point x="398" y="0" type="line"/>
      <point x="404" y="30" type="line"/>
      <point x="319" y="30"/>
      <point x="307" y="40"/>
      <point x="326" y="131" type="curve" smooth="yes"/>
      <point x="428" y="634" type="line"/>
      <point x="338" y="634" type="line"/>
      <point x="236" y="131" type="line" smooth="yes"/>
      <point x="217" y="40"/>
      <point x="203" y="30"/>
      <point x="119" y="30" type="curve"/>
      <point x="113" y="0" type="line"/>
    </contour>
    <contour>
      <point x="112" y="484" type="line"/>
      <point x="156" y="593"/>
      <point x="167" y="618"/>
      <point x="278" y="618" type="curve" smooth="yes"/>
      <point x="482" y="618" type="line" smooth="yes"/>
      <point x="593" y="618"/>
      <point x="597" y="593"/>
      <point x="597" y="484" type="curve"/>
      <point x="628" y="484" type="line"/>
      <point x="658" y="657" type="line"/>
      <point x="121" y="657" type="line"/>
      <point x="80" y="484" type="line"/>
    </contour>
  </outline>
</glyph>
<glyph name="U" format="2">
  <advance width="731"/>
  <unicode hex="0055"/>
  <anchor x="308" y="0" name="bottom"/>
  <anchor x="308" y="0" name="cedilla"/>
  <anchor x="350" y="0" name="ogonek"/>
  <anchor x="467" y="657" name="top"/>
  <outline>
    <contour>
      <point x="312" y="-12" type="curve" smooth="yes"/>
      <point x="501" y="-12"/>
      <point x="589" y="79"/>
      <point x="627" y="261" type="curve" smooth="yes"/>
      <point x="676" y="502" type="line"/>
      <point x="698" y="605"/>
      <point x="710" y="627"/>
      <point x="797" y="627" type="curve"/>
      <point x="802" y="657" type="line"/>
      <point x="557" y="657" type="line"/>
      <point x="552" y="627" type="line"/>
      <point x="610" y="627"/>
      <point x="630" y="616"/>
      <point x="630" y="575" type="curve" smooth="yes"/>
      <point x="630" y="557"/>
      <point x="626" y="532"/>
      <point x="619" y="499" type="curve" smooth="yes"/>
      <point x="568" y="247" type="line" smooth="yes"/>
      <point x="540" y="109"/>
      <point x="480" y="51"/>
      <point x="350" y="51" type="curve" smooth="yes"/>
      <point x="238" y="51"/>
      <point x="199" y="91"/>
      <point x="199" y="176" type="curve" smooth="yes"/>
      <point x="199" y="195"/>
      <point x="202" y="224"/>
      <point x="208" y="251" type="curve" smooth="yes"/>
      <point x="267" y="534" type="line" smooth="yes"/>
      <point x="282" y="609"/>
      <point x="299" y="627"/>
      <point x="383" y="627" type="curve"/>
      <point x="389" y="657" type="line"/>
      <point x="102" y="657" type="line"/>
      <point x="96" y="627" type="line"/>
      <point x="158" y="627"/>
      <point x="181" y="616"/>
      <point x="181" y="577" type="curve" smooth="yes"/>
      <point x="181" y="567"/>
      <point x="179" y="554"/>
      <point x="176" y="539" type="curve" smooth="yes"/>
      <point x="116" y="250" type="line" smooth="yes"/>
      <point x="109" y="217"/>
      <point x="105" y="187"/>
      <point x="105" y="160" type="curve" smooth="yes"/>
      <point x="105" y="41"/>
      <point x="167" y="-12"/>
    </contour>
  </outline>
</glyph>
<glyph name="V" format="2">
  <advance width="640"/>
  <unicode hex="0056"/>
  <anchor x="219" y="0" name="bottom"/>
  <anchor x="227" y="0" name="cedilla"/>
  <anchor x="219" y="0" name="ogonek"/>
  <anchor x="418" y="657" name="top"/>
  <outline>
    <contour>
      <point x="235" y="-5" type="line"/>
      <point x="602" y="520" type="line"/>
      <point x="663" y="611"/>
      <point x="683" y="627"/>
      <point x="737" y="627" type="curve"/>
      <point x="739" y="657" type="line"/>
      <point x="523" y="657" type="line"/>
      <point x="521" y="627" type="line"/>
      <point x="566" y="627"/>
      <point x="581" y="621"/>
      <point x="581" y="601" type="curve" smooth="yes"/>
      <point x="581" y="585"/>
      <point x="568" y="562"/>
      <point x="550" y="535" type="curve" smooth="yes"/>
      <point x="335" y="213" type="line"/>
      <point x="277" y="125" type="line"/>
      <point x="272" y="125" type="line"/>
      <point x="265" y="242" type="line"/>
      <point x="235" y="527" type="line"/>
      <point x="235" y="534"/>
      <point x="232" y="556"/>
      <point x="232" y="563" type="curve"/>
      <point x="229" y="608"/>
      <point x="261" y="627"/>
      <point x="312" y="627" type="curve"/>
      <point x="315" y="657" type="line"/>
      <point x="70" y="657" type="line"/>
      <point x="68" y="627" type="line"/>
      <point x="121" y="627"/>
      <point x="138" y="603"/>
      <point x="146" y="536" type="curve"/>
      <point x="202" y="-5" type="line"/>
    </contour>
  </outline>
</glyph>
<glyph name="W" format="2">
  <advance width="913"/>
  <unicode hex="0057"/>
  <anchor x="375" y="0" name="bottom"/>
  <anchor x="376" y="0" name="cedilla"/>
  <anchor x="375" y="0" name="ogonek"/>
  <anchor x="529" y="657" name="top"/>
  <outline>
    <contour>
      <point x="549" y="-6" type="line"/>
      <point x="901" y="558" type="line"/>
      <point x="935" y="609"/>
      <point x="959" y="626"/>
      <point x="1007" y="627" type="curve"/>
      <point x="1010" y="657" type="line"/>
      <point x="806" y="657" type="line"/>
      <point x="800" y="627" type="line"/>
      <point x="844" y="627"/>
      <point x="855" y="619"/>
      <point x="855" y="599" type="curve" smooth="yes"/>
      <point x="855" y="570"/>
      <point x="832" y="531"/>
      <point x="811" y="498" type="curve" smooth="yes"/>
      <point x="598" y="163" type="line"/>
      <point x="593" y="163" type="line"/>
      <point x="589" y="265" type="line"/>
      <point x="565" y="535" type="line"/>
      <point x="565" y="542"/>
      <point x="564" y="548"/>
      <point x="564" y="554" type="curve" smooth="yes"/>
      <point x="564" y="613"/>
      <point x="586" y="627"/>
      <point x="653" y="627" type="curve"/>
      <point x="658" y="657" type="line"/>
      <point x="403" y="657" type="line"/>
      <point x="398" y="627" type="line"/>
      <point x="455" y="627"/>
      <point x="465" y="619"/>
      <point x="473" y="533" type="curve" smooth="yes"/>
      <point x="481" y="438" type="line"/>
      <point x="486" y="399" type="line"/>
      <point x="520" y="-6" type="line"/>
    </contour>
    <contour>
      <point x="226" y="-6" type="line"/>
      <point x="483" y="383" type="line"/>
      <point x="503" y="383" type="line"/>
      <point x="489" y="467" type="line"/>
      <point x="278" y="161" type="line"/>
      <point x="272" y="161" type="line"/>
      <point x="267" y="257" type="line"/>
      <point x="241" y="539" type="line"/>
      <point x="238" y="561"/>
      <point x="239" y="580"/>
      <point x="239" y="590" type="curve"/>
      <point x="241" y="616"/>
      <point x="261" y="627"/>
      <point x="318" y="627" type="curve"/>
      <point x="323" y="657" type="line"/>
      <point x="73" y="657" type="line"/>
      <point x="68" y="627" type="line"/>
      <point x="125" y="627"/>
      <point x="143" y="602"/>
      <point x="149" y="537" type="curve" smooth="yes"/>
      <point x="198" y="-6" type="line"/>
    </contour>
  </outline>
</glyph>
<glyph name="Y" format="2">
  <advance width="607"/>
  <unicode hex="0059"/>
  <anchor x="258" y="0" name="bottom"/>
  <anchor x="260" y="0" name="cedilla"/>
  <anchor x="260" y="0" name="ogonek"/>
  <anchor x="402" y="657" name="top"/>
  <outline>
    <contour>
      <point x="557" y="528" type="line" smooth="yes"/>
      <point x="623" y="609"/>
      <point x="649" y="622"/>
      <point x="709" y="627" type="curve"/>
      <point x="715" y="657" type="line"/>
      <point x="496" y="657" type="line"/>
      <point x="490" y="627" type="line"/>
      <point x="538" y="627"/>
      <point x="549" y="619"/>
      <point x="549" y="604" type="curve" smooth="yes"/>
      <point x="549" y="591"/>
      <point x="539" y="574"/>
      <point x="528" y="561" type="curve" smooth="yes"/>
      <point x="333" y="319" type="line"/>
      <point x="351" y="271" type="line"/>
    </contour>
    <contour>
      <point x="405" y="0" type="line"/>
      <point x="410" y="30" type="line"/>
      <point x="347" y="30"/>
      <point x="321" y="38"/>
      <point x="321" y="80" type="curve" smooth="yes"/>
      <point x="321" y="94"/>
      <point x="324" y="110"/>
      <point x="328" y="131" type="curve" smooth="yes"/>
      <point x="369" y="329" type="line"/>
      <point x="279" y="329" type="line"/>
      <point x="238" y="131" type="line" smooth="yes"/>
      <point x="220" y="42"/>
      <point x="205" y="30"/>
      <point x="116" y="30" type="curve"/>
      <point x="111" y="0" type="line"/>
    </contour>
    <contour>
      <point x="341" y="314" type="line"/>
      <point x="309" y="412" type="line"/>
      <point x="251" y="558" type="line" smooth="yes"/>
      <point x="245" y="573"/>
      <point x="241" y="587"/>
      <point x="241" y="600" type="curve" smooth="yes"/>
      <point x="241" y="614"/>
      <point x="259" y="627"/>
      <point x="315" y="627" type="curve"/>
      <point x="321" y="657" type="line"/>
      <point x="63" y="657" type="line"/>
      <point x="57" y="627" type="line"/>
      <point x="107" y="627"/>
      <point x="131" y="616"/>
      <point x="182" y="491" type="curve" smooth="yes"/>
      <point x="274" y="261" type="line"/>
    </contour>
  </outline>
</glyph>
<glyph name="backslash" format="2">
  <advance width="415"/>
  <unicode hex="005C"/>
  <outline>
    <contour>
      <point x="389" y="-89" type="line"/>
      <point x="129" y="709" type="line"/>
      <point x="74" y="709" type="line"/>
      <point x="334" y="-89" type="line"/>
    </contour>
  </outline>
</glyph>
<glyph name="bracketright" format="2">
  <advance width="347"/>
  <unicode hex="005D"/>
  <outline>
    <contour>
      <point x="165" y="-186" type="line"/>
      <point x="361" y="732" type="line"/>
      <point x="152" y="732" type="line"/>
      <point x="145" y="702" type="line"/>
      <point x="275" y="702" type="line"/>
      <point x="93" y="-156" type="line"/>
      <point x="-37" y="-156" type="line"/>
      <point x="-44" y="-186" type="line"/>
    </contour>
  </outline>
</glyph>
<glyph name="asciicircum" format="2">
  <advance width="480"/>
  <unicode hex="005E"/>
  <outline>
    <contour>
      <point x="114" y="309" type="line"/>
      <point x="261" y="612" type="line"/>
      <point x="264" y="612" type="line"/>
      <point x="412" y="309" type="line"/>
      <point x="472" y="309" type="line"/>
      <point x="291" y="673" type="line"/>
      <point x="235" y="673" type="line"/>
      <point x="55" y="309" type="line"/>
    </contour>
  </outline>
</glyph>
<glyph name="c" format="2">
  <advance width="408"/>
  <unicode hex="0063"/>
  <anchor x="166" y="0" name="bottom"/>
  <anchor x="159" y="0" name="cedilla"/>
  <anchor x="191" y="0" name="ogonek"/>
  <anchor x="283" y="467" name="top"/>
  <outline>
    <contour>
      <point x="183" y="-13" type="curve" smooth="yes"/>
      <point x="273" y="-13"/>
      <point x="336" y="46"/>
      <point x="376" y="108" type="curve"/>
      <point x="359" y="123" type="line"/>
      <point x="329" y="85"/>
      <point x="290" y="57"/>
      <point x="225" y="57" type="curve" smooth="yes"/>
      <point x="150" y="57"/>
      <point x="117" y="95"/>
      <point x="117" y="183" type="curve" smooth="yes"/>
      <point x="117" y="300"/>
      <point x="176" y="446"/>
      <point x="282" y="446" type="curve" smooth="yes"/>
      <point x="313" y="446"/>
      <point x="330" y="434"/>
      <point x="330" y="419" type="curve" smooth="yes"/>
      <point x="330" y="403"/>
      <point x="311" y="375"/>
      <point x="311" y="349" type="curve" smooth="yes"/>
      <point x="311" y="327"/>
      <point x="325" y="314"/>
      <point x="349" y="314" type="curve" smooth="yes"/>
      <point x="386" y="314"/>
      <point x="405" y="346"/>
      <point x="405" y="386" type="curve" smooth="yes"/>
      <point x="405" y="451"/>
      <point x="354" y="479"/>
      <point x="292" y="479" type="curve" smooth="yes"/>
      <point x="152" y="479"/>
      <point x="34" y="337"/>
      <point x="34" y="167" type="curve" smooth="yes"/>
      <point x="34" y="58"/>
      <point x="85" y="-13"/>
    </contour>
  </outline>
</glyph>
<glyph name="g" format="2">
  <advance width="451"/>
  <unicode hex="0067"/>
  <anchor x="166" y="-220" name="bottom"/>
  <anchor x="167" y="-220" name="cedilla"/>
  <anchor x="167" y="-220" name="ogonek"/>
  <anchor x="234" y="467" name="top"/>
  <outline>
    <contour>
      <point x="177" y="-225" type="curve" smooth="yes"/>
      <point x="322" y="-225"/>
      <point x="397" y="-161"/>
      <point x="397" y="-74" type="curve" smooth="yes"/>
      <point x="397" y="74"/>
      <point x="136" y="43"/>
      <point x="136" y="103" type="curve" smooth="yes"/>
      <point x="136" y="127"/>
      <point x="156" y="154"/>
      <point x="200" y="156" type="curve" smooth="yes"/>
      <point x="330" y="161"/>
      <point x="401" y="233"/>
      <point x="401" y="319" type="curve" smooth="yes"/>
      <point x="401" y="365"/>
      <point x="381" y="404"/>
      <point x="365" y="423" type="curve"/>
      <point x="365" y="452" type="line"/>
      <point x="327" y="465"/>
      <point x="306" y="479"/>
      <point x="237" y="479" type="curve" smooth="yes"/>
      <point x="128" y="479"/>
      <point x="47" y="407"/>
      <point x="47" y="307" type="curve" smooth="yes"/>
      <point x="47" y="225"/>
      <point x="93" y="190"/>
      <point x="134" y="172" type="curve"/>
      <point x="134" y="166" type="line"/>
      <point x="94" y="150"/>
      <point x="57" y="121"/>
      <point x="57" y="77" type="curve" smooth="yes"/>
      <point x="57" y="48"/>
      <point x="74" y="29"/>
      <point x="92" y="18" type="curve"/>
      <point x="92" y="8" type="line"/>
      <point x="191" y="-12"/>
      <point x="325" y="-39"/>
      <point x="325" y="-112" type="curve" smooth="yes"/>
      <point x="325" y="-160"/>
      <point x="281" y="-190"/>
      <point x="184" y="-190" type="curve" smooth="yes"/>
      <point x="92" y="-190"/>
      <point x="50" y="-147"/>
      <point x="50" y="-93" type="curve" smooth="yes"/>
      <point x="50" y="-37"/>
      <point x="87" y="-14"/>
      <point x="120" y="6" type="curve"/>
      <point x="98" y="16" type="line"/>
      <point x="36" y="-1"/>
      <point x="-28" y="-38"/>
      <point x="-28" y="-100" type="curve" smooth="yes"/>
      <point x="-28" y="-175"/>
      <point x="28" y="-225"/>
    </contour>
    <contour>
      <point x="211" y="187" type="curve" smooth="yes"/>
      <point x="155" y="187"/>
      <point x="136" y="234"/>
      <point x="136" y="315" type="curve" smooth="yes"/>
      <point x="136" y="397"/>
      <point x="177" y="449"/>
      <point x="235" y="449" type="curve" smooth="yes"/>
      <point x="287" y="449"/>
      <point x="312" y="398"/>
      <point x="312" y="334" type="curve" smooth="yes"/>
      <point x="312" y="250"/>
      <point x="280" y="187"/>
    </contour>
    <contour>
      <point x="458" y="467" type="line"/>
      <point x="310" y="467" type="line"/>
      <point x="351" y="428" type="line"/>
      <point x="452" y="416" type="line"/>
    </contour>
  </outline>
</glyph>
<glyph name="h" format="2">
  <advance width="549"/>
  <unicode hex="0068"/>
  <anchor x="212" y="0" name="bottom"/>
  <anchor x="77" y="0" name="cedilla"/>
  <anchor x="354" y="0" name="ogonek"/>
  <anchor x="336" y="693" name="top"/>
  <outline>
    <contour>
      <point x="384" y="-10" type="curve" smooth="yes"/>
      <point x="456" y="-10"/>
      <point x="496" y="60"/>
      <point x="522" y="97" type="curve"/>
      <point x="501" y="112" type="line"/>
      <point x="486" y="93"/>
      <point x="462" y="60"/>
      <point x="426" y="60" type="curve" smooth="yes"/>
      <point x="413" y="60"/>
      <point x="407" y="68"/>
      <point x="407" y="79" type="curve" smooth="yes"/>
      <point x="407" y="91"/>
      <point x="411" y="103"/>
      <point x="411" y="103" type="curve"/>
      <point x="467" y="334" type="line" smooth="yes"/>
      <point x="470" y="348"/>
      <point x="476" y="382"/>
      <point x="476" y="408" type="curve" smooth="yes"/>
      <point x="476" y="444"/>
      <point x="461" y="479"/>
      <point x="411" y="479" type="curve" smooth="yes"/>
      <point x="291" y="479"/>
      <point x="198" y="320"/>
      <point x="160" y="249" type="curve"/>
      <point x="143" y="149" type="line"/>
      <point x="167" y="210"/>
      <point x="286" y="407"/>
      <point x="361" y="407" type="curve" smooth="yes"/>
      <point x="383" y="407"/>
      <point x="390" y="390"/>
      <point x="390" y="367" type="curve" smooth="yes"/>
      <point x="390" y="347"/>
      <point x="383" y="319"/>
      <point x="383" y="319" type="curve"/>
      <point x="324" y="88" type="line"/>
      <point x="322" y="83"/>
      <point x="319" y="65"/>
      <point x="319" y="49" type="curve" smooth="yes"/>
      <point x="319" y="19"/>
      <point x="334" y="-10"/>
    </contour>
    <contour>
      <point x="113" y="0" type="line"/>
      <point x="169" y="259" type="line"/>
      <point x="157" y="259" type="line"/>
      <point x="182" y="377" type="line"/>
      <point x="253" y="705" type="line"/>
      <point x="230" y="705" type="line"/>
      <point x="93" y="694" type="line"/>
      <point x="93" y="668" type="line"/>
      <point x="93" y="668"/>
      <point x="114" y="670"/>
      <point x="127" y="670" type="curve" smooth="yes"/>
      <point x="147" y="670"/>
      <point x="159" y="659"/>
      <point x="159" y="644" type="curve" smooth="yes"/>
      <point x="159" y="629"/>
      <point x="156" y="610"/>
      <point x="156" y="610" type="curve"/>
      <point x="31" y="0" type="line"/>
    </contour>
  </outline>
</glyph>
<glyph name="i" format="2">
  <advance width="279"/>
  <unicode hex="0069"/>
  <anchor x="112" y="0" name="bottom"/>
  <anchor x="112" y="0" name="cedilla"/>
  <anchor x="101" y="0" name="ogonek"/>
  <anchor x="191" y="665" name="top.mkmk"/>
  <outline>
    <contour>
      <point x="115" y="-9" type="curve" smooth="yes"/>
      <point x="181" y="-9"/>
      <point x="220" y="47"/>
      <point x="255" y="96" type="curve"/>
      <point x="235" y="111" type="line"/>
      <point x="219" y="93"/>
      <point x="191" y="59"/>
      <point x="157" y="59" type="curve" smooth="yes"/>
      <point x="145" y="59"/>
      <point x="139" y="65"/>
      <point x="139" y="78" type="curve" smooth="yes"/>
      <point x="139" y="92"/>
      <point x="144" y="120"/>
      <point x="144" y="120" type="curve"/>
      <point x="219" y="476" type="line"/>
      <point x="197" y="476" type="line"/>
      <point x="57" y="465" type="line"/>
      <point x="57" y="438" type="line"/>
      <point x="57" y="438"/>
      <point x="74" y="440"/>
      <point x="91" y="440" type="curve" smooth="yes"/>
      <point x="118" y="440"/>
      <point x="123" y="424"/>
      <point x="123" y="411" type="curve" smooth="yes"/>
      <point x="123" y="394"/>
      <point x="120" y="380"/>
      <point x="120" y="380" type="curve"/>
      <point x="69" y="142" type="line" smooth="yes"/>
      <point x="56" y="83"/>
      <point x="52" y="61"/>
      <point x="52" y="44" type="curve" smooth="yes"/>
      <point x="52" y="9"/>
      <point x="75" y="-9"/>
    </contour>
    <contour>
      <point x="188" y="556" type="curve" smooth="yes"/>
      <point x="218" y="556"/>
      <point x="243" y="576"/>
      <point x="243" y="610" type="curve" smooth="yes"/>
      <point x="243" y="643"/>
      <point x="224" y="665"/>
      <point x="191" y="665" type="curve" smooth="yes"/>
      <point x="158" y="665"/>
      <point x="136" y="644"/>
      <point x="136" y="610" type="curve" smooth="yes"/>
      <point x="136" y="575"/>
      <point x="158" y="556"/>
    </contour>
  </outline>
</glyph>
<glyph name="j" format="2">
  <advance width="272"/>
  <unicode hex="006A"/>
  <anchor x="21" y="-220" name="bottom"/>
  <anchor x="21" y="-220" name="cedilla"/>
  <anchor x="-50" y="-220" name="ogonek"/>
  <anchor x="194" y="665" name="top.mkmk"/>
  <outline>
    <contour>
      <point x="-45" y="-225" type="curve" smooth="yes"/>
      <point x="92" y="-225"/>
      <point x="143" y="-8"/>
      <point x="160" y="88" type="curve" smooth="yes"/>
      <point x="230" y="476" type="line"/>
      <point x="208" y="476" type="line"/>
      <point x="68" y="465" type="line"/>
      <point x="68" y="438" type="line"/>
      <point x="68" y="438"/>
      <point x="85" y="440"/>
      <point x="102" y="440" type="curve" smooth="yes"/>
      <point x="129" y="440"/>
      <point x="134" y="424"/>
      <point x="134" y="411" type="curve" smooth="yes"/>
      <point x="134" y="394"/>
      <point x="131" y="380"/>
      <point x="131" y="380" type="curve"/>
      <point x="70" y="49" type="line" smooth="yes"/>
      <point x="59" y="-11"/>
      <point x="23" y="-192"/>
      <point x="-28" y="-192" type="curve" smooth="yes"/>
      <point x="-67" y="-192"/>
      <point x="-39" y="-104"/>
      <point x="-95" y="-104" type="curve" smooth="yes"/>
      <point x="-123" y="-104"/>
      <point x="-135" y="-129"/>
      <point x="-135" y="-150" type="curve" smooth="yes"/>
      <point x="-135" y="-188"/>
      <point x="-109" y="-225"/>
    </contour>
    <contour>
      <point x="202" y="557" type="curve" smooth="yes"/>
      <point x="235" y="557"/>
      <point x="256" y="576"/>
      <point x="256" y="610" type="curve" smooth="yes"/>
      <point x="256" y="642"/>
      <point x="235" y="665"/>
      <point x="202" y="665" type="curve" smooth="yes"/>
      <point x="169" y="665"/>
      <point x="148" y="644"/>
      <point x="148" y="610" type="curve" smooth="yes"/>
      <point x="148" y="575"/>
      <point x="169" y="557"/>
    </contour>
  </outline>
</glyph>
<glyph name="k" format="2">
  <advance width="499"/>
  <unicode hex="006B"/>
  <anchor x="196" y="0" name="bottom"/>
  <anchor x="197" y="0" name="cedilla"/>
  <anchor x="330" y="0" name="ogonek"/>
  <anchor x="335" y="693" name="top"/>
  <outline>
    <contour>
      <point x="113" y="0" type="line"/>
      <point x="151" y="197" type="line"/>
      <point x="154" y="225" type="line"/>
      <point x="251" y="705" type="line"/>
      <point x="229" y="705" type="line"/>
      <point x="91" y="694" type="line"/>
      <point x="91" y="668" type="line"/>
      <point x="91" y="668"/>
      <point x="108" y="670"/>
      <point x="126" y="670" type="curve" smooth="yes"/>
      <point x="152" y="670"/>
      <point x="157" y="653"/>
      <point x="157" y="640" type="curve" smooth="yes"/>
      <point x="157" y="624"/>
      <point x="154" y="608"/>
      <point x="154" y="608" type="curve"/>
      <point x="31" y="0" type="line"/>
    </contour>
    <contour>
      <point x="347" y="-10" type="curve" smooth="yes"/>
      <point x="426" y="-10"/>
      <point x="473" y="77"/>
      <point x="487" y="102" type="curve"/>
      <point x="466" y="116" type="line"/>
      <point x="443" y="84"/>
      <point x="422" y="58"/>
      <point x="384" y="58" type="curve" smooth="yes"/>
      <point x="358" y="58"/>
      <point x="347" y="79"/>
      <point x="333" y="112" type="curve" smooth="yes"/>
      <point x="254" y="299" type="line"/>
      <point x="195" y="250" type="line"/>
      <point x="265" y="68" type="line" smooth="yes"/>
      <point x="276" y="40"/>
      <point x="296" y="-10"/>
    </contour>
    <contour>
      <point x="203" y="238" type="line"/>
      <point x="251" y="276" type="line"/>
      <point x="370" y="382" type="line" smooth="yes"/>
      <point x="402" y="411"/>
      <point x="434" y="440"/>
      <point x="502" y="442" type="curve"/>
      <point x="505" y="467" type="line"/>
      <point x="290" y="467" type="line"/>
      <point x="287" y="442" type="line"/>
      <point x="314" y="442"/>
      <point x="331" y="437"/>
      <point x="331" y="419" type="curve" smooth="yes"/>
      <point x="331" y="402"/>
      <point x="323" y="392"/>
      <point x="308" y="378" type="curve" smooth="yes"/>
      <point x="162" y="238" type="line"/>
      <point x="143" y="238" type="line"/>
      <point x="138" y="175" type="line"/>
    </contour>
  </outline>
</glyph>
<glyph name="l" format="2">
  <advance width="273"/>
  <unicode hex="006C"/>
  <anchor x="106" y="0" name="bottom"/>
  <anchor x="101" y="0" name="cedilla"/>
  <anchor x="100" y="0" name="ogonek"/>
  <anchor x="195" y="693" name="top"/>
  <outline>
    <contour>
      <point x="109" y="-9" type="curve" smooth="yes"/>
      <point x="175" y="-9"/>
      <point x="214" y="47"/>
      <point x="249" y="96" type="curve"/>
      <point x="229" y="111" type="line"/>
      <point x="213" y="93"/>
      <point x="187" y="59"/>
      <point x="153" y="59" type="curve" smooth="yes"/>
      <point x="141" y="59"/>
      <point x="134" y="65"/>
      <point x="134" y="78" type="curve" smooth="yes"/>
      <point x="134" y="85"/>
      <point x="136" y="104"/>
      <point x="139" y="120" type="curve" smooth="yes"/>
      <point x="255" y="705" type="line"/>
      <point x="233" y="705" type="line"/>
      <point x="95" y="694" type="line"/>
      <point x="95" y="668" type="line"/>
      <point x="95" y="668"/>
      <point x="111" y="670"/>
      <point x="129" y="670" type="curve" smooth="yes"/>
      <point x="156" y="670"/>
      <point x="160" y="653"/>
      <point x="160" y="640" type="curve" smooth="yes"/>
      <point x="160" y="624"/>
      <point x="157" y="608"/>
      <point x="157" y="608" type="curve"/>
      <point x="60" y="144" type="line" smooth="yes"/>
      <point x="55" y="118"/>
      <point x="46" y="70"/>
      <point x="46" y="44" type="curve" smooth="yes"/>
      <point x="46" y="9"/>
      <point x="69" y="-9"/>
    </contour>
  </outline>
</glyph>
<glyph name="m" format="2">
  <advance width="825"/>
  <unicode hex="006D"/>
  <anchor x="352" y="0" name="bottom"/>
  <anchor x="351" y="0" name="cedilla"/>
  <anchor x="352" y="0" name="ogonek"/>
  <anchor x="451" y="467" name="top"/>
  <outline>
    <contour>
      <point x="661" y="-10" type="curve" smooth="yes"/>
      <point x="732" y="-10"/>
      <point x="772" y="60"/>
      <point x="798" y="97" type="curve"/>
      <point x="778" y="112" type="line"/>
      <point x="762" y="93"/>
      <point x="738" y="60"/>
      <point x="703" y="60" type="curve" smooth="yes"/>
      <point x="690" y="60"/>
      <point x="684" y="68"/>
      <point x="684" y="79" type="curve" smooth="yes"/>
      <point x="684" y="91"/>
      <point x="687" y="103"/>
      <point x="687" y="103" type="curve"/>
      <point x="742" y="334" type="line" smooth="yes"/>
      <point x="745" y="348"/>
      <point x="752" y="382"/>
      <point x="752" y="408" type="curve" smooth="yes"/>
      <point x="752" y="444"/>
      <point x="738" y="479"/>
      <point x="690" y="479" type="curve" smooth="yes"/>
      <point x="583" y="479"/>
      <point x="500" y="332"/>
      <point x="460" y="259" type="curve"/>
      <point x="425" y="126" type="line"/>
      <point x="454" y="211"/>
      <point x="574" y="407"/>
      <point x="638" y="407" type="curve" smooth="yes"/>
      <point x="660" y="407"/>
      <point x="667" y="390"/>
      <point x="667" y="367" type="curve" smooth="yes"/>
      <point x="667" y="346"/>
      <point x="658" y="308"/>
      <point x="651" y="282" type="curve" smooth="yes"/>
      <point x="600" y="88" type="line" smooth="yes"/>
      <point x="599" y="83"/>
      <point x="595" y="65"/>
      <point x="595" y="49" type="curve" smooth="yes"/>
      <point x="595" y="19"/>
      <point x="610" y="-10"/>
    </contour>
    <contour>
      <point x="131" y="0" type="line"/>
      <point x="190" y="259" type="line"/>
      <point x="179" y="259" type="line"/>
      <point x="228" y="476" type="line"/>
      <point x="205" y="476" type="line"/>
      <point x="68" y="465" type="line"/>
      <point x="68" y="438" type="line"/>
      <point x="68" y="438"/>
      <point x="87" y="440"/>
      <point x="100" y="440" type="curve" smooth="yes"/>
      <point x="124" y="440"/>
      <point x="132" y="430"/>
      <point x="132" y="413" type="curve" smooth="yes"/>
      <point x="132" y="398"/>
      <point x="129" y="380"/>
      <point x="129" y="380" type="curve"/>
      <point x="49" y="0" type="line"/>
    </contour>
    <contour>
      <point x="398" y="0" type="line"/>
      <point x="459" y="270" type="line"/>
      <point x="458" y="270" type="line"/>
      <point x="475" y="334" type="line" smooth="yes"/>
      <point x="476" y="339"/>
      <point x="484" y="379"/>
      <point x="484" y="408" type="curve" smooth="yes"/>
      <point x="484" y="444"/>
      <point x="471" y="479"/>
      <point x="422" y="479" type="curve" smooth="yes"/>
      <point x="306" y="479"/>
      <point x="220" y="324"/>
      <point x="181" y="248" type="curve"/>
      <point x="156" y="122" type="line"/>
      <point x="202" y="235"/>
      <point x="304" y="407"/>
      <point x="371" y="407" type="curve" smooth="yes"/>
      <point x="393" y="407"/>
      <point x="400" y="390"/>
      <point x="400" y="367" type="curve" smooth="yes"/>
      <point x="400" y="351"/>
      <point x="395" y="326"/>
      <point x="395" y="326" type="curve"/>
      <point x="371" y="214"/>
      <point x="344" y="107"/>
      <point x="315" y="0" type="curve"/>
    </contour>
  </outline>
</glyph>
<glyph name="n" format="2">
  <advance width="564"/>
  <unicode hex="006E"/>
  <anchor x="229" y="0" name="bottom"/>
  <anchor x="228" y="0" name="cedilla"/>
  <anchor x="384" y="0" name="ogonek"/>
  <anchor x="323" y="467" name="top"/>
  <outline>
    <contour>
      <point x="400" y="-10" type="curve" smooth="yes"/>
      <point x="471" y="-10"/>
      <point x="511" y="60"/>
      <point x="537" y="97" type="curve"/>
      <point x="516" y="112" type="line"/>
      <point x="501" y="93"/>
      <point x="477" y="60"/>
      <point x="442" y="60" type="curve" smooth="yes"/>
      <point x="429" y="60"/>
      <point x="423" y="68"/>
      <point x="423" y="79" type="curve" smooth="yes"/>
      <point x="423" y="91"/>
      <point x="426" y="103"/>
      <point x="426" y="103" type="curve"/>
      <point x="482" y="334" type="line" smooth="yes"/>
      <point x="485" y="348"/>
      <point x="491" y="375"/>
      <point x="491" y="408" type="curve" smooth="yes"/>
      <point x="491" y="444"/>
      <point x="476" y="479"/>
      <point x="427" y="479" type="curve" smooth="yes"/>
      <point x="307" y="479"/>
      <point x="220" y="320"/>
      <point x="182" y="249" type="curve"/>
      <point x="163" y="149" type="line"/>
      <point x="188" y="209"/>
      <point x="303" y="407"/>
      <point x="377" y="407" type="curve" smooth="yes"/>
      <point x="399" y="407"/>
      <point x="406" y="390"/>
      <point x="406" y="367" type="curve" smooth="yes"/>
      <point x="406" y="347"/>
      <point x="399" y="319"/>
      <point x="399" y="319" type="curve"/>
      <point x="340" y="88" type="line"/>
      <point x="338" y="83"/>
      <point x="334" y="65"/>
      <point x="334" y="49" type="curve" smooth="yes"/>
      <point x="334" y="19"/>
      <point x="350" y="-10"/>
    </contour>
    <contour>
      <point x="131" y="0" type="line"/>
      <point x="190" y="259" type="line"/>
      <point x="179" y="259" type="line"/>
      <point x="229" y="476" type="line"/>
      <point x="207" y="476" type="line"/>
      <point x="68" y="465" type="line"/>
      <point x="68" y="438" type="line"/>
      <point x="68" y="438"/>
      <point x="88" y="440"/>
      <point x="101" y="440" type="curve" smooth="yes"/>
      <point x="124" y="440"/>
      <point x="134" y="430"/>
      <point x="134" y="413" type="curve" smooth="yes"/>
      <point x="134" y="398"/>
      <point x="130" y="380"/>
      <point x="130" y="380" type="curve"/>
      <point x="49" y="0" type="line"/>
    </contour>
  </outline>
</glyph>
<glyph name="p" format="2">
  <advance width="521"/>
  <unicode hex="0070"/>
  <anchor x="123" y="-220" name="bottom"/>
  <anchor x="123" y="-220" name="cedilla"/>
  <anchor x="123" y="-220" name="ogonek"/>
  <anchor x="308" y="467" name="top"/>
  <outline>
    <contour>
      <point x="225" y="-11" type="curve" smooth="yes"/>
      <point x="376" y="-11"/>
      <point x="488" y="119"/>
      <point x="488" y="307" type="curve" smooth="yes"/>
      <point x="488" y="423"/>
      <point x="428" y="479"/>
      <point x="353" y="479" type="curve" smooth="yes"/>
      <point x="298" y="479"/>
      <point x="254" y="445"/>
      <point x="202" y="381" type="curve"/>
      <point x="191" y="295" type="line"/>
      <point x="218" y="360"/>
      <point x="258" y="423"/>
      <point x="324" y="423" type="curve" smooth="yes"/>
      <point x="352" y="423"/>
      <point x="400" y="402"/>
      <point x="400" y="307" type="curve" smooth="yes"/>
      <point x="400" y="131"/>
      <point x="334" y="32"/>
      <point x="232" y="32" type="curve" smooth="yes"/>
      <point x="187" y="32"/>
      <point x="157" y="54"/>
      <point x="141" y="70" type="curve"/>
      <point x="128" y="20" type="line"/>
      <point x="144" y="7"/>
      <point x="190" y="-11"/>
    </contour>
    <contour>
      <point x="201" y="-220" type="line"/>
      <point x="208" y="-193" type="line"/>
      <point x="128" y="-193"/>
      <point x="107" y="-166"/>
      <point x="107" y="-143" type="curve" smooth="yes"/>
      <point x="107" y="-129"/>
      <point x="109" y="-111"/>
      <point x="111" y="-101" type="curve" smooth="yes"/>
      <point x="215" y="397" type="line"/>
      <point x="211" y="397" type="line"/>
      <point x="225" y="474" type="line"/>
      <point x="206" y="474" type="line"/>
      <point x="63" y="459" type="line"/>
      <point x="63" y="434" type="line"/>
      <point x="63" y="434"/>
      <point x="80" y="436"/>
      <point x="95" y="436" type="curve" smooth="yes"/>
      <point x="121" y="436"/>
      <point x="132" y="427"/>
      <point x="132" y="407" type="curve" smooth="yes"/>
      <point x="132" y="400"/>
      <point x="131" y="394"/>
      <point x="130" y="388" type="curve"/>
      <point x="5" y="-220" type="line"/>
    </contour>
  </outline>
</glyph>
<glyph name="q" format="2">
  <advance width="518"/>
  <unicode hex="0071"/>
  <anchor x="152" y="-220" name="bottom"/>
  <anchor x="152" y="-220" name="cedilla"/>
  <anchor x="152" y="-220" name="ogonek"/>
  <anchor x="275" y="467" name="top"/>
  <outline>
    <contour>
      <point x="427" y="-220" type="line"/>
      <point x="432" y="-192" type="line"/>
      <point x="373" y="-192"/>
      <point x="360" y="-175"/>
      <point x="360" y="-140" type="curve" smooth="yes"/>
      <point x="360" y="-123"/>
      <point x="363" y="-109"/>
      <point x="363" y="-109" type="curve"/>
      <point x="480" y="472" type="line"/>
      <point x="433" y="472" type="line"/>
      <point x="395" y="434" type="line"/>
      <point x="391" y="434" type="line"/>
      <point x="373" y="456"/>
      <point x="340" y="479"/>
      <point x="287" y="479" type="curve" smooth="yes"/>
      <point x="157" y="479"/>
      <point x="36" y="341"/>
      <point x="36" y="159" type="curve" smooth="yes"/>
      <point x="36" y="59"/>
      <point x="73" y="-12"/>
      <point x="156" y="-12" type="curve" smooth="yes"/>
      <point x="185" y="-12"/>
      <point x="245" y="-3"/>
      <point x="315" y="85" type="curve"/>
      <point x="322" y="85" type="line"/>
      <point x="253" y="-220" type="line"/>
    </contour>
    <contour>
      <point x="195" y="54" type="curve" smooth="yes"/>
      <point x="138" y="54"/>
      <point x="124" y="101"/>
      <point x="124" y="168" type="curve" smooth="yes"/>
      <point x="124" y="312"/>
      <point x="188" y="441"/>
      <point x="280" y="441" type="curve" smooth="yes"/>
      <point x="331" y="441"/>
      <point x="365" y="401"/>
      <point x="365" y="347" type="curve" smooth="yes"/>
      <point x="365" y="311"/>
      <point x="350" y="223"/>
      <point x="336" y="172" type="curve" smooth="yes"/>
      <point x="317" y="105"/>
      <point x="254" y="54"/>
    </contour>
  </outline>
</glyph>
<glyph name="r" format="2">
  <advance width="383"/>
  <unicode hex="0072"/>
  <anchor x="94" y="0" name="bottom"/>
  <anchor x="95" y="0" name="cedilla"/>
  <anchor x="83" y="0" name="ogonek"/>
  <anchor x="248" y="467" name="top"/>
  <outline>
    <contour>
      <point x="144" y="90" type="line"/>
      <point x="169" y="157"/>
      <point x="267" y="395"/>
      <point x="318" y="395" type="curve" smooth="yes"/>
      <point x="321" y="395"/>
      <point x="331" y="358"/>
      <point x="363" y="358" type="curve" smooth="yes"/>
      <point x="389" y="358"/>
      <point x="416" y="377"/>
      <point x="416" y="421" type="curve" smooth="yes"/>
      <point x="416" y="460"/>
      <point x="392" y="479"/>
      <point x="361" y="479" type="curve" smooth="yes"/>
      <point x="276" y="479"/>
      <point x="213" y="309"/>
      <point x="183" y="249" type="curve"/>
    </contour>
    <contour>
      <point x="134" y="0" type="line"/>
      <point x="190" y="259" type="line"/>
      <point x="178" y="259" type="line"/>
      <point x="229" y="476" type="line"/>
      <point x="207" y="476" type="line"/>
      <point x="68" y="465" type="line"/>
      <point x="68" y="438" type="line"/>
      <point x="68" y="438"/>
      <point x="88" y="440"/>
      <point x="99" y="440" type="curve" smooth="yes"/>
      <point x="127" y="440"/>
      <point x="132" y="429"/>
      <point x="132" y="410" type="curve" smooth="yes"/>
      <point x="132" y="392"/>
      <point x="127" y="366"/>
      <point x="123" y="348" type="curve" smooth="yes"/>
      <point x="49" y="0" type="line"/>
    </contour>
  </outline>
</glyph>
<glyph name="s" format="2">
  <advance width="367"/>
  <unicode hex="0073"/>
  <anchor x="132" y="0" name="bottom"/>
  <anchor x="132" y="0" name="cedilla"/>
  <anchor x="135" y="0" name="ogonek"/>
  <anchor x="221" y="467" name="top"/>
  <outline>
    <contour>
      <point x="164" y="-11" type="curve" smooth="yes"/>
      <point x="277" y="-11"/>
      <point x="316" y="55"/>
      <point x="316" y="113" type="curve" smooth="yes"/>
      <point x="316" y="177"/>
      <point x="280" y="214"/>
      <point x="237" y="260" type="curve" smooth="yes"/>
      <point x="193" y="307"/>
      <point x="142" y="343"/>
      <point x="142" y="385" type="curve" smooth="yes"/>
      <point x="142" y="414"/>
      <point x="163" y="449"/>
      <point x="215" y="449" type="curve" smooth="yes"/>
      <point x="274" y="449"/>
      <point x="307" y="400"/>
      <point x="310" y="323" type="curve"/>
      <point x="334" y="323" type="line"/>
      <point x="357" y="479" type="line"/>
      <point x="338" y="479" type="line"/>
      <point x="312" y="452" type="line"/>
      <point x="309" y="452" type="line"/>
      <point x="297" y="459"/>
      <point x="260" y="479"/>
      <point x="207" y="479" type="curve" smooth="yes"/>
      <point x="116" y="479"/>
      <point x="71" y="425"/>
      <point x="71" y="357" type="curve" smooth="yes"/>
      <point x="71" y="295"/>
      <point x="118" y="260"/>
      <point x="159" y="221" type="curve" smooth="yes"/>
      <point x="197" y="185"/>
      <point x="233" y="150"/>
      <point x="233" y="96" type="curve" smooth="yes"/>
      <point x="233" y="44"/>
      <point x="201" y="23"/>
      <point x="155" y="23" type="curve" smooth="yes"/>
      <point x="87" y="23"/>
      <point x="61" y="69"/>
      <point x="51" y="156" type="curve"/>
      <point x="26" y="156" type="line"/>
      <point x="0" y="-11" type="line"/>
      <point x="22" y="-11" type="line"/>
      <point x="46" y="16" type="line"/>
      <point x="49" y="16" type="line"/>
      <point x="63" y="10"/>
      <point x="101" y="-11"/>
    </contour>
  </outline>
</glyph>
<glyph name="u" format="2">
  <advance width="557"/>
  <unicode hex="0075"/>
  <anchor x="216" y="0" name="bottom"/>
  <anchor x="216" y="0" name="cedilla"/>
  <anchor x="391" y="0" name="ogonek"/>
  <anchor x="305" y="467" name="top"/>
  <outline>
    <contour>
      <point x="123" y="-10" type="curve" smooth="yes"/>
      <point x="240" y="-10"/>
      <point x="311" y="127"/>
      <point x="352" y="197" type="curve"/>
      <point x="361" y="197" type="line"/>
      <point x="344" y="132"/>
      <point x="329" y="92"/>
      <point x="329" y="45" type="curve" smooth="yes"/>
      <point x="329" y="1"/>
      <point x="362" y="-9"/>
      <point x="389" y="-9" type="curve" smooth="yes"/>
      <point x="450" y="-9"/>
      <point x="487" y="32"/>
      <point x="531" y="96" type="curve"/>
      <point x="510" y="111" type="line"/>
      <point x="510" y="111"/>
      <point x="473" y="59"/>
      <point x="437" y="59" type="curve" smooth="yes"/>
      <point x="421" y="59"/>
      <point x="416" y="68"/>
      <point x="416" y="76" type="curve" smooth="yes"/>
      <point x="416" y="91"/>
      <point x="422" y="119"/>
      <point x="422" y="119" type="curve"/>
      <point x="496" y="473" type="line"/>
      <point x="413" y="473" type="line"/>
      <point x="381" y="332" type="line" smooth="yes"/>
      <point x="360" y="241"/>
      <point x="249" y="62"/>
      <point x="175" y="62" type="curve" smooth="yes"/>
      <point x="153" y="62"/>
      <point x="145" y="79"/>
      <point x="145" y="103" type="curve" smooth="yes"/>
      <point x="145" y="121"/>
      <point x="152" y="151"/>
      <point x="152" y="151" type="curve"/>
      <point x="221" y="476" type="line"/>
      <point x="190" y="476" type="line"/>
      <point x="55" y="465" type="line"/>
      <point x="55" y="438" type="line"/>
      <point x="66" y="439"/>
      <point x="75" y="440"/>
      <point x="89" y="440" type="curve" smooth="yes"/>
      <point x="106" y="440"/>
      <point x="125" y="434"/>
      <point x="125" y="413" type="curve" smooth="yes"/>
      <point x="125" y="394"/>
      <point x="115" y="350"/>
      <point x="115" y="350" type="curve"/>
      <point x="67" y="135" type="line" smooth="yes"/>
      <point x="64" y="121"/>
      <point x="57" y="88"/>
      <point x="57" y="62" type="curve" smooth="yes"/>
      <point x="57" y="25"/>
      <point x="72" y="-10"/>
    </contour>
  </outline>
</glyph>
<glyph name="v" format="2">
  <advance width="429"/>
  <unicode hex="0076"/>
  <anchor x="138" y="0" name="bottom"/>
  <anchor x="137" y="0" name="cedilla"/>
  <anchor x="137" y="0" name="ogonek"/>
  <anchor x="252" y="467" name="top"/>
  <outline>
    <contour>
      <point x="160" y="-8" type="line"/>
      <point x="295" y="76"/>
      <point x="417" y="218"/>
      <point x="417" y="385" type="curve" smooth="yes"/>
      <point x="417" y="424"/>
      <point x="403" y="479"/>
      <point x="353" y="479" type="curve" smooth="yes"/>
      <point x="329" y="479"/>
      <point x="308" y="465"/>
      <point x="308" y="435" type="curve" smooth="yes"/>
      <point x="308" y="388"/>
      <point x="358" y="385"/>
      <point x="358" y="324" type="curve" smooth="yes"/>
      <point x="358" y="232"/>
      <point x="279" y="126"/>
      <point x="185" y="50" type="curve"/>
      <point x="183" y="50" type="line"/>
      <point x="185" y="85" type="line"/>
      <point x="181" y="210"/>
      <point x="171" y="349"/>
      <point x="156" y="477" type="curve"/>
      <point x="132" y="477" type="line"/>
      <point x="1" y="461" type="line"/>
      <point x="1" y="430" type="line"/>
      <point x="14" y="432"/>
      <point x="23" y="433"/>
      <point x="33" y="433" type="curve" smooth="yes"/>
      <point x="66" y="433"/>
      <point x="74" y="421"/>
      <point x="79" y="374" type="curve"/>
      <point x="96" y="244"/>
      <point x="105" y="143"/>
      <point x="111" y="-8" type="curve"/>
    </contour>
  </outline>
</glyph>
<glyph name="w" format="2">
  <advance width="694"/>
  <unicode hex="0077"/>
  <anchor x="289" y="0" name="bottom"/>
  <anchor x="289" y="0" name="cedilla"/>
  <anchor x="289" y="0" name="ogonek"/>
  <anchor x="398" y="467" name="top"/>
  <outline>
    <contour>
      <point x="193" y="-8" type="line"/>
      <point x="359" y="349" type="line"/>
      <point x="363" y="349" type="line"/>
      <point x="373" y="230"/>
      <point x="381" y="111"/>
      <point x="388" y="-8" type="curve"/>
      <point x="440" y="-8" type="line"/>
      <point x="569" y="72"/>
      <point x="682" y="224"/>
      <point x="682" y="384" type="curve" smooth="yes"/>
      <point x="682" y="423"/>
      <point x="668" y="478"/>
      <point x="618" y="478" type="curve" smooth="yes"/>
      <point x="594" y="478"/>
      <point x="573" y="464"/>
      <point x="573" y="434" type="curve" smooth="yes"/>
      <point x="573" y="387"/>
      <point x="623" y="384"/>
      <point x="623" y="323" type="curve" smooth="yes"/>
      <point x="623" y="236"/>
      <point x="563" y="125"/>
      <point x="465" y="50" type="curve"/>
      <point x="463" y="50" type="line"/>
      <point x="465" y="85" type="line"/>
      <point x="458" y="214"/>
      <point x="448" y="342"/>
      <point x="435" y="471" type="curve"/>
      <point x="378" y="471" type="line"/>
      <point x="186" y="50" type="line"/>
      <point x="184" y="50" type="line"/>
      <point x="186" y="85" type="line"/>
      <point x="182" y="210"/>
      <point x="172" y="349"/>
      <point x="157" y="477" type="curve"/>
      <point x="133" y="477" type="line"/>
      <point x="2" y="461" type="line"/>
      <point x="2" y="430" type="line"/>
      <point x="16" y="432"/>
      <point x="23" y="433"/>
      <point x="34" y="433" type="curve" smooth="yes"/>
      <point x="67" y="433"/>
      <point x="74" y="421"/>
      <point x="80" y="374" type="curve" smooth="yes"/>
      <point x="95" y="244"/>
      <point x="106" y="143"/>
      <point x="112" y="-8" type="curve"/>
    </contour>
  </outline>
</glyph>
<glyph name="x" format="2">
  <advance width="453"/>
  <unicode hex="0078"/>
  <anchor x="184" y="0" name="bottom"/>
  <anchor x="184" y="0" name="cedilla"/>
  <anchor x="184" y="0" name="ogonek"/>
  <anchor x="274" y="467" name="top"/>
  <outline>
    <contour>
      <point x="323" y="-10" type="curve" smooth="yes"/>
      <point x="388" y="-10"/>
      <point x="432" y="59"/>
      <point x="460" y="102" type="curve"/>
      <point x="439" y="118" type="line"/>
      <point x="415" y="86"/>
      <point x="394" y="62"/>
      <point x="368" y="62" type="curve" smooth="yes"/>
      <point x="334" y="62"/>
      <point x="316" y="101"/>
      <point x="288" y="191" type="curve" smooth="yes"/>
      <point x="264" y="269" type="line"/>
      <point x="254" y="288" type="line"/>
      <point x="240" y="349" type="line" smooth="yes"/>
      <point x="227" y="403"/>
      <point x="207" y="447"/>
      <point x="183" y="475" type="curve"/>
      <point x="168" y="475" type="line"/>
      <point x="32" y="459" type="line"/>
      <point x="32" y="429" type="line"/>
      <point x="45" y="431"/>
      <point x="54" y="432"/>
      <point x="65" y="432" type="curve" smooth="yes"/>
      <point x="125" y="432"/>
      <point x="144" y="405"/>
      <point x="170" y="322" type="curve" smooth="yes"/>
      <point x="201" y="221" type="line"/>
      <point x="212" y="204" type="line"/>
      <point x="239" y="93" type="line" smooth="yes"/>
      <point x="255" y="28"/>
      <point x="274" y="-10"/>
    </contour>
    <contour>
      <point x="21" y="-9" type="curve" smooth="yes"/>
      <point x="81" y="-9"/>
      <point x="114" y="38"/>
      <point x="146" y="90" type="curve" smooth="yes"/>
      <point x="210" y="194" type="line"/>
      <point x="224" y="194" type="line"/>
      <point x="204" y="239" type="line"/>
      <point x="126" y="126" type="line" smooth="yes"/>
      <point x="87" y="70"/>
      <point x="69" y="69"/>
      <point x="65" y="69" type="curve" smooth="yes"/>
      <point x="49" y="69"/>
      <point x="23" y="82"/>
      <point x="3" y="82" type="curve" smooth="yes"/>
      <point x="-22" y="82"/>
      <point x="-37" y="61"/>
      <point x="-37" y="39" type="curve" smooth="yes"/>
      <point x="-37" y="16"/>
      <point x="-22" y="-9"/>
    </contour>
    <contour>
      <point x="328" y="356" type="line" smooth="yes"/>
      <point x="345" y="384"/>
      <point x="360" y="398"/>
      <point x="381" y="398" type="curve" smooth="yes"/>
      <point x="398" y="398"/>
      <point x="416" y="388"/>
      <point x="435" y="388" type="curve" smooth="yes"/>
      <point x="458" y="388"/>
      <point x="480" y="402"/>
      <point x="480" y="436" type="curve" smooth="yes"/>
      <point x="480" y="463"/>
      <point x="466" y="479"/>
      <point x="431" y="479" type="curve" smooth="yes"/>
      <point x="368" y="479"/>
      <point x="330" y="427"/>
      <point x="304" y="382" type="curve" smooth="yes"/>
      <point x="255" y="298" type="line"/>
      <point x="242" y="298" type="line"/>
      <point x="261" y="250" type="line"/>
    </contour>
  </outline>
</glyph>
<glyph name="y" format="2">
  <advance width="446"/>
  <unicode hex="0079"/>
  <anchor x="132" y="-220" name="bottom"/>
  <anchor x="132" y="-220" name="cedilla"/>
  <anchor x="132" y="-220" name="ogonek"/>
  <anchor x="248" y="467" name="top"/>
  <outline>
    <contour>
      <point x="2" y="-220" type="curve" smooth="yes"/>
      <point x="69" y="-220"/>
      <point x="126" y="-139"/>
      <point x="234" y="15" type="curve" smooth="yes"/>
      <point x="244" y="29"/>
      <point x="348" y="175"/>
      <point x="398" y="268" type="curve" smooth="yes"/>
      <point x="429" y="325"/>
      <point x="441" y="365"/>
      <point x="441" y="401" type="curve" smooth="yes"/>
      <point x="441" y="457"/>
      <point x="411" y="482"/>
      <point x="377" y="482" type="curve" smooth="yes"/>
      <point x="349" y="482"/>
      <point x="334" y="464"/>
      <point x="334" y="442" type="curve" smooth="yes"/>
      <point x="334" y="403"/>
      <point x="383" y="383"/>
      <point x="383" y="346" type="curve" smooth="yes"/>
      <point x="383" y="330"/>
      <point x="374" y="303"/>
      <point x="350" y="264" type="curve" smooth="yes"/>
      <point x="235" y="79" type="line"/>
      <point x="213" y="79" type="line"/>
      <point x="171" y="0" type="line"/>
      <point x="150" y="-33"/>
      <point x="59" y="-163"/>
      <point x="35" y="-163" type="curve" smooth="yes"/>
      <point x="19" y="-163"/>
      <point x="4" y="-109"/>
      <point x="-37" y="-109" type="curve" smooth="yes"/>
      <point x="-59" y="-109"/>
      <point x="-76" y="-124"/>
      <point x="-76" y="-152" type="curve" smooth="yes"/>
      <point x="-76" y="-193"/>
      <point x="-38" y="-220"/>
    </contour>
    <contour>
      <point x="230" y="63" type="line"/>
      <point x="220" y="179" type="line"/>
      <point x="198" y="325" type="line" smooth="yes"/>
      <point x="186" y="405"/>
      <point x="179" y="437"/>
      <point x="157" y="475" type="curve"/>
      <point x="142" y="475" type="line"/>
      <point x="8" y="464" type="line"/>
      <point x="8" y="435" type="line"/>
      <point x="17" y="436"/>
      <point x="26" y="437"/>
      <point x="35" y="437" type="curve" smooth="yes"/>
      <point x="94" y="437"/>
      <point x="100" y="393"/>
      <point x="108" y="343" type="curve" smooth="yes"/>
      <point x="168" y="-25" type="line"/>
    </contour>
  </outline>
</glyph>
<glyph name="z" format="2">
  <advance width="425"/>
  <unicode hex="007A"/>
  <anchor x="157" y="-40" name="bottom"/>
  <anchor x="157" y="-40" name="cedilla"/>
  <anchor x="157" y="-40" name="ogonek"/>
  <anchor x="241" y="467" name="top"/>
  <outline>
    <contour>
      <point x="302" y="-97" type="curve" smooth="yes"/>
      <point x="365" y="-97"/>
      <point x="428" y="-72"/>
      <point x="428" y="0" type="curve" smooth="yes"/>
      <point x="428" y="38"/>
      <point x="411" y="62"/>
      <point x="380" y="62" type="curve" smooth="yes"/>
      <point x="347" y="62"/>
      <point x="338" y="32"/>
      <point x="338" y="17" type="curve" smooth="yes"/>
      <point x="338" y="-9"/>
      <point x="351" y="-27"/>
      <point x="351" y="-41" type="curve" smooth="yes"/>
      <point x="351" y="-56"/>
      <point x="343" y="-66"/>
      <point x="319" y="-66" type="curve" smooth="yes"/>
      <point x="246" y="-66"/>
      <point x="201" y="80"/>
      <point x="112" y="89" type="curve"/>
      <point x="112" y="93" type="line"/>
      <point x="425" y="440" type="line"/>
      <point x="429" y="467" type="line"/>
      <point x="80" y="467" type="line"/>
      <point x="43" y="309" type="line"/>
      <point x="74" y="309" type="line"/>
      <point x="94" y="376"/>
      <point x="104" y="398"/>
      <point x="173" y="398" type="curve" smooth="yes"/>
      <point x="321" y="398" type="line"/>
      <point x="321" y="395" type="line"/>
      <point x="-22" y="14" type="line"/>
      <point x="0" y="-6" type="line"/>
      <point x="23" y="16"/>
      <point x="33" y="21"/>
      <point x="54" y="21" type="curve" smooth="yes"/>
      <point x="152" y="21"/>
      <point x="180" y="-97"/>
    </contour>
  </outline>
</glyph>
<glyph name="braceleft" format="2">
  <advance width="310"/>
  <unicode hex="007B"/>
  <outline>
    <contour>
      <point x="189" y="-156" type="line"/>
      <point x="131" y="-156"/>
      <point x="103" y="-119"/>
      <point x="103" y="-65" type="curve" smooth="yes"/>
      <point x="103" y="3"/>
      <point x="159" y="74"/>
      <point x="159" y="174" type="curve" smooth="yes"/>
      <point x="159" y="227"/>
      <point x="131" y="254"/>
      <point x="94" y="266" type="curve"/>
      <point x="95" y="272" type="line"/>
      <point x="148" y="289"/>
      <point x="198" y="334"/>
      <point x="213" y="405" type="curve" smooth="yes"/>
      <point x="229" y="480"/>
      <point x="218" y="534"/>
      <point x="229" y="588" type="curve" smooth="yes"/>
      <point x="246" y="670"/>
      <point x="305" y="702"/>
      <point x="349" y="701" type="curve"/>
      <point x="356" y="731" type="line"/>
      <point x="259" y="731"/>
      <point x="177" y="687"/>
      <point x="154" y="578" type="curve" smooth="yes"/>
      <point x="140" y="514"/>
      <point x="145" y="415"/>
      <point x="133" y="357" type="curve" smooth="yes"/>
      <point x="122" y="304"/>
      <point x="82" y="293"/>
      <point x="37" y="291" type="curve"/>
      <point x="27" y="246" type="line"/>
      <point x="67" y="245"/>
      <point x="98" y="238"/>
      <point x="98" y="199" type="curve" smooth="yes"/>
      <point x="98" y="132"/>
      <point x="31" y="16"/>
      <point x="31" y="-64" type="curve" smooth="yes"/>
      <point x="31" y="-149"/>
      <point x="86" y="-186"/>
      <point x="182" y="-186" type="curve"/>
    </contour>
  </outline>
</glyph>
<glyph name="braceright" format="2">
  <advance width="310"/>
  <unicode hex="007D"/>
  <outline>
    <contour>
      <point x="-28" y="-185" type="line"/>
      <point x="69" y="-185"/>
      <point x="151" y="-141"/>
      <point x="174" y="-32" type="curve" smooth="yes"/>
      <point x="188" y="32"/>
      <point x="183" y="131"/>
      <point x="195" y="189" type="curve" smooth="yes"/>
      <point x="206" y="242"/>
      <point x="246" y="253"/>
      <point x="291" y="255" type="curve"/>
      <point x="301" y="300" type="line"/>
      <point x="261" y="301"/>
      <point x="230" y="308"/>
      <point x="230" y="347" type="curve" smooth="yes"/>
      <point x="230" y="414"/>
      <point x="297" y="530"/>
      <point x="297" y="610" type="curve" smooth="yes"/>
      <point x="297" y="695"/>
      <point x="242" y="732"/>
      <point x="146" y="732" type="curve"/>
      <point x="139" y="702" type="line"/>
      <point x="197" y="702"/>
      <point x="225" y="665"/>
      <point x="225" y="611" type="curve" smooth="yes"/>
      <point x="225" y="543"/>
      <point x="169" y="472"/>
      <point x="169" y="372" type="curve" smooth="yes"/>
      <point x="169" y="319"/>
      <point x="197" y="292"/>
      <point x="234" y="280" type="curve"/>
      <point x="233" y="274" type="line"/>
      <point x="180" y="257"/>
      <point x="130" y="212"/>
      <point x="115" y="141" type="curve" smooth="yes"/>
      <point x="99" y="66"/>
      <point x="110" y="12"/>
      <point x="99" y="-42" type="curve" smooth="yes"/>
      <point x="82" y="-124"/>
      <point x="23" y="-156"/>
      <point x="-21" y="-155" type="curve"/>
    </contour>
  </outline>
</glyph>
<glyph name="asciitilde" format="2">
  <advance width="554"/>
  <unicode hex="007E"/>
  <outline>
    <contour>
      <point x="78" y="187" type="line"/>
      <point x="95" y="234"/>
      <point x="128" y="262"/>
      <point x="164" y="262" type="curve" smooth="yes"/>
      <point x="207" y="262"/>
      <point x="244" y="246"/>
      <point x="263" y="236" type="curve" smooth="yes"/>
      <point x="321" y="206"/>
      <point x="340" y="192"/>
      <point x="386" y="192" type="curve" smooth="yes"/>
      <point x="433" y="192"/>
      <point x="470" y="215"/>
      <point x="514" y="280" type="curve"/>
      <point x="477" y="333" type="line"/>
      <point x="454" y="292"/>
      <point x="433" y="258"/>
      <point x="387" y="258" type="curve" smooth="yes"/>
      <point x="354" y="258"/>
      <point x="307" y="284"/>
      <point x="289" y="293" type="curve"/>
      <point x="220" y="322"/>
      <point x="203" y="327"/>
      <point x="169" y="327" type="curve" smooth="yes"/>
      <point x="122" y="327"/>
      <point x="76" y="307"/>
      <point x="41" y="238" type="curve"/>
    </contour>
  </outline>
</glyph>
<glyph name="exclamdown" format="2">
  <advance width="273"/>
  <unicode hex="00A1"/>
  <outline>
    <contour>
      <point x="45" y="-196" type="curve" smooth="yes"/>
      <point x="87" y="-196"/>
      <point x="104" y="-167"/>
      <point x="112" y="-130" type="curve"/>
      <point x="115" y="-114"/>
      <point x="118" y="-93"/>
      <point x="122" y="-65" type="curve" smooth="yes"/>
      <point x="169" y="303" type="line"/>
      <point x="134" y="303" type="line"/>
      <point x="23" y="-65" type="line" smooth="yes"/>
      <point x="11" y="-103"/>
      <point x="3" y="-134"/>
      <point x="3" y="-149" type="curve" smooth="yes"/>
      <point x="3" y="-177"/>
      <point x="15" y="-196"/>
    </contour>
    <contour>
      <point x="174" y="368" type="curve" smooth="yes"/>
      <point x="210" y="368"/>
      <point x="231" y="394"/>
      <point x="231" y="426" type="curve" smooth="yes"/>
      <point x="231" y="458"/>
      <point x="212" y="481"/>
      <point x="175" y="481" type="curve" smooth="yes"/>
      <point x="138" y="481"/>
      <point x="118" y="456"/>
      <point x="118" y="426" type="curve" smooth="yes"/>
      <point x="118" y="395"/>
      <point x="138" y="368"/>
    </contour>
  </outline>
</glyph>
<glyph name="cent" format="2">
  <advance width="495"/>
  <unicode hex="00A2"/>
  <outline>
    <contour>
      <point x="213" y="78" type="curve" smooth="yes"/>
      <point x="316" y="80"/>
      <point x="379" y="133"/>
      <point x="433" y="213" type="curve"/>
      <point x="415" y="228" type="line"/>
      <point x="355" y="167"/>
      <point x="318" y="140"/>
      <point x="238" y="140" type="curve" smooth="yes"/>
      <point x="165" y="140"/>
      <point x="127" y="193"/>
      <point x="127" y="295" type="curve" smooth="yes"/>
      <point x="127" y="426"/>
      <point x="209" y="528"/>
      <point x="305" y="528" type="curve"/>
      <point x="326" y="525" type="line"/>
      <point x="339" y="525" type="line"/>
      <point x="383" y="500"/>
      <point x="363" y="418"/>
      <point x="421" y="418" type="curve" smooth="yes"/>
      <point x="453" y="418"/>
      <point x="468" y="437"/>
      <point x="468" y="473" type="curve" smooth="yes"/>
      <point x="468" y="525"/>
      <point x="421" y="561"/>
      <point x="340" y="561" type="curve" smooth="yes"/>
      <point x="167" y="561"/>
      <point x="46" y="439"/>
      <point x="46" y="253" type="curve" smooth="yes"/>
      <point x="46" y="145"/>
      <point x="113" y="76"/>
    </contour>
    <contour>
      <point x="201" y="-25" type="line"/>
      <point x="371" y="657" type="line"/>
      <point x="328" y="657" type="line"/>
      <point x="158" y="-25" type="line"/>
    </contour>
  </outline>
</glyph>
<glyph name="sterling" format="2">
  <advance width="495"/>
  <unicode hex="00A3"/>
  <outline>
    <contour>
      <point x="181" y="89" type="line"/>
      <point x="219" y="158"/>
      <point x="238" y="226"/>
      <point x="249" y="318" type="curve" smooth="yes"/>
      <point x="254" y="362"/>
      <point x="257" y="441"/>
      <point x="269" y="496" type="curve" smooth="yes"/>
      <point x="287" y="577"/>
      <point x="320" y="604"/>
      <point x="370" y="604" type="curve" smooth="yes"/>
      <point x="439" y="604"/>
      <point x="421" y="516"/>
      <point x="481" y="516" type="curve" smooth="yes"/>
      <point x="501" y="516"/>
      <point x="525" y="527"/>
      <point x="525" y="559" type="curve" smooth="yes"/>
      <point x="525" y="606"/>
      <point x="482" y="644"/>
      <point x="407" y="644" type="curve" smooth="yes"/>
      <point x="285" y="644"/>
      <point x="201" y="547"/>
      <point x="176" y="427" type="curve"/>
      <point x="170" y="402"/>
      <point x="166" y="371"/>
      <point x="163" y="321" type="curve" smooth="yes"/>
      <point x="157" y="224"/>
      <point x="147" y="164"/>
      <point x="135" y="111" type="curve"/>
    </contour>
    <contour>
      <point x="37" y="-8" type="curve" smooth="yes"/>
      <point x="79" y="-8"/>
      <point x="110" y="9"/>
      <point x="156" y="60" type="curve"/>
      <point x="122" y="86" type="line"/>
      <point x="122" y="75" type="line"/>
      <point x="102" y="48"/>
      <point x="77" y="27"/>
      <point x="50" y="27" type="curve" smooth="yes"/>
      <point x="29" y="27"/>
      <point x="12" y="34"/>
      <point x="12" y="54" type="curve" smooth="yes"/>
      <point x="12" y="79"/>
      <point x="31" y="98"/>
      <point x="72" y="98" type="curve" smooth="yes"/>
      <point x="101" y="98"/>
      <point x="115" y="84"/>
      <point x="127" y="72" type="curve"/>
      <point x="135" y="59" type="line"/>
      <point x="199" y="9"/>
      <point x="221" y="-6"/>
      <point x="268" y="-6" type="curve" smooth="yes"/>
      <point x="354" y="-6"/>
      <point x="413" y="55"/>
      <point x="453" y="120" type="curve"/>
      <point x="437" y="132" type="line"/>
      <point x="401" y="93"/>
      <point x="359" y="62"/>
      <point x="300" y="62" type="curve" smooth="yes"/>
      <point x="224" y="62"/>
      <point x="160" y="131"/>
      <point x="82" y="131" type="curve" smooth="yes"/>
      <point x="34" y="131"/>
      <point x="-29" y="115"/>
      <point x="-29" y="47" type="curve" smooth="yes"/>
      <point x="-29" y="10"/>
      <point x="1" y="-8"/>
    </contour>
    <contour>
      <point x="383" y="308" type="line"/>
      <point x="391" y="347" type="line"/>
      <point x="74" y="347" type="line"/>
      <point x="66" y="308" type="line"/>
    </contour>
  </outline>
</glyph>
<glyph name="currency" format="2">
  <advance width="617"/>
  <unicode hex="00A4"/>
  <outline>
    <contour>
      <point x="310" y="48" type="curve" smooth="yes"/>
      <point x="430" y="48"/>
      <point x="529" y="140"/>
      <point x="529" y="269" type="curve" smooth="yes"/>
      <point x="529" y="396"/>
      <point x="433" y="488"/>
      <point x="310" y="488" type="curve" smooth="yes"/>
      <point x="186" y="488"/>
      <point x="89" y="389"/>
      <point x="89" y="268" type="curve" smooth="yes"/>
      <point x="89" y="143"/>
      <point x="189" y="48"/>
    </contour>
    <contour>
      <point x="191" y="101" type="line"/>
      <point x="142" y="150" type="line"/>
      <point x="30" y="41" type="line"/>
      <point x="81" y="-10" type="line"/>
    </contour>
    <contour>
      <point x="310" y="113" type="curve" smooth="yes"/>
      <point x="226" y="113"/>
      <point x="158" y="183"/>
      <point x="158" y="269" type="curve" smooth="yes"/>
      <point x="158" y="353"/>
      <point x="226" y="423"/>
      <point x="308" y="423" type="curve" smooth="yes"/>
      <point x="393" y="423"/>
      <point x="459" y="355"/>
      <point x="459" y="270" type="curve" smooth="yes"/>
      <point x="459" y="182"/>
      <point x="394" y="113"/>
    </contour>
    <contour>
      <point x="191" y="437" type="line"/>
      <point x="81" y="547" type="line"/>
      <point x="30" y="497" type="line"/>
      <point x="142" y="386" type="line"/>
    </contour>
    <contour>
      <point x="587" y="41" type="line"/>
      <point x="478" y="150" type="line"/>
      <point x="427" y="101" type="line"/>
      <point x="538" y="-10" type="line"/>
    </contour>
    <contour>
      <point x="587" y="497" type="line"/>
      <point x="538" y="547" type="line"/>
      <point x="427" y="437" type="line"/>
      <point x="478" y="386" type="line"/>
    </contour>
  </outline>
</glyph>
<glyph name="yen" format="2">
  <advance width="495"/>
  <unicode hex="00A5"/>
  <outline>
    <contour>
      <point x="326" y="0" type="line"/>
      <point x="331" y="28" type="line"/>
      <point x="278" y="28"/>
      <point x="258" y="35"/>
      <point x="258" y="74" type="curve" smooth="yes"/>
      <point x="258" y="92"/>
      <point x="262" y="121"/>
      <point x="270" y="158" type="curve" smooth="yes"/>
      <point x="299" y="289" type="line"/>
      <point x="458" y="506" type="line" smooth="yes"/>
      <point x="512" y="580"/>
      <point x="524" y="599"/>
      <point x="573" y="601" type="curve"/>
      <point x="579" y="630" type="line"/>
      <point x="410" y="630" type="line"/>
      <point x="404" y="601" type="line"/>
      <point x="439" y="601"/>
      <point x="450" y="595"/>
      <point x="450" y="582" type="curve" smooth="yes"/>
      <point x="450" y="567"/>
      <point x="441" y="551"/>
      <point x="430" y="534" type="curve"/>
      <point x="289" y="331" type="line"/>
      <point x="285" y="331" type="line"/>
      <point x="268" y="408" type="line"/>
      <point x="229" y="518" type="line"/>
      <point x="224" y="534"/>
      <point x="219" y="554"/>
      <point x="219" y="569" type="curve" smooth="yes"/>
      <point x="219" y="584"/>
      <point x="235" y="601"/>
      <point x="280" y="601" type="curve"/>
      <point x="286" y="630" type="line"/>
      <point x="68" y="630" type="line"/>
      <point x="62" y="601" type="line"/>
      <point x="107" y="601"/>
      <point x="120" y="589"/>
      <point x="153" y="491" type="curve" smooth="yes"/>
      <point x="219" y="294" type="line"/>
      <point x="186" y="133" type="line" smooth="yes"/>
      <point x="167" y="41"/>
      <point x="156" y="28"/>
      <point x="79" y="28" type="curve"/>
      <point x="73" y="0" type="line"/>
    </contour>
    <contour>
      <point x="398" y="142" type="line"/>
      <point x="407" y="181" type="line"/>
      <point x="65" y="181" type="line"/>
      <point x="55" y="142" type="line"/>
    </contour>
    <contour>
      <point x="424" y="266" type="line"/>
      <point x="433" y="305" type="line"/>
      <point x="90" y="305" type="line"/>
      <point x="81" y="266" type="line"/>
    </contour>
  </outline>
</glyph>
<glyph name="brokenbar" format="2">
  <advance width="267"/>
  <unicode hex="00A6"/>
  <outline>
    <contour>
      <point x="251" y="679" type="line"/>
      <point x="194" y="679" type="line"/>
      <point x="132" y="387" type="line"/>
      <point x="189" y="387" type="line"/>
    </contour>
    <contour>
      <point x="161" y="254" type="line"/>
      <point x="104" y="254" type="line"/>
      <point x="42" y="-38" type="line"/>
      <point x="99" y="-38" type="line"/>
    </contour>
  </outline>
</glyph>
<glyph name="section" format="2">
  <advance width="492"/>
  <unicode hex="00A7"/>
  <outline>
    <contour>
      <point x="126" y="-203" type="curve" smooth="yes"/>
      <point x="218" y="-203"/>
      <point x="326" y="-164"/>
      <point x="326" y="-48" type="curve" smooth="yes"/>
      <point x="326" y="-3"/>
      <point x="302" y="33"/>
      <point x="272" y="68" type="curve"/>
      <point x="275" y="76" type="line"/>
      <point x="262" y="82" type="line"/>
      <point x="207" y="144"/>
      <point x="143" y="202"/>
      <point x="143" y="266" type="curve" smooth="yes"/>
      <point x="143" y="310"/>
      <point x="153" y="339"/>
      <point x="240" y="363" type="curve"/>
      <point x="221" y="377" type="line"/>
      <point x="137" y="354"/>
      <point x="80" y="305"/>
      <point x="80" y="213" type="curve" smooth="yes"/>
      <point x="80" y="72"/>
      <point x="255" y="13"/>
      <point x="255" y="-86" type="curve" smooth="yes"/>
      <point x="255" y="-157"/>
      <point x="185" y="-175"/>
      <point x="127" y="-175" type="curve" smooth="yes"/>
      <point x="84" y="-175"/>
      <point x="60" y="-152"/>
      <point x="60" y="-129" type="curve" smooth="yes"/>
      <point x="60" y="-119"/>
      <point x="92" y="-87"/>
      <point x="92" y="-56" type="curve" smooth="yes"/>
      <point x="92" y="-36"/>
      <point x="79" y="-28"/>
      <point x="65" y="-28" type="curve" smooth="yes"/>
      <point x="25" y="-28"/>
      <point x="4" y="-58"/>
      <point x="4" y="-104" type="curve" smooth="yes"/>
      <point x="4" y="-160"/>
      <point x="49" y="-203"/>
    </contour>
    <contour>
      <point x="267" y="69" type="line"/>
      <point x="362" y="92"/>
      <point x="412" y="142"/>
      <point x="412" y="227" type="curve" smooth="yes"/>
      <point x="412" y="375"/>
      <point x="232" y="434"/>
      <point x="232" y="535" type="curve" smooth="yes"/>
      <point x="232" y="603"/>
      <point x="284" y="623"/>
      <point x="343" y="623" type="curve" smooth="yes"/>
      <point x="386" y="623"/>
      <point x="413" y="604"/>
      <point x="413" y="582" type="curve" smooth="yes"/>
      <point x="413" y="573"/>
      <point x="382" y="540"/>
      <point x="382" y="509" type="curve" smooth="yes"/>
      <point x="382" y="489"/>
      <point x="395" y="481"/>
      <point x="412" y="481" type="curve" smooth="yes"/>
      <point x="446" y="481"/>
      <point x="469" y="510"/>
      <point x="469" y="557" type="curve" smooth="yes"/>
      <point x="469" y="612"/>
      <point x="418" y="651"/>
      <point x="342" y="651" type="curve" smooth="yes"/>
      <point x="251" y="651"/>
      <point x="161" y="605"/>
      <point x="161" y="501" type="curve" smooth="yes"/>
      <point x="161" y="456"/>
      <point x="186" y="413"/>
      <point x="215" y="377" type="curve"/>
      <point x="215" y="370" type="line"/>
      <point x="227" y="365" type="line"/>
      <point x="282" y="302"/>
      <point x="350" y="243"/>
      <point x="350" y="180" type="curve" smooth="yes"/>
      <point x="350" y="115"/>
      <point x="296" y="97"/>
      <point x="253" y="85" type="curve"/>
    </contour>
  </outline>
</glyph>
<glyph name="copyright" format="2">
  <advance width="781"/>
  <unicode hex="00A9"/>
  <outline>
    <contour>
      <point x="409" y="-14" type="curve" smooth="yes"/>
      <point x="606" y="-14"/>
      <point x="746" y="129"/>
      <point x="746" y="330" type="curve" smooth="yes"/>
      <point x="746" y="532"/>
      <point x="606" y="676"/>
      <point x="409" y="676" type="curve" smooth="yes"/>
      <point x="214" y="676"/>
      <point x="75" y="532"/>
      <point x="75" y="330" type="curve" smooth="yes"/>
      <point x="75" y="129"/>
      <point x="214" y="-14"/>
    </contour>
    <contour>
      <point x="417" y="141" type="curve" smooth="yes"/>
      <point x="499" y="141"/>
      <point x="542" y="181"/>
      <point x="572" y="224" type="curve"/>
      <point x="553" y="241" type="line"/>
      <point x="521" y="207"/>
      <point x="490" y="194"/>
      <point x="430" y="194" type="curve" smooth="yes"/>
      <point x="346" y="194"/>
      <point x="305" y="247"/>
      <point x="305" y="338" type="curve" smooth="yes"/>
      <point x="305" y="431"/>
      <point x="323" y="490"/>
      <point x="408" y="490" type="curve" smooth="yes"/>
      <point x="477" y="490"/>
      <point x="513" y="461"/>
      <point x="528" y="388" type="curve"/>
      <point x="556" y="388" type="line"/>
      <point x="556" y="522" type="line"/>
      <point x="532" y="522" type="line"/>
      <point x="521" y="509"/>
      <point x="516" y="504"/>
      <point x="511" y="504" type="curve" smooth="yes"/>
      <point x="495" y="504"/>
      <point x="477" y="523"/>
      <point x="412" y="523" type="curve" smooth="yes"/>
      <point x="292" y="523"/>
      <point x="230" y="450"/>
      <point x="230" y="329" type="curve" smooth="yes"/>
      <point x="230" y="206"/>
      <point x="295" y="141"/>
    </contour>
    <contour>
      <point x="409" y="19" type="curve" smooth="yes"/>
      <point x="232" y="19"/>
      <point x="113" y="148"/>
      <point x="113" y="330" type="curve" smooth="yes"/>
      <point x="113" y="514"/>
      <point x="232" y="643"/>
      <point x="409" y="643" type="curve" smooth="yes"/>
      <point x="588" y="643"/>
      <point x="708" y="514"/>
      <point x="708" y="330" type="curve" smooth="yes"/>
      <point x="708" y="148"/>
      <point x="588" y="19"/>
    </contour>
  </outline>
</glyph>
<glyph name="registered" format="2">
  <advance width="413"/>
  <unicode hex="00AE"/>
  <outline>
    <contour>
      <point x="276" y="372" type="curve" smooth="yes"/>
      <point x="376" y="372"/>
      <point x="447" y="445"/>
      <point x="447" y="546" type="curve" smooth="yes"/>
      <point x="447" y="648"/>
      <point x="376" y="722"/>
      <point x="276" y="722" type="curve" smooth="yes"/>
      <point x="179" y="722"/>
      <point x="106" y="648"/>
      <point x="106" y="546" type="curve" smooth="yes"/>
      <point x="106" y="445"/>
      <point x="177" y="372"/>
    </contour>
    <contour>
      <point x="276" y="392" type="curve" smooth="yes"/>
      <point x="188" y="392"/>
      <point x="129" y="456"/>
      <point x="129" y="546" type="curve" smooth="yes"/>
      <point x="129" y="638"/>
      <point x="188" y="702"/>
      <point x="276" y="702" type="curve" smooth="yes"/>
      <point x="364" y="702"/>
      <point x="424" y="638"/>
      <point x="424" y="546" type="curve" smooth="yes"/>
      <point x="424" y="456"/>
      <point x="364" y="392"/>
    </contour>
    <contour>
      <point x="282" y="455" type="line"/>
      <point x="282" y="471" type="line"/>
      <point x="255" y="471"/>
      <point x="251" y="473"/>
      <point x="251" y="496" type="curve" smooth="yes"/>
      <point x="251" y="619" type="line"/>
      <point x="269" y="619" type="line" smooth="yes"/>
      <point x="297" y="619"/>
      <point x="311" y="614"/>
      <point x="311" y="590" type="curve" smooth="yes"/>
      <point x="311" y="561"/>
      <point x="296" y="552"/>
      <point x="261" y="552" type="curve" smooth="yes"/>
      <point x="247" y="552" type="line"/>
      <point x="247" y="535" type="line"/>
      <point x="263" y="535" type="line" smooth="yes"/>
      <point x="268" y="535"/>
      <point x="269" y="534"/>
      <point x="274" y="528" type="curve"/>
      <point x="287" y="511"/>
      <point x="294" y="501"/>
      <point x="326" y="455" type="curve"/>
      <point x="379" y="455" type="line"/>
      <point x="379" y="471" type="line"/>
      <point x="367" y="471"/>
      <point x="364" y="474"/>
      <point x="355" y="485" type="curve" smooth="yes"/>
      <point x="322" y="524"/>
      <point x="314" y="530"/>
      <point x="306" y="539" type="curve"/>
      <point x="306" y="541" type="line"/>
      <point x="330" y="546"/>
      <point x="355" y="557"/>
      <point x="355" y="590" type="curve" smooth="yes"/>
      <point x="355" y="628"/>
      <point x="315" y="638"/>
      <point x="272" y="638" type="curve" smooth="yes"/>
      <point x="186" y="638" type="line"/>
      <point x="186" y="624" type="line"/>
      <point x="209" y="624"/>
      <point x="212" y="620"/>
      <point x="212" y="603" type="curve" smooth="yes"/>
      <point x="212" y="496" type="line" smooth="yes"/>
      <point x="212" y="473"/>
      <point x="205" y="471"/>
      <point x="184" y="471" type="curve"/>
      <point x="184" y="455" type="line"/>
    </contour>
  </outline>
</glyph>
<glyph name="degree" format="2">
  <advance width="398"/>
  <unicode hex="00B0"/>
  <outline>
    <contour>
      <point x="252" y="394" type="curve" smooth="yes"/>
      <point x="340" y="394"/>
      <point x="404" y="449"/>
      <point x="404" y="546" type="curve" smooth="yes"/>
      <point x="404" y="643"/>
      <point x="340" y="697"/>
      <point x="254" y="697" type="curve" smooth="yes"/>
      <point x="168" y="697"/>
      <point x="99" y="645"/>
      <point x="99" y="547" type="curve" smooth="yes"/>
      <point x="99" y="449"/>
      <point x="164" y="394"/>
    </contour>
    <contour>
      <point x="252" y="441" type="curve" smooth="yes"/>
      <point x="191" y="441"/>
      <point x="155" y="482"/>
      <point x="155" y="546" type="curve" smooth="yes"/>
      <point x="155" y="610"/>
      <point x="190" y="650"/>
      <point x="250" y="650" type="curve" smooth="yes"/>
      <point x="310" y="650"/>
      <point x="348" y="612"/>
      <point x="348" y="547" type="curve" smooth="yes"/>
      <point x="348" y="482"/>
      <point x="313" y="441"/>
    </contour>
  </outline>
</glyph>
<glyph name="plusminus" format="2">
  <advance width="720"/>
  <unicode hex="00B1"/>
  <outline>
    <contour>
      <point x="394" y="94" type="line"/>
      <point x="394" y="308" type="line"/>
      <point x="658" y="308" type="line"/>
      <point x="658" y="375" type="line"/>
      <point x="394" y="375" type="line"/>
      <point x="394" y="578" type="line"/>
      <point x="326" y="578" type="line"/>
      <point x="326" y="375" type="line"/>
      <point x="62" y="375" type="line"/>
      <point x="62" y="308" type="line"/>
      <point x="326" y="308" type="line"/>
      <point x="326" y="94" type="line"/>
    </contour>
    <contour>
      <point x="658" y="-29" type="line"/>
      <point x="658" y="38" type="line"/>
      <point x="62" y="38" type="line"/>
      <point x="62" y="-29" type="line"/>
    </contour>
  </outline>
</glyph>
<glyph name="twosuperior" format="2">
  <advance width="373"/>
  <unicode hex="00B2"/>
  <anchor x="186" y="252" name="bottom"/>
  <anchor x="187" y="252" name="cedilla"/>
  <anchor x="186" y="252" name="ogonek"/>
  <anchor x="278" y="726" name="top"/>
  <outline>
    <contour>
      <point x="329" y="252" type="line"/>
      <point x="381" y="379" type="line"/>
      <point x="354" y="379" type="line"/>
      <point x="325" y="333"/>
      <point x="313" y="316"/>
      <point x="270" y="316" type="curve" smooth="yes"/>
      <point x="175" y="316" type="line"/>
      <point x="118" y="313" type="line"/>
      <point x="119" y="318" type="line"/>
      <point x="227" y="405" type="line"/>
      <point x="340" y="494"/>
      <point x="409" y="547"/>
      <point x="409" y="631" type="curve" smooth="yes"/>
      <point x="409" y="698"/>
      <point x="359" y="738"/>
      <point x="282" y="738" type="curve" smooth="yes"/>
      <point x="206" y="738"/>
      <point x="145" y="697"/>
      <point x="106" y="631" type="curve"/>
      <point x="124" y="620" type="line"/>
      <point x="160" y="665"/>
      <point x="198" y="683"/>
      <point x="251" y="683" type="curve" smooth="yes"/>
      <point x="301" y="683"/>
      <point x="327" y="656"/>
      <point x="327" y="616" type="curve" smooth="yes"/>
      <point x="327" y="535"/>
      <point x="295" y="500"/>
      <point x="158" y="393" type="curve"/>
      <point x="34" y="291" type="line"/>
      <point x="26" y="252" type="line"/>
    </contour>
  </outline>
</glyph>
<glyph name="threesuperior" format="2">
  <advance width="374"/>
  <unicode hex="00B3"/>
  <anchor x="196" y="252" name="bottom"/>
  <anchor x="198" y="252" name="cedilla"/>
  <anchor x="195" y="252" name="ogonek"/>
  <anchor x="271" y="726" name="top"/>
  <outline>
    <contour>
      <point x="117" y="244" type="curve" smooth="yes"/>
      <point x="242" y="244"/>
      <point x="370" y="300"/>
      <point x="370" y="418" type="curve" smooth="yes"/>
      <point x="370" y="474"/>
      <point x="328" y="509"/>
      <point x="277" y="523" type="curve"/>
      <point x="278" y="528" type="line"/>
      <point x="342" y="561"/>
      <point x="390" y="591"/>
      <point x="390" y="653" type="curve" smooth="yes"/>
      <point x="390" y="701"/>
      <point x="349" y="738"/>
      <point x="277" y="738" type="curve" smooth="yes"/>
      <point x="215" y="738"/>
      <point x="158" y="704"/>
      <point x="114" y="638" type="curve"/>
      <point x="133" y="628" type="line"/>
      <point x="166" y="667"/>
      <point x="203" y="683"/>
      <point x="246" y="683" type="curve" smooth="yes"/>
      <point x="286" y="683"/>
      <point x="313" y="664"/>
      <point x="313" y="630" type="curve" smooth="yes"/>
      <point x="313" y="563"/>
      <point x="240" y="521"/>
      <point x="182" y="521" type="curve" smooth="yes"/>
      <point x="166" y="521" type="line"/>
      <point x="158" y="485" type="line"/>
      <point x="175" y="485" type="line" smooth="yes"/>
      <point x="243" y="485"/>
      <point x="294" y="449"/>
      <point x="294" y="394" type="curve" smooth="yes"/>
      <point x="294" y="309"/>
      <point x="225" y="283"/>
      <point x="176" y="283" type="curve" smooth="yes"/>
      <point x="136" y="283"/>
      <point x="109" y="324"/>
      <point x="78" y="324" type="curve" smooth="yes"/>
      <point x="52" y="324"/>
      <point x="37" y="307"/>
      <point x="37" y="288" type="curve" smooth="yes"/>
      <point x="37" y="265"/>
      <point x="54" y="244"/>
    </contour>
  </outline>
</glyph>
<glyph name="micro" format="2">
  <advance width="556"/>
  <unicode hex="00B5"/>
  <outline>
    <contour>
      <point x="131" y="-191" type="line"/>
      <point x="119" y="-73"/>
      <point x="116" y="-12"/>
      <point x="115" y="69" type="curve"/>
      <point x="120" y="69" type="line"/>
      <point x="134" y="41"/>
      <point x="159" y="-13"/>
      <point x="214" y="-13" type="curve" smooth="yes"/>
      <point x="263" y="-13"/>
      <point x="319" y="17"/>
      <point x="351" y="164" type="curve"/>
      <point x="357" y="164" type="line"/>
      <point x="368" y="46"/>
      <point x="375" y="-10"/>
      <point x="438" y="-10" type="curve" smooth="yes"/>
      <point x="503" y="-10"/>
      <point x="537" y="45"/>
      <point x="553" y="92" type="curve"/>
      <point x="536" y="103" type="line"/>
      <point x="521" y="83"/>
      <point x="506" y="64"/>
      <point x="474" y="64" type="curve" smooth="yes"/>
      <point x="422" y="64"/>
      <point x="409" y="138"/>
      <point x="409" y="217" type="curve"/>
      <point x="452" y="463" type="line"/>
      <point x="447" y="472" type="line"/>
      <point x="361" y="469" type="line"/>
      <point x="358" y="281" type="line"/>
      <point x="357" y="256"/>
      <point x="308" y="70"/>
      <point x="218" y="70" type="curve" smooth="yes"/>
      <point x="164" y="70"/>
      <point x="127" y="135"/>
      <point x="127" y="195" type="curve" smooth="yes"/>
      <point x="127" y="207"/>
      <point x="128" y="217"/>
      <point x="128" y="217" type="curve"/>
      <point x="164" y="464" type="line"/>
      <point x="160" y="472" type="line"/>
      <point x="70" y="469" type="line"/>
      <point x="71" y="149" type="line"/>
      <point x="48" y="17"/>
      <point x="41" y="-74"/>
      <point x="40" y="-214" type="curve"/>
      <point x="56" y="-217" type="line"/>
    </contour>
  </outline>
</glyph>
<glyph name="paragraph" format="2">
  <advance width="605"/>
  <unicode hex="00B6"/>
  <outline>
    <contour>
      <point x="463" y="-148" type="line"/>
      <point x="469" y="-119" type="line"/>
      <point x="392" y="-113"/>
      <point x="382" y="-99"/>
      <point x="397" y="-26" type="curve" smooth="yes"/>
      <point x="515" y="528" type="line" smooth="yes"/>
      <point x="531" y="604"/>
      <point x="548" y="624"/>
      <point x="628" y="631" type="curve"/>
      <point x="634" y="657" type="line"/>
      <point x="364" y="657" type="line" smooth="yes"/>
      <point x="174" y="657"/>
      <point x="95" y="572"/>
      <point x="95" y="417" type="curve" smooth="yes"/>
      <point x="95" y="311"/>
      <point x="162" y="264"/>
      <point x="273" y="257" type="curve"/>
      <point x="279" y="286" type="line"/>
      <point x="209" y="290"/>
      <point x="177" y="332"/>
      <point x="177" y="407" type="curve" smooth="yes"/>
      <point x="177" y="554"/>
      <point x="234" y="618"/>
      <point x="348" y="621" type="curve"/>
      <point x="468" y="621" type="line"/>
      <point x="305" y="-148" type="line"/>
    </contour>
    <contour>
      <point x="245" y="-148" type="line"/>
      <point x="411" y="637" type="line"/>
      <point x="344" y="638" type="line"/>
      <point x="206" y="-14" type="line" smooth="yes"/>
      <point x="188" y="-100"/>
      <point x="174" y="-114"/>
      <point x="93" y="-119" type="curve"/>
      <point x="87" y="-148" type="line"/>
    </contour>
  </outline>
</glyph>
<glyph name="periodcentered" format="2">
  <advance width="277"/>
  <unicode hex="00B7"/>
  <outline>
    <contour>
      <point x="138" y="198" type="curve" smooth="yes"/>
      <point x="175" y="198"/>
      <point x="195" y="223"/>
      <point x="195" y="253" type="curve" smooth="yes"/>
      <point x="195" y="284"/>
      <point x="175" y="311"/>
      <point x="139" y="311" type="curve" smooth="yes"/>
      <point x="103" y="311"/>
      <point x="82" y="285"/>
      <point x="82" y="253" type="curve" smooth="yes"/>
      <point x="82" y="221"/>
      <point x="101" y="198"/>
    </contour>
  </outline>
</glyph>
<glyph name="onesuperior" format="2">
  <advance width="343"/>
  <unicode hex="00B9"/>
  <anchor x="174" y="252" name="bottom"/>
  <anchor x="175" y="252" name="cedilla"/>
  <anchor x="174" y="252" name="ogonek"/>
  <anchor x="260" y="726" name="top"/>
  <outline>
    <contour>
      <point x="303" y="252" type="line"/>
      <point x="308" y="279" type="line"/>
      <point x="240" y="279"/>
      <point x="221" y="291"/>
      <point x="229" y="328" type="curve" smooth="yes"/>
      <point x="315" y="735" type="line"/>
      <point x="282" y="735" type="line"/>
      <point x="140" y="699" type="line"/>
      <point x="133" y="669" type="line"/>
      <point x="152" y="673"/>
      <point x="186" y="679"/>
      <point x="202" y="679" type="curve" smooth="yes"/>
      <point x="223" y="679"/>
      <point x="228" y="667"/>
      <point x="222" y="641" type="curve" smooth="yes"/>
      <point x="156" y="328" type="line" smooth="yes"/>
      <point x="148" y="291"/>
      <point x="126" y="279"/>
      <point x="56" y="279" type="curve"/>
      <point x="51" y="252" type="line"/>
    </contour>
  </outline>
</glyph>
<glyph name="questiondown" format="2">
  <advance width="399"/>
  <unicode hex="00BF"/>
  <outline>
    <contour>
      <point x="124" y="-196" type="curve" smooth="yes"/>
      <point x="235" y="-196"/>
      <point x="319" y="-125"/>
      <point x="319" y="-46" type="curve" smooth="yes"/>
      <point x="319" y="-11"/>
      <point x="303" y="7"/>
      <point x="277" y="7" type="curve" smooth="yes"/>
      <point x="253" y="7"/>
      <point x="230" y="-8"/>
      <point x="230" y="-42" type="curve" smooth="yes"/>
      <point x="230" y="-62"/>
      <point x="238" y="-76"/>
      <point x="238" y="-93" type="curve" smooth="yes"/>
      <point x="238" y="-130"/>
      <point x="202" y="-162"/>
      <point x="145" y="-162" type="curve" smooth="yes"/>
      <point x="84" y="-162"/>
      <point x="53" y="-125"/>
      <point x="53" y="-52" type="curve" smooth="yes"/>
      <point x="53" y="107"/>
      <point x="201" y="128"/>
      <point x="235" y="277" type="curve" smooth="yes"/>
      <point x="241" y="303" type="line"/>
      <point x="203" y="303" type="line"/>
      <point x="199" y="287" type="line" smooth="yes"/>
      <point x="170" y="171"/>
      <point x="-33" y="105"/>
      <point x="-33" y="-56" type="curve" smooth="yes"/>
      <point x="-33" y="-146"/>
      <point x="31" y="-196"/>
    </contour>
    <contour>
      <point x="234" y="368" type="curve" smooth="yes"/>
      <point x="270" y="368"/>
      <point x="291" y="394"/>
      <point x="291" y="426" type="curve" smooth="yes"/>
      <point x="291" y="458"/>
      <point x="272" y="481"/>
      <point x="235" y="481" type="curve" smooth="yes"/>
      <point x="198" y="481"/>
      <point x="178" y="456"/>
      <point x="178" y="426" type="curve" smooth="yes"/>
      <point x="178" y="395"/>
      <point x="198" y="368"/>
    </contour>
  </outline>
</glyph>
<glyph name="AE" format="2">
  <advance width="899"/>
  <unicode hex="00C6"/>
  <anchor x="421" y="0" name="bottom"/>
  <anchor x="421" y="0" name="cedilla"/>
  <anchor x="657" y="0" name="ogonek"/>
  <anchor x="650" y="657" name="top"/>
  <outline>
    <contour>
      <point x="153" y="0" type="line"/>
      <point x="159" y="30" type="line"/>
      <point x="118" y="30"/>
      <point x="98" y="36"/>
      <point x="98" y="59" type="curve" smooth="yes"/>
      <point x="98" y="76"/>
      <point x="112" y="103"/>
      <point x="126" y="119" type="curve"/>
      <point x="272" y="310" type="line"/>
      <point x="283" y="331" type="line"/>
      <point x="495" y="612" type="line"/>
      <point x="502" y="612" type="line"/>
      <point x="404" y="145" type="line" smooth="yes"/>
      <point x="382" y="43"/>
      <point x="372" y="30"/>
      <point x="281" y="30" type="curve"/>
      <point x="275" y="0" type="line"/>
      <point x="783" y="0" type="line"/>
      <point x="846" y="181" type="line"/>
      <point x="814" y="181" type="line"/>
      <point x="749" y="61"/>
      <point x="732" y="39"/>
      <point x="577" y="39" type="curve" smooth="yes"/>
      <point x="473" y="39" type="line"/>
      <point x="592" y="618" type="line"/>
      <point x="717" y="618" type="line" smooth="yes"/>
      <point x="838" y="618"/>
      <point x="864" y="593"/>
      <point x="857" y="493" type="curve"/>
      <point x="889" y="493" type="line"/>
      <point x="915" y="657" type="line"/>
      <point x="384" y="657" type="line"/>
      <point x="377" y="627" type="line"/>
      <point x="412" y="627"/>
      <point x="430" y="624"/>
      <point x="430" y="603" type="curve" smooth="yes"/>
      <point x="430" y="586"/>
      <point x="419" y="572"/>
      <point x="407" y="554" type="curve"/>
      <point x="83" y="134" type="line"/>
      <point x="27" y="59"/>
      <point x="-1" y="30"/>
      <point x="-57" y="30" type="curve"/>
      <point x="-63" y="0" type="line"/>
    </contour>
    <contour>
      <point x="746" y="212" type="line"/>
      <point x="795" y="440" type="line"/>
      <point x="761" y="440" type="line"/>
      <point x="744" y="360"/>
      <point x="720" y="340"/>
      <point x="628" y="340" type="curve" smooth="yes"/>
      <point x="278" y="340" type="line"/>
      <point x="253" y="301" type="line"/>
      <point x="620" y="301" type="line" smooth="yes"/>
      <point x="712" y="301"/>
      <point x="729" y="292"/>
      <point x="712" y="212" type="curve"/>
    </contour>
  </outline>
</glyph>
<glyph name="Eth" format="2">
  <advance width="707"/>
  <unicode hex="00D0"/>
  <anchor x="245" y="0" name="bottom"/>
  <anchor x="246" y="0" name="cedilla"/>
  <anchor x="246" y="0" name="ogonek"/>
  <anchor x="389" y="657" name="top"/>
  <outline>
    <contour>
      <point x="246" y="0" type="line" smooth="yes"/>
      <point x="501" y="0"/>
      <point x="685" y="115"/>
      <point x="685" y="398" type="curve" smooth="yes"/>
      <point x="685" y="554"/>
      <point x="591" y="657"/>
      <point x="383" y="657" type="curve" smooth="yes"/>
      <point x="123" y="657" type="line"/>
      <point x="117" y="627" type="line"/>
      <point x="189" y="627"/>
      <point x="209" y="616"/>
      <point x="195" y="543" type="curve"/>
      <point x="108" y="124" type="line" smooth="yes"/>
      <point x="92" y="43"/>
      <point x="74" y="30"/>
      <point x="-2" y="30" type="curve"/>
      <point x="-8" y="0" type="line"/>
    </contour>
    <contour>
      <point x="401" y="314" type="line"/>
      <point x="411" y="357" type="line"/>
      <point x="50" y="357" type="line"/>
      <point x="40" y="314" type="line"/>
    </contour>
    <contour>
      <point x="246" y="39" type="curve" smooth="yes"/>
      <point x="220" y="39"/>
      <point x="200" y="39"/>
      <point x="181" y="42" type="curve"/>
      <point x="299" y="614" type="line"/>
      <point x="317" y="616"/>
      <point x="326" y="617"/>
      <point x="343" y="617" type="curve" smooth="yes"/>
      <point x="540" y="617"/>
      <point x="585" y="511"/>
      <point x="585" y="389" type="curve" smooth="yes"/>
      <point x="585" y="142"/>
      <point x="461" y="39"/>
    </contour>
  </outline>
</glyph>
<glyph name="Oslash" format="2">
  <advance width="707"/>
  <unicode hex="00D8"/>
  <anchor x="304" y="0" name="bottom"/>
  <anchor x="303" y="0" name="cedilla"/>
  <anchor x="364" y="0" name="ogonek"/>
  <anchor x="432" y="657" name="top"/>
  <outline>
    <contour>
      <point x="185" y="38" type="line"/>
      <point x="196" y="49" type="line"/>
      <point x="576" y="576" type="line"/>
      <point x="586" y="586" type="line"/>
      <point x="643" y="660" type="line"/>
      <point x="612" y="683" type="line"/>
      <point x="560" y="616" type="line"/>
      <point x="551" y="607" type="line"/>
      <point x="167" y="77" type="line"/>
      <point x="155" y="64" type="line"/>
      <point x="96" y="-15" type="line"/>
      <point x="130" y="-37" type="line"/>
    </contour>
    <contour>
      <point x="317" y="-12" type="curve" smooth="yes"/>
      <point x="526" y="-12"/>
      <point x="685" y="155"/>
      <point x="685" y="410" type="curve" smooth="yes"/>
      <point x="685" y="565"/>
      <point x="590" y="669"/>
      <point x="427" y="669" type="curve" smooth="yes"/>
      <point x="208" y="669"/>
      <point x="60" y="479"/>
      <point x="60" y="249" type="curve" smooth="yes"/>
      <point x="60" y="85"/>
      <point x="146" y="-12"/>
    </contour>
    <contour>
      <point x="329" y="31" type="curve" smooth="yes"/>
      <point x="209" y="31"/>
      <point x="163" y="107"/>
      <point x="163" y="243" type="curve" smooth="yes"/>
      <point x="163" y="440"/>
      <point x="254" y="626"/>
      <point x="416" y="626" type="curve" smooth="yes"/>
      <point x="534" y="626"/>
      <point x="583" y="538"/>
      <point x="583" y="414" type="curve" smooth="yes"/>
      <point x="583" y="192"/>
      <point x="488" y="31"/>
    </contour>
  </outline>
</glyph>
<glyph name="Thorn" format="2">
  <advance width="571"/>
  <unicode hex="00DE"/>
  <anchor x="189" y="0" name="bottom"/>
  <anchor x="132" y="0" name="cedilla"/>
  <anchor x="123" y="0" name="ogonek"/>
  <anchor x="321" y="657" name="top"/>
  <outline>
    <contour>
      <point x="273" y="0" type="line"/>
      <point x="279" y="30" type="line"/>
      <point x="190" y="30"/>
      <point x="175" y="47"/>
      <point x="193" y="131" type="curve" smooth="yes"/>
      <point x="280" y="541" type="line" smooth="yes"/>
      <point x="293" y="601"/>
      <point x="320" y="627"/>
      <point x="406" y="627" type="curve"/>
      <point x="413" y="657" type="line"/>
      <point x="122" y="657" type="line"/>
      <point x="117" y="627" type="line"/>
      <point x="206" y="627"/>
      <point x="204" y="603"/>
      <point x="188" y="525" type="curve" smooth="yes"/>
      <point x="104" y="131" type="line" smooth="yes"/>
      <point x="85" y="43"/>
      <point x="80" y="30"/>
      <point x="-8" y="30" type="curve"/>
      <point x="-14" y="0" type="line"/>
    </contour>
    <contour>
      <point x="273" y="164" type="curve" smooth="yes"/>
      <point x="404" y="164"/>
      <point x="556" y="218"/>
      <point x="556" y="393" type="curve" smooth="yes"/>
      <point x="556" y="505"/>
      <point x="458" y="530"/>
      <point x="349" y="530" type="curve" smooth="yes"/>
      <point x="311" y="530"/>
      <point x="289" y="526"/>
      <point x="271" y="524" type="curve"/>
      <point x="256" y="489" type="line"/>
      <point x="287" y="492"/>
      <point x="299" y="493"/>
      <point x="319" y="493" type="curve" smooth="yes"/>
      <point x="412" y="493"/>
      <point x="460" y="457"/>
      <point x="460" y="381" type="curve" smooth="yes"/>
      <point x="460" y="260"/>
      <point x="403" y="206"/>
      <point x="259" y="206" type="curve" smooth="yes"/>
      <point x="235" y="206"/>
      <point x="215" y="207"/>
      <point x="203" y="212" type="curve"/>
      <point x="195" y="173" type="line"/>
      <point x="210" y="168"/>
      <point x="233" y="164"/>
    </contour>
  </outline>
</glyph>
<glyph name="germandbls" format="2">
  <advance width="551"/>
  <unicode hex="00DF"/>
  <anchor x="211" y="-220" name="bottom"/>
  <anchor x="211" y="-220" name="cedilla"/>
  <anchor x="211" y="-220" name="ogonek"/>
  <anchor x="329" y="693" name="top"/>
  <outline>
    <contour>
      <point x="-39" y="-225" type="curve" smooth="yes"/>
      <point x="98" y="-225"/>
      <point x="145" y="2"/>
      <point x="160" y="88" type="curve" smooth="yes"/>
      <point x="240" y="538" type="line"/>
      <point x="256" y="621"/>
      <point x="280" y="680"/>
      <point x="354" y="680" type="curve" smooth="yes"/>
      <point x="414" y="680"/>
      <point x="433" y="647"/>
      <point x="433" y="581" type="curve" smooth="yes"/>
      <point x="433" y="495"/>
      <point x="402" y="460"/>
      <point x="292" y="419" type="curve"/>
      <point x="286" y="379" type="line"/>
      <point x="375" y="348"/>
      <point x="421" y="317"/>
      <point x="421" y="205" type="curve" smooth="yes"/>
      <point x="421" y="67"/>
      <point x="373" y="24"/>
      <point x="320" y="24" type="curve" smooth="yes"/>
      <point x="276" y="24"/>
      <point x="307" y="114"/>
      <point x="248" y="114" type="curve" smooth="yes"/>
      <point x="223" y="114"/>
      <point x="204" y="96"/>
      <point x="204" y="69" type="curve" smooth="yes"/>
      <point x="204" y="30"/>
      <point x="235" y="-8"/>
      <point x="299" y="-8" type="curve" smooth="yes"/>
      <point x="407" y="-8"/>
      <point x="514" y="64"/>
      <point x="514" y="217" type="curve" smooth="yes"/>
      <point x="514" y="333"/>
      <point x="410" y="377"/>
      <point x="342" y="405" type="curve"/>
      <point x="342" y="409" type="line"/>
      <point x="475" y="463"/>
      <point x="515" y="519"/>
      <point x="515" y="591" type="curve" smooth="yes"/>
      <point x="515" y="679"/>
      <point x="451" y="709"/>
      <point x="366" y="709" type="curve" smooth="yes"/>
      <point x="220" y="709"/>
      <point x="173" y="615"/>
      <point x="140" y="431" type="curve" smooth="yes"/>
      <point x="70" y="37" type="line" smooth="yes"/>
      <point x="58" y="-32"/>
      <point x="30" y="-193"/>
      <point x="-22" y="-193" type="curve" smooth="yes"/>
      <point x="-60" y="-193"/>
      <point x="-26" y="-104"/>
      <point x="-86" y="-104" type="curve" smooth="yes"/>
      <point x="-112" y="-104"/>
      <point x="-127" y="-126"/>
      <point x="-127" y="-154" type="curve" smooth="yes"/>
      <point x="-127" y="-189"/>
      <point x="-102" y="-225"/>
    </contour>
    <contour>
      <point x="149" y="426" type="line"/>
      <point x="157" y="467" type="line"/>
      <point x="61" y="467" type="line"/>
      <point x="56" y="426" type="line"/>
    </contour>
  </outline>
</glyph>
<glyph name="ae" format="2">
  <advance width="702"/>
  <unicode hex="00E6"/>
  <anchor x="303" y="0" name="bottom"/>
  <anchor x="303" y="0" name="cedilla"/>
  <anchor x="469" y="0" name="ogonek"/>
  <anchor x="460" y="467" name="top"/>
  <outline>
    <contour>
      <point x="144" y="-12" type="curve" smooth="yes"/>
      <point x="224" y="-12"/>
      <point x="288" y="56"/>
      <point x="331" y="125" type="curve"/>
      <point x="352" y="125" type="line"/>
      <point x="439" y="387" type="line"/>
      <point x="414" y="387" type="line"/>
      <point x="433" y="454" type="line"/>
      <point x="429" y="461" type="line"/>
      <point x="402" y="471"/>
      <point x="359" y="478"/>
      <point x="321" y="478" type="curve" smooth="yes"/>
      <point x="158" y="478"/>
      <point x="33" y="329"/>
      <point x="32" y="137" type="curve" smooth="yes"/>
      <point x="31" y="36"/>
      <point x="80" y="-12"/>
    </contour>
    <contour>
      <point x="190" y="54" type="curve" smooth="yes"/>
      <point x="147" y="54"/>
      <point x="120" y="80"/>
      <point x="120" y="168" type="curve" smooth="yes"/>
      <point x="120" y="304"/>
      <point x="170" y="430"/>
      <point x="267" y="430" type="curve" smooth="yes"/>
      <point x="327" y="430"/>
      <point x="366" y="390"/>
      <point x="366" y="386" type="curve"/>
      <point x="359" y="315"/>
      <point x="336" y="231"/>
      <point x="326" y="191" type="curve" smooth="yes"/>
      <point x="308" y="119"/>
      <point x="248" y="54"/>
    </contour>
    <contour>
      <point x="459" y="-12" type="curve" smooth="yes"/>
      <point x="528" y="-12"/>
      <point x="603" y="11"/>
      <point x="667" y="107" type="curve"/>
      <point x="649" y="122" type="line"/>
      <point x="611" y="74"/>
      <point x="567" y="57"/>
      <point x="512" y="57" type="curve" smooth="yes"/>
      <point x="450" y="57"/>
      <point x="412" y="90"/>
      <point x="412" y="189" type="curve" smooth="yes"/>
      <point x="412" y="304"/>
      <point x="492" y="448"/>
      <point x="565" y="448" type="curve" smooth="yes"/>
      <point x="593" y="448"/>
      <point x="605" y="429"/>
      <point x="605" y="392" type="curve" smooth="yes"/>
      <point x="605" y="297"/>
      <point x="519" y="235"/>
      <point x="406" y="231" type="curve"/>
      <point x="405" y="201" type="line"/>
      <point x="518" y="210"/>
      <point x="691" y="256"/>
      <point x="691" y="394" type="curve" smooth="yes"/>
      <point x="691" y="464"/>
      <point x="629" y="479"/>
      <point x="588" y="479" type="curve" smooth="yes"/>
      <point x="524" y="479"/>
      <point x="474" y="453"/>
      <point x="408" y="369" type="curve"/>
      <point x="335" y="141" type="line"/>
      <point x="336" y="68"/>
      <point x="361" y="-12"/>
    </contour>
  </outline>
</glyph>
<glyph name="icircumflex" format="2">
  <advance width="280"/>
  <unicode hex="00EE"/>
  <anchor x="112" y="0" name="bottom"/>
  <anchor x="113" y="0" name="cedilla"/>
  <anchor x="114" y="0" name="ogonek"/>
  <anchor x="182" y="674" name="top.mkmk"/>
  <outline>
    <contour>
      <point x="115" y="-9" type="curve" smooth="yes"/>
      <point x="181" y="-9"/>
      <point x="220" y="47"/>
      <point x="255" y="96" type="curve"/>
      <point x="235" y="111" type="line"/>
      <point x="219" y="93"/>
      <point x="193" y="59"/>
      <point x="159" y="59" type="curve" smooth="yes"/>
      <point x="147" y="59"/>
      <point x="141" y="65"/>
      <point x="141" y="78" type="curve" smooth="yes"/>
      <point x="141" y="92"/>
      <point x="146" y="120"/>
      <point x="146" y="120" type="curve"/>
      <point x="218" y="476" type="line"/>
      <point x="196" y="476" type="line"/>
      <point x="57" y="465" type="line"/>
      <point x="57" y="438" type="line"/>
      <point x="57" y="438"/>
      <point x="74" y="440"/>
      <point x="91" y="440" type="curve" smooth="yes"/>
      <point x="118" y="440"/>
      <point x="123" y="424"/>
      <point x="123" y="411" type="curve" smooth="yes"/>
      <point x="123" y="394"/>
      <point x="120" y="380"/>
      <point x="120" y="380" type="curve"/>
      <point x="69" y="142" type="line" smooth="yes"/>
      <point x="56" y="83"/>
      <point x="52" y="61"/>
      <point x="52" y="44" type="curve" smooth="yes"/>
      <point x="52" y="9"/>
      <point x="75" y="-9"/>
    </contour>
    <contour>
      <point x="67" y="521" type="line"/>
      <point x="177" y="619" type="line"/>
      <point x="253" y="521" type="line"/>
      <point x="291" y="521" type="line"/>
      <point x="221" y="674" type="line"/>
      <point x="155" y="674" type="line"/>
      <point x="28" y="521" type="line"/>
    </contour>
  </outline>
</glyph>
<glyph name="idieresis" format="2">
  <advance width="280"/>
  <unicode hex="00EF"/>
  <anchor x="112" y="0" name="bottom"/>
  <anchor x="113" y="0" name="cedilla"/>
  <anchor x="114" y="0" name="ogonek"/>
  <anchor x="179" y="664" name="top.mkmk"/>
  <outline>
    <contour>
      <point x="115" y="-9" type="curve" smooth="yes"/>
      <point x="181" y="-9"/>
      <point x="220" y="47"/>
      <point x="255" y="96" type="curve"/>
      <point x="235" y="111" type="line"/>
      <point x="219" y="93"/>
      <point x="193" y="59"/>
      <point x="159" y="59" type="curve" smooth="yes"/>
      <point x="147" y="59"/>
      <point x="141" y="65"/>
      <point x="141" y="78" type="curve" smooth="yes"/>
      <point x="141" y="92"/>
      <point x="146" y="120"/>
      <point x="146" y="120" type="curve"/>
      <point x="218" y="476" type="line"/>
      <point x="196" y="476" type="line"/>
      <point x="57" y="465" type="line"/>
      <point x="57" y="438" type="line"/>
      <point x="57" y="438"/>
      <point x="74" y="440"/>
      <point x="91" y="440" type="curve" smooth="yes"/>
      <point x="118" y="440"/>
      <point x="123" y="424"/>
      <point x="123" y="411" type="curve" smooth="yes"/>
      <point x="123" y="394"/>
      <point x="120" y="380"/>
      <point x="120" y="380" type="curve"/>
      <point x="69" y="142" type="line" smooth="yes"/>
      <point x="56" y="83"/>
      <point x="52" y="61"/>
      <point x="52" y="44" type="curve" smooth="yes"/>
      <point x="52" y="9"/>
      <point x="75" y="-9"/>
    </contour>
    <contour>
      <point x="80" y="556" type="curve" smooth="yes"/>
      <point x="109" y="556"/>
      <point x="134" y="576"/>
      <point x="134" y="610" type="curve" smooth="yes"/>
      <point x="134" y="642"/>
      <point x="115" y="664"/>
      <point x="82" y="664" type="curve" smooth="yes"/>
      <point x="50" y="664"/>
      <point x="28" y="643"/>
      <point x="28" y="610" type="curve" smooth="yes"/>
      <point x="28" y="575"/>
      <point x="50" y="556"/>
    </contour>
    <contour>
      <point x="270" y="556" type="curve" smooth="yes"/>
      <point x="299" y="556"/>
      <point x="324" y="576"/>
      <point x="324" y="610" type="curve" smooth="yes"/>
      <point x="324" y="642"/>
      <point x="305" y="664"/>
      <point x="272" y="664" type="curve" smooth="yes"/>
      <point x="240" y="664"/>
      <point x="218" y="643"/>
      <point x="218" y="610" type="curve" smooth="yes"/>
      <point x="218" y="575"/>
      <point x="240" y="556"/>
    </contour>
  </outline>
</glyph>
<glyph name="eth" format="2">
  <advance width="495"/>
  <unicode hex="00F0"/>
  <anchor x="199" y="0" name="bottom"/>
  <anchor x="199" y="0" name="cedilla"/>
  <anchor x="200" y="0" name="ogonek"/>
  <anchor x="307" y="693" name="top"/>
  <outline>
    <contour>
      <point x="210" y="-10" type="curve" smooth="yes"/>
      <point x="410" y="-10"/>
      <point x="462" y="237"/>
      <point x="462" y="382" type="curve" smooth="yes"/>
      <point x="462" y="591"/>
      <point x="355" y="704"/>
      <point x="241" y="704" type="curve" smooth="yes"/>
      <point x="201" y="704"/>
      <point x="158" y="690"/>
      <point x="117" y="661" type="curve"/>
      <point x="130" y="641" type="line"/>
      <point x="144" y="650"/>
      <point x="176" y="662"/>
      <point x="207" y="662" type="curve" smooth="yes"/>
      <point x="319" y="662"/>
      <point x="373" y="509"/>
      <point x="373" y="432" type="curve"/>
      <point x="369" y="430" type="line"/>
      <point x="343" y="456"/>
      <point x="305" y="469"/>
      <point x="265" y="469" type="curve" smooth="yes"/>
      <point x="144" y="469"/>
      <point x="36" y="347"/>
      <point x="36" y="188" type="curve" smooth="yes"/>
      <point x="36" y="67"/>
      <point x="99" y="-10"/>
    </contour>
    <contour>
      <point x="213" y="25" type="curve" smooth="yes"/>
      <point x="142" y="25"/>
      <point x="123" y="102"/>
      <point x="123" y="177" type="curve" smooth="yes"/>
      <point x="123" y="296"/>
      <point x="170" y="435"/>
      <point x="272" y="435" type="curve" smooth="yes"/>
      <point x="343" y="435"/>
      <point x="365" y="368"/>
      <point x="365" y="292" type="curve" smooth="yes"/>
      <point x="365" y="173"/>
      <point x="312" y="25"/>
    </contour>
    <contour>
      <point x="483" y="637" type="line"/>
      <point x="469" y="675" type="line"/>
      <point x="210" y="569" type="line"/>
      <point x="223" y="531" type="line"/>
    </contour>
  </outline>
</glyph>
<glyph name="divide" format="2">
  <advance width="577"/>
  <unicode hex="00F7"/>
  <outline>
    <contour>
      <point x="547" y="225" type="line"/>
      <point x="547" y="293" type="line"/>
      <point x="30" y="293" type="line"/>
      <point x="30" y="225" type="line"/>
    </contour>
    <contour>
      <point x="289" y="-10" type="curve" smooth="yes"/>
      <point x="319" y="-10"/>
      <point x="346" y="15"/>
      <point x="346" y="45" type="curve" smooth="yes"/>
      <point x="346" y="76"/>
      <point x="319" y="103"/>
      <point x="290" y="103" type="curve" smooth="yes"/>
      <point x="258" y="103"/>
      <point x="232" y="78"/>
      <point x="232" y="46" type="curve" smooth="yes"/>
      <point x="232" y="14"/>
      <point x="257" y="-10"/>
    </contour>
    <contour>
      <point x="289" y="414" type="curve" smooth="yes"/>
      <point x="319" y="414"/>
      <point x="346" y="440"/>
      <point x="346" y="470" type="curve" smooth="yes"/>
      <point x="346" y="500"/>
      <point x="319" y="528"/>
      <point x="290" y="528" type="curve" smooth="yes"/>
      <point x="258" y="528"/>
      <point x="232" y="503"/>
      <point x="232" y="471" type="curve" smooth="yes"/>
      <point x="232" y="439"/>
      <point x="257" y="414"/>
    </contour>
  </outline>
</glyph>
<glyph name="oslash" format="2">
  <advance width="490"/>
  <unicode hex="00F8"/>
  <anchor x="199" y="0" name="bottom"/>
  <anchor x="202" y="0" name="cedilla"/>
  <anchor x="228" y="0" name="ogonek"/>
  <anchor x="266" y="467" name="top"/>
  <outline>
    <contour>
      <point x="459" y="456" type="line"/>
      <point x="433" y="477" type="line"/>
      <point x="27" y="0" type="line"/>
      <point x="52" y="-21" type="line"/>
    </contour>
    <contour>
      <point x="206" y="-10" type="curve" smooth="yes"/>
      <point x="345" y="-10"/>
      <point x="453" y="125"/>
      <point x="453" y="284" type="curve" smooth="yes"/>
      <point x="453" y="395"/>
      <point x="394" y="479"/>
      <point x="281" y="479" type="curve" smooth="yes"/>
      <point x="139" y="479"/>
      <point x="35" y="340"/>
      <point x="35" y="180" type="curve" smooth="yes"/>
      <point x="35" y="69"/>
      <point x="91" y="-10"/>
    </contour>
    <contour>
      <point x="216" y="25" type="curve" smooth="yes"/>
      <point x="141" y="25"/>
      <point x="123" y="90"/>
      <point x="123" y="169" type="curve" smooth="yes"/>
      <point x="123" y="296"/>
      <point x="170" y="445"/>
      <point x="274" y="445" type="curve" smooth="yes"/>
      <point x="342" y="445"/>
      <point x="363" y="377"/>
      <point x="363" y="297" type="curve" smooth="yes"/>
      <point x="363" y="178"/>
      <point x="312" y="25"/>
    </contour>
  </outline>
</glyph>
<glyph name="thorn" format="2">
  <advance width="497"/>
  <unicode hex="00FE"/>
  <anchor x="84" y="-220" name="bottom"/>
  <anchor x="84" y="-220" name="cedilla"/>
  <anchor x="84" y="-220" name="ogonek"/>
  <anchor x="321" y="693" name="top"/>
  <outline>
    <contour>
      <point x="180" y="-220" type="line"/>
      <point x="187" y="-193" type="line"/>
      <point x="106" y="-193"/>
      <point x="86" y="-167"/>
      <point x="86" y="-140" type="curve" smooth="yes"/>
      <point x="86" y="-131"/>
      <point x="88" y="-111"/>
      <point x="90" y="-101" type="curve" smooth="yes"/>
      <point x="178" y="332" type="line"/>
      <point x="186" y="386" type="line"/>
      <point x="204" y="476" type="line"/>
      <point x="253" y="705" type="line"/>
      <point x="235" y="705" type="line"/>
      <point x="94" y="694" type="line"/>
      <point x="94" y="668" type="line"/>
      <point x="94" y="668"/>
      <point x="112" y="670"/>
      <point x="124" y="670" type="curve" smooth="yes"/>
      <point x="151" y="670"/>
      <point x="159" y="660"/>
      <point x="159" y="638" type="curve" smooth="yes"/>
      <point x="159" y="625"/>
      <point x="156" y="608"/>
      <point x="156" y="608" type="curve"/>
      <point x="-16" y="-220" type="line"/>
    </contour>
    <contour>
      <point x="210" y="-11" type="curve" smooth="yes"/>
      <point x="345" y="-11"/>
      <point x="464" y="123"/>
      <point x="464" y="304" type="curve" smooth="yes"/>
      <point x="464" y="424"/>
      <point x="404" y="479"/>
      <point x="328" y="479" type="curve" smooth="yes"/>
      <point x="279" y="479"/>
      <point x="238" y="453"/>
      <point x="194" y="402" type="curve"/>
      <point x="173" y="402" type="line"/>
      <point x="170" y="303" type="line"/>
      <point x="187" y="351"/>
      <point x="231" y="423"/>
      <point x="298" y="423" type="curve" smooth="yes"/>
      <point x="341" y="423"/>
      <point x="376" y="390"/>
      <point x="376" y="300" type="curve" smooth="yes"/>
      <point x="376" y="146"/>
      <point x="320" y="32"/>
      <point x="211" y="32" type="curve" smooth="yes"/>
      <point x="166" y="32"/>
      <point x="136" y="54"/>
      <point x="120" y="70" type="curve"/>
      <point x="107" y="19" type="line"/>
      <point x="127" y="8"/>
      <point x="157" y="-11"/>
    </contour>
  </outline>
</glyph>
<glyph name="Aogonek" format="2">
  <advance width="681"/>
  <unicode hex="0104"/>
  <anchor x="225" y="-250" name="bottom.mkmk"/>
  <anchor x="225" y="-250" name="cedilla"/>
  <anchor x="225" y="-250" name="ogonek"/>
  <anchor x="451" y="657" name="top"/>
  <outline>
    <contour>
      <point x="376" y="-216" type="curve" smooth="yes"/>
      <point x="433" y="-216"/>
      <point x="465" y="-186"/>
      <point x="500" y="-151" type="curve"/>
      <point x="486" y="-134" type="line"/>
      <point x="458" y="-155"/>
      <point x="436" y="-165"/>
      <point x="407" y="-165" type="curve" smooth="yes"/>
      <point x="369" y="-165"/>
      <point x="351" y="-147"/>
      <point x="351" y="-113" type="curve" smooth="yes"/>
      <point x="351" y="-64"/>
      <point x="390" y="0"/>
      <point x="477" y="0" type="curve" smooth="yes"/>
      <point x="642" y="0" type="line"/>
      <point x="648" y="30" type="line"/>
      <point x="588" y="30"/>
      <point x="571" y="52"/>
      <point x="561" y="119" type="curve" smooth="yes"/>
      <point x="482" y="661" type="line"/>
      <point x="440" y="661" type="line"/>
      <point x="94" y="160" type="line" smooth="yes"/>
      <point x="16" y="48"/>
      <point x="0" y="30"/>
      <point x="-55" y="30" type="curve"/>
      <point x="-62" y="0" type="line"/>
      <point x="147" y="0" type="line"/>
      <point x="154" y="30" type="line"/>
      <point x="110" y="30"/>
      <point x="97" y="35"/>
      <point x="97" y="56" type="curve" smooth="yes"/>
      <point x="97" y="75"/>
      <point x="108" y="93"/>
      <point x="121" y="113" type="curve"/>
      <point x="197" y="229" type="line"/>
      <point x="209" y="249" type="line"/>
      <point x="409" y="548" type="line"/>
      <point x="412" y="548" type="line"/>
      <point x="446" y="249" type="line"/>
      <point x="448" y="229" type="line"/>
      <point x="459" y="129" type="line"/>
      <point x="460" y="117"/>
      <point x="461" y="101"/>
      <point x="461" y="91" type="curve" smooth="yes"/>
      <point x="461" y="41"/>
      <point x="441" y="33"/>
      <point x="417" y="23" type="curve" smooth="yes"/>
      <point x="350" y="-5"/>
      <point x="283" y="-56"/>
      <point x="283" y="-131" type="curve" smooth="yes"/>
      <point x="283" y="-187"/>
      <point x="320" y="-216"/>
    </contour>
    <contour>
      <point x="459" y="219" type="line"/>
      <point x="455" y="259" type="line"/>
      <point x="203" y="259" type="line"/>
      <point x="179" y="219" type="line"/>
    </contour>
  </outline>
</glyph>
<glyph name="aogonek" format="2">
  <advance width="533"/>
  <unicode hex="0105"/>
  <anchor x="162" y="-250" name="bottom.mkmk"/>
  <anchor x="161" y="-250" name="cedilla"/>
  <anchor x="161" y="-250" name="ogonek"/>
  <anchor x="294" y="467" name="top"/>
  <outline>
    <contour>
      <point x="356" y="-216" type="curve" smooth="yes"/>
      <point x="415" y="-216"/>
      <point x="444" y="-190"/>
      <point x="483" y="-151" type="curve"/>
      <point x="469" y="-134" type="line"/>
      <point x="439" y="-156"/>
      <point x="422" y="-165"/>
      <point x="384" y="-165" type="curve" smooth="yes"/>
      <point x="353" y="-165"/>
      <point x="334" y="-147"/>
      <point x="334" y="-110" type="curve" smooth="yes"/>
      <point x="334" y="-56"/>
      <point x="379" y="-23"/>
      <point x="415" y="3" type="curve"/>
      <point x="449" y="20"/>
      <point x="476" y="55"/>
      <point x="504" y="97" type="curve"/>
      <point x="484" y="112" type="line"/>
      <point x="471" y="95"/>
      <point x="443" y="60"/>
      <point x="411" y="60" type="curve" smooth="yes"/>
      <point x="396" y="60"/>
      <point x="392" y="68"/>
      <point x="392" y="81" type="curve" smooth="yes"/>
      <point x="392" y="96"/>
      <point x="397" y="118"/>
      <point x="397" y="118" type="curve"/>
      <point x="471" y="472" type="line"/>
      <point x="420" y="472" type="line"/>
      <point x="385" y="426" type="line"/>
      <point x="381" y="426" type="line"/>
      <point x="364" y="451"/>
      <point x="334" y="479"/>
      <point x="284" y="479" type="curve" smooth="yes"/>
      <point x="148" y="479"/>
      <point x="31" y="329"/>
      <point x="30" y="137" type="curve" smooth="yes"/>
      <point x="29" y="36"/>
      <point x="79" y="-12"/>
      <point x="142" y="-12" type="curve" smooth="yes"/>
      <point x="198" y="-12"/>
      <point x="258" y="21"/>
      <point x="308" y="85" type="curve"/>
      <point x="314" y="85" type="line"/>
      <point x="312" y="67"/>
      <point x="308" y="54"/>
      <point x="308" y="35" type="curve" smooth="yes"/>
      <point x="308" y="9"/>
      <point x="324" y="-5"/>
      <point x="351" y="-8" type="curve"/>
      <point x="351" y="-11" type="line"/>
      <point x="314" y="-40"/>
      <point x="266" y="-83"/>
      <point x="266" y="-134" type="curve" smooth="yes"/>
      <point x="266" y="-184"/>
      <point x="303" y="-216"/>
    </contour>
    <contour>
      <point x="189" y="54" type="curve" smooth="yes"/>
      <point x="146" y="54"/>
      <point x="118" y="80"/>
      <point x="118" y="168" type="curve" smooth="yes"/>
      <point x="118" y="304"/>
      <point x="182" y="441"/>
      <point x="276" y="441" type="curve" smooth="yes"/>
      <point x="329" y="441"/>
      <point x="358" y="395"/>
      <point x="358" y="347" type="curve" smooth="yes"/>
      <point x="358" y="312"/>
      <point x="337" y="220"/>
      <point x="327" y="180" type="curve" smooth="yes"/>
      <point x="309" y="108"/>
      <point x="248" y="54"/>
    </contour>
  </outline>
</glyph>
<glyph name="dcroat" format="2">
  <advance width="540"/>
  <unicode hex="0111"/>
  <anchor x="220" y="0" name="bottom"/>
  <anchor x="220" y="0" name="cedilla"/>
  <anchor x="344" y="0" name="ogonek"/>
  <anchor x="339" y="693" name="top"/>
  <outline>
    <contour>
      <point x="161" y="-12" type="curve" smooth="yes"/>
      <point x="220" y="-12"/>
      <point x="269" y="24"/>
      <point x="318" y="85" type="curve"/>
      <point x="326" y="85" type="line"/>
      <point x="324" y="73"/>
      <point x="321" y="54"/>
      <point x="321" y="42" type="curve" smooth="yes"/>
      <point x="321" y="11"/>
      <point x="341" y="-10"/>
      <point x="380" y="-10" type="curve" smooth="yes"/>
      <point x="446" y="-10"/>
      <point x="483" y="48"/>
      <point x="517" y="97" type="curve"/>
      <point x="497" y="112" type="line"/>
      <point x="483" y="93"/>
      <point x="456" y="60"/>
      <point x="424" y="60" type="curve" smooth="yes"/>
      <point x="411" y="60"/>
      <point x="405" y="65"/>
      <point x="405" y="79" type="curve" smooth="yes"/>
      <point x="405" y="92"/>
      <point x="410" y="121"/>
      <point x="410" y="121" type="curve"/>
      <point x="516" y="705" type="line"/>
      <point x="494" y="705" type="line"/>
      <point x="359" y="694" type="line"/>
      <point x="359" y="668" type="line"/>
      <point x="359" y="668"/>
      <point x="377" y="670"/>
      <point x="389" y="670" type="curve" smooth="yes"/>
      <point x="419" y="670"/>
      <point x="424" y="656"/>
      <point x="424" y="639" type="curve" smooth="yes"/>
      <point x="424" y="625"/>
      <point x="421" y="607"/>
      <point x="421" y="607" type="curve"/>
      <point x="388" y="439" type="line"/>
      <point x="385" y="439" type="line"/>
      <point x="362" y="464"/>
      <point x="330" y="479"/>
      <point x="286" y="479" type="curve" smooth="yes"/>
      <point x="148" y="479"/>
      <point x="34" y="333"/>
      <point x="34" y="161" type="curve" smooth="yes"/>
      <point x="34" y="40"/>
      <point x="90" y="-12"/>
    </contour>
    <contour>
      <point x="196" y="54" type="curve" smooth="yes"/>
      <point x="153" y="54"/>
      <point x="123" y="80"/>
      <point x="123" y="171" type="curve" smooth="yes"/>
      <point x="123" y="301"/>
      <point x="185" y="441"/>
      <point x="281" y="441" type="curve" smooth="yes"/>
      <point x="330" y="441"/>
      <point x="364" y="404"/>
      <point x="364" y="347" type="curve" smooth="yes"/>
      <point x="364" y="318"/>
      <point x="355" y="254"/>
      <point x="336" y="176" type="curve" smooth="yes"/>
      <point x="320" y="114"/>
      <point x="262" y="54"/>
    </contour>
    <contour>
      <point x="558" y="541" type="line"/>
      <point x="566" y="581" type="line"/>
      <point x="262" y="581" type="line"/>
      <point x="254" y="541" type="line"/>
    </contour>
  </outline>
</glyph>
<glyph name="Eogonek" format="2">
  <advance width="614"/>
  <unicode hex="0118"/>
  <anchor x="215" y="-250" name="bottom.mkmk"/>
  <anchor x="215" y="-250" name="cedilla"/>
  <anchor x="215" y="-250" name="ogonek"/>
  <anchor x="387" y="657" name="top"/>
  <outline>
    <contour>
      <point x="506" y="0" type="line"/>
      <point x="560" y="186" type="line"/>
      <point x="528" y="186" type="line"/>
      <point x="464" y="65"/>
      <point x="450" y="38"/>
      <point x="296" y="39" type="curve"/>
      <point x="175" y="39" type="line"/>
      <point x="293" y="618" type="line"/>
      <point x="432" y="618" type="line" smooth="yes"/>
      <point x="555" y="618"/>
      <point x="577" y="593"/>
      <point x="572" y="493" type="curve"/>
      <point x="603" y="493" type="line"/>
      <point x="630" y="657" type="line"/>
      <point x="118" y="657" type="line"/>
      <point x="112" y="627" type="line"/>
      <point x="194" y="627"/>
      <point x="204" y="611"/>
      <point x="188" y="535" type="curve" smooth="yes"/>
      <point x="100" y="112" type="line" smooth="yes"/>
      <point x="86" y="42"/>
      <point x="62" y="30"/>
      <point x="-7" y="30" type="curve"/>
      <point x="-13" y="0" type="line"/>
    </contour>
    <contour>
      <point x="362" y="-216" type="curve" smooth="yes"/>
      <point x="421" y="-216"/>
      <point x="450" y="-190"/>
      <point x="489" y="-151" type="curve"/>
      <point x="475" y="-134" type="line"/>
      <point x="445" y="-156"/>
      <point x="428" y="-165"/>
      <point x="390" y="-165" type="curve" smooth="yes"/>
      <point x="359" y="-165"/>
      <point x="340" y="-147"/>
      <point x="340" y="-110" type="curve" smooth="yes"/>
      <point x="340" y="-54"/>
      <point x="388" y="-20"/>
      <point x="425" y="6" type="curve"/>
      <point x="370" y="12" type="line"/>
      <point x="370" y="-2" type="line"/>
      <point x="332" y="-30"/>
      <point x="272" y="-77"/>
      <point x="272" y="-134" type="curve" smooth="yes"/>
      <point x="272" y="-184"/>
      <point x="309" y="-216"/>
    </contour>
    <contour>
      <point x="467" y="226" type="line"/>
      <point x="514" y="458" type="line"/>
      <point x="482" y="458" type="line"/>
      <point x="466" y="377"/>
      <point x="442" y="358"/>
      <point x="350" y="358" type="curve" smooth="yes"/>
      <point x="229" y="358" type="line"/>
      <point x="222" y="320" type="line"/>
      <point x="342" y="320" type="line" smooth="yes"/>
      <point x="434" y="320"/>
      <point x="452" y="309"/>
      <point x="436" y="226" type="curve"/>
    </contour>
  </outline>
</glyph>
<glyph name="eogonek" format="2">
  <advance width="412"/>
  <unicode hex="0119"/>
  <anchor x="118" y="-250" name="bottom.mkmk"/>
  <anchor x="150" y="-250" name="cedilla"/>
  <anchor x="151" y="-250" name="ogonek"/>
  <anchor x="279" y="467" name="top"/>
  <outline>
    <contour>
      <point x="195" y="-216" type="curve" smooth="yes"/>
      <point x="253" y="-216"/>
      <point x="286" y="-184"/>
      <point x="319" y="-151" type="curve"/>
      <point x="305" y="-134" type="line"/>
      <point x="282" y="-151"/>
      <point x="260" y="-165"/>
      <point x="226" y="-165" type="curve" smooth="yes"/>
      <point x="189" y="-165"/>
      <point x="170" y="-149"/>
      <point x="170" y="-112" type="curve" smooth="yes"/>
      <point x="170" y="-64"/>
      <point x="202" y="-34"/>
      <point x="256" y="4" type="curve"/>
      <point x="296" y="20"/>
      <point x="334" y="51"/>
      <point x="372" y="107" type="curve"/>
      <point x="354" y="122" type="line"/>
      <point x="315" y="74"/>
      <point x="269" y="57"/>
      <point x="219" y="57" type="curve" smooth="yes"/>
      <point x="152" y="57"/>
      <point x="116" y="88"/>
      <point x="116" y="189" type="curve" smooth="yes"/>
      <point x="116" y="307"/>
      <point x="199" y="448"/>
      <point x="273" y="448" type="curve" smooth="yes"/>
      <point x="303" y="448"/>
      <point x="315" y="429"/>
      <point x="315" y="393" type="curve" smooth="yes"/>
      <point x="315" y="295"/>
      <point x="225" y="235"/>
      <point x="109" y="231" type="curve"/>
      <point x="109" y="202" type="line"/>
      <point x="226" y="209"/>
      <point x="401" y="261"/>
      <point x="401" y="389" type="curve" smooth="yes"/>
      <point x="401" y="467"/>
      <point x="337" y="479"/>
      <point x="294" y="479" type="curve" smooth="yes"/>
      <point x="132" y="479"/>
      <point x="32" y="307"/>
      <point x="32" y="163" type="curve" smooth="yes"/>
      <point x="32" y="71"/>
      <point x="73" y="-11"/>
      <point x="170" y="-11" type="curve" smooth="yes"/>
      <point x="184" y="-11"/>
      <point x="212" y="-7"/>
      <point x="226" y="-4" type="curve"/>
      <point x="185" y="31" type="line"/>
      <point x="185" y="-14" type="line"/>
      <point x="149" y="-43"/>
      <point x="102" y="-83"/>
      <point x="102" y="-136" type="curve" smooth="yes"/>
      <point x="102" y="-181"/>
      <point x="135" y="-216"/>
    </contour>
  </outline>
</glyph>
<glyph name="Hbar" format="2">
  <advance width="773"/>
  <unicode hex="0126"/>
  <anchor x="338" y="0" name="bottom"/>
  <anchor x="108" y="0" name="cedilla"/>
  <anchor x="531" y="0" name="ogonek"/>
  <anchor x="467" y="657" name="top"/>
  <outline>
    <contour>
      <point x="262" y="0" type="line"/>
      <point x="268" y="30" type="line"/>
      <point x="210" y="30"/>
      <point x="191" y="36"/>
      <point x="191" y="71" type="curve"/>
      <point x="190" y="85"/>
      <point x="195" y="105"/>
      <point x="200" y="131" type="curve"/>
      <point x="280" y="525" type="line"/>
      <point x="298" y="603"/>
      <point x="307" y="627"/>
      <point x="402" y="627" type="curve"/>
      <point x="407" y="657" type="line"/>
      <point x="129" y="657" type="line"/>
      <point x="123" y="627" type="line"/>
      <point x="182" y="627"/>
      <point x="200" y="617"/>
      <point x="200" y="585" type="curve" smooth="yes"/>
      <point x="200" y="570"/>
      <point x="196" y="550"/>
      <point x="191" y="525" type="curve"/>
      <point x="109" y="131" type="line"/>
      <point x="90" y="42"/>
      <point x="76" y="30"/>
      <point x="-3" y="30" type="curve"/>
      <point x="-8" y="0" type="line"/>
    </contour>
    <contour>
      <point x="577" y="318" type="line"/>
      <point x="585" y="357" type="line"/>
      <point x="235" y="357" type="line"/>
      <point x="228" y="318" type="line"/>
    </contour>
    <contour>
      <point x="787" y="456" type="line"/>
      <point x="795" y="495" type="line"/>
      <point x="89" y="495" type="line"/>
      <point x="81" y="456" type="line"/>
    </contour>
    <contour>
      <point x="684" y="0" type="line"/>
      <point x="691" y="30" type="line"/>
      <point x="630" y="30"/>
      <point x="610" y="37"/>
      <point x="610" y="73" type="curve" smooth="yes"/>
      <point x="610" y="87"/>
      <point x="614" y="106"/>
      <point x="619" y="131" type="curve" smooth="yes"/>
      <point x="700" y="525" type="line" smooth="yes"/>
      <point x="716" y="604"/>
      <point x="725" y="627"/>
      <point x="813" y="627" type="curve"/>
      <point x="818" y="657" type="line"/>
      <point x="548" y="657" type="line"/>
      <point x="542" y="627" type="line"/>
      <point x="602" y="627"/>
      <point x="620" y="616"/>
      <point x="620" y="585" type="curve"/>
      <point x="619" y="570"/>
      <point x="616" y="550"/>
      <point x="610" y="525" type="curve"/>
      <point x="528" y="131" type="line"/>
      <point x="510" y="44"/>
      <point x="501" y="30"/>
      <point x="419" y="30" type="curve"/>
      <point x="414" y="0" type="line"/>
    </contour>
  </outline>
</glyph>
<glyph name="ibreve" format="2">
  <advance width="280"/>
  <unicode hex="012D"/>
  <anchor x="112" y="0" name="bottom"/>
  <anchor x="113" y="0" name="cedilla"/>
  <anchor x="114" y="0" name="ogonek"/>
  <anchor x="184" y="683" name="top.mkmk"/>
  <outline>
    <contour>
      <point x="115" y="-9" type="curve" smooth="yes"/>
      <point x="181" y="-9"/>
      <point x="220" y="47"/>
      <point x="255" y="96" type="curve"/>
      <point x="235" y="111" type="line"/>
      <point x="219" y="93"/>
      <point x="193" y="59"/>
      <point x="159" y="59" type="curve" smooth="yes"/>
      <point x="147" y="59"/>
      <point x="141" y="65"/>
      <point x="141" y="78" type="curve" smooth="yes"/>
      <point x="141" y="92"/>
      <point x="146" y="120"/>
      <point x="146" y="120" type="curve"/>
      <point x="218" y="476" type="line"/>
      <point x="196" y="476" type="line"/>
      <point x="57" y="465" type="line"/>
      <point x="57" y="438" type="line"/>
      <point x="57" y="438"/>
      <point x="74" y="440"/>
      <point x="91" y="440" type="curve" smooth="yes"/>
      <point x="118" y="440"/>
      <point x="123" y="424"/>
      <point x="123" y="411" type="curve" smooth="yes"/>
      <point x="123" y="394"/>
      <point x="120" y="380"/>
      <point x="120" y="380" type="curve"/>
      <point x="69" y="142" type="line" smooth="yes"/>
      <point x="56" y="83"/>
      <point x="52" y="61"/>
      <point x="52" y="44" type="curve" smooth="yes"/>
      <point x="52" y="9"/>
      <point x="75" y="-9"/>
    </contour>
    <contour>
      <point x="165" y="529" type="curve" smooth="yes"/>
      <point x="250" y="529"/>
      <point x="298" y="577"/>
      <point x="328" y="683" type="curve"/>
      <point x="298" y="683" type="line"/>
      <point x="262" y="606"/>
      <point x="237" y="592"/>
      <point x="177" y="592" type="curve" smooth="yes"/>
      <point x="117" y="592"/>
      <point x="91" y="606"/>
      <point x="87" y="683" type="curve"/>
      <point x="57" y="683" type="line"/>
      <point x="54" y="667"/>
      <point x="53" y="652"/>
      <point x="53" y="638" type="curve" smooth="yes"/>
      <point x="53" y="563"/>
      <point x="92" y="529"/>
    </contour>
  </outline>
</glyph>
<glyph name="Iogonek" format="2">
  <advance width="343"/>
  <unicode hex="012E"/>
  <anchor x="65" y="-250" name="bottom.mkmk"/>
  <anchor x="65" y="-250" name="cedilla"/>
  <anchor x="65" y="-250" name="ogonek"/>
  <anchor x="252" y="657" name="top"/>
  <outline>
    <contour>
      <point x="260" y="0" type="line"/>
      <point x="266" y="30" type="line"/>
      <point x="203" y="30"/>
      <point x="186" y="37"/>
      <point x="186" y="74" type="curve" smooth="yes"/>
      <point x="186" y="88"/>
      <point x="189" y="106"/>
      <point x="193" y="127" type="curve" smooth="yes"/>
      <point x="275" y="525" type="line"/>
      <point x="290" y="603"/>
      <point x="300" y="627"/>
      <point x="389" y="627" type="curve"/>
      <point x="395" y="657" type="line"/>
      <point x="118" y="657" type="line"/>
      <point x="112" y="627" type="line"/>
      <point x="176" y="627"/>
      <point x="195" y="615"/>
      <point x="195" y="582" type="curve" smooth="yes"/>
      <point x="195" y="567"/>
      <point x="191" y="549"/>
      <point x="186" y="525" type="curve"/>
      <point x="104" y="131" type="line" smooth="yes"/>
      <point x="86" y="43"/>
      <point x="74" y="30"/>
      <point x="-7" y="30" type="curve"/>
      <point x="-13" y="0" type="line"/>
    </contour>
    <contour>
      <point x="98" y="-216" type="curve" smooth="yes"/>
      <point x="157" y="-216"/>
      <point x="186" y="-190"/>
      <point x="225" y="-151" type="curve"/>
      <point x="211" y="-134" type="line"/>
      <point x="181" y="-156"/>
      <point x="164" y="-165"/>
      <point x="126" y="-165" type="curve" smooth="yes"/>
      <point x="95" y="-165"/>
      <point x="76" y="-147"/>
      <point x="76" y="-110" type="curve" smooth="yes"/>
      <point x="76" y="-54"/>
      <point x="124" y="-20"/>
      <point x="161" y="6" type="curve"/>
      <point x="106" y="12" type="line"/>
      <point x="106" y="-3" type="line"/>
      <point x="68" y="-31"/>
      <point x="8" y="-77"/>
      <point x="8" y="-134" type="curve" smooth="yes"/>
      <point x="8" y="-184"/>
      <point x="45" y="-216"/>
    </contour>
  </outline>
</glyph>
<glyph name="iogonek" format="2">
  <advance width="279"/>
  <unicode hex="012F"/>
  <anchor x="75" y="-250" name="bottom.mkmk"/>
  <anchor x="75" y="-250" name="cedilla"/>
  <anchor x="75" y="-250" name="ogonek"/>
  <anchor x="191" y="665" name="top.mkmk"/>
  <outline>
    <contour>
      <point x="106" y="-216" type="curve" smooth="yes"/>
      <point x="165" y="-216"/>
      <point x="194" y="-190"/>
      <point x="233" y="-151" type="curve"/>
      <point x="219" y="-134" type="line"/>
      <point x="189" y="-156"/>
      <point x="172" y="-165"/>
      <point x="134" y="-165" type="curve" smooth="yes"/>
      <point x="103" y="-165"/>
      <point x="84" y="-147"/>
      <point x="84" y="-110" type="curve" smooth="yes"/>
      <point x="84" y="-57"/>
      <point x="128" y="-23"/>
      <point x="164" y="2" type="curve"/>
      <point x="202" y="21"/>
      <point x="229" y="60"/>
      <point x="255" y="96" type="curve"/>
      <point x="235" y="111" type="line"/>
      <point x="219" y="93"/>
      <point x="191" y="57"/>
      <point x="157" y="57" type="curve" smooth="yes"/>
      <point x="145" y="57"/>
      <point x="139" y="63"/>
      <point x="139" y="76" type="curve" smooth="yes"/>
      <point x="139" y="90"/>
      <point x="144" y="120"/>
      <point x="144" y="120" type="curve"/>
      <point x="219" y="476" type="line"/>
      <point x="197" y="476" type="line"/>
      <point x="57" y="465" type="line"/>
      <point x="57" y="438" type="line"/>
      <point x="57" y="438"/>
      <point x="74" y="440"/>
      <point x="91" y="440" type="curve" smooth="yes"/>
      <point x="118" y="440"/>
      <point x="123" y="424"/>
      <point x="123" y="411" type="curve" smooth="yes"/>
      <point x="123" y="394"/>
      <point x="120" y="380"/>
      <point x="120" y="380" type="curve"/>
      <point x="69" y="142" type="line" smooth="yes"/>
      <point x="56" y="83"/>
      <point x="52" y="61"/>
      <point x="52" y="44" type="curve" smooth="yes"/>
      <point x="52" y="13"/>
      <point x="72" y="0"/>
      <point x="103" y="-4" type="curve"/>
      <point x="103" y="-8" type="line"/>
      <point x="65" y="-37"/>
      <point x="16" y="-81"/>
      <point x="16" y="-134" type="curve" smooth="yes"/>
      <point x="16" y="-184"/>
      <point x="53" y="-216"/>
    </contour>
    <contour>
      <point x="188" y="556" type="curve" smooth="yes"/>
      <point x="218" y="556"/>
      <point x="243" y="576"/>
      <point x="243" y="610" type="curve" smooth="yes"/>
      <point x="243" y="643"/>
      <point x="224" y="665"/>
      <point x="191" y="665" type="curve" smooth="yes"/>
      <point x="158" y="665"/>
      <point x="136" y="644"/>
      <point x="136" y="610" type="curve" smooth="yes"/>
      <point x="136" y="575"/>
      <point x="158" y="556"/>
    </contour>
  </outline>
</glyph>
<glyph name="jcircumflex" format="2">
  <advance width="272"/>
  <unicode hex="0135"/>
  <anchor x="-14" y="-220" name="bottom"/>
  <anchor x="-48" y="-220" name="cedilla"/>
  <anchor x="-48" y="-220" name="ogonek"/>
  <anchor x="189" y="673" name="top.mkmk"/>
  <outline>
    <contour>
      <point x="-45" y="-225" type="curve" smooth="yes"/>
      <point x="92" y="-225"/>
      <point x="143" y="-8"/>
      <point x="160" y="88" type="curve" smooth="yes"/>
      <point x="230" y="476" type="line"/>
      <point x="208" y="476" type="line"/>
      <point x="68" y="465" type="line"/>
      <point x="68" y="438" type="line"/>
      <point x="68" y="438"/>
      <point x="85" y="440"/>
      <point x="102" y="440" type="curve" smooth="yes"/>
      <point x="129" y="440"/>
      <point x="134" y="424"/>
      <point x="134" y="411" type="curve" smooth="yes"/>
      <point x="134" y="394"/>
      <point x="131" y="380"/>
      <point x="131" y="380" type="curve"/>
      <point x="70" y="49" type="line" smooth="yes"/>
      <point x="59" y="-11"/>
      <point x="23" y="-192"/>
      <point x="-28" y="-192" type="curve" smooth="yes"/>
      <point x="-67" y="-192"/>
      <point x="-39" y="-104"/>
      <point x="-95" y="-104" type="curve" smooth="yes"/>
      <point x="-123" y="-104"/>
      <point x="-135" y="-129"/>
      <point x="-135" y="-150" type="curve" smooth="yes"/>
      <point x="-135" y="-188"/>
      <point x="-109" y="-225"/>
    </contour>
    <contour>
      <point x="78" y="521" type="line"/>
      <point x="188" y="619" type="line"/>
      <point x="264" y="521" type="line"/>
      <point x="302" y="521" type="line"/>
      <point x="232" y="674" type="line"/>
      <point x="166" y="674" type="line"/>
      <point x="39" y="521" type="line"/>
    </contour>
  </outline>
</glyph>
<glyph name="kgreenlandic" format="2">
  <advance width="519"/>
  <unicode hex="0138"/>
  <anchor x="196" y="0" name="bottom"/>
  <anchor x="197" y="0" name="cedilla"/>
  <anchor x="340" y="0" name="ogonek"/>
  <anchor x="271" y="467" name="top"/>
  <outline>
    <contour>
      <point x="233" y="246" type="line"/>
      <point x="268" y="273" type="line"/>
      <point x="390" y="382" type="line" smooth="yes"/>
      <point x="423" y="412"/>
      <point x="454" y="440"/>
      <point x="522" y="442" type="curve"/>
      <point x="525" y="467" type="line"/>
      <point x="310" y="467" type="line"/>
      <point x="307" y="442" type="line"/>
      <point x="334" y="442"/>
      <point x="351" y="437"/>
      <point x="351" y="419" type="curve" smooth="yes"/>
      <point x="351" y="402"/>
      <point x="343" y="392"/>
      <point x="328" y="378" type="curve" smooth="yes"/>
      <point x="182" y="238" type="line"/>
      <point x="163" y="238" type="line"/>
      <point x="158" y="175" type="line"/>
    </contour>
    <contour>
      <point x="133" y="0" type="line"/>
      <point x="171" y="197" type="line"/>
      <point x="174" y="225" type="line"/>
      <point x="227" y="476" type="line"/>
      <point x="205" y="476" type="line"/>
      <point x="65" y="465" type="line"/>
      <point x="65" y="438" type="line"/>
      <point x="65" y="438"/>
      <point x="82" y="440"/>
      <point x="99" y="440" type="curve" smooth="yes"/>
      <point x="126" y="440"/>
      <point x="131" y="424"/>
      <point x="131" y="411" type="curve" smooth="yes"/>
      <point x="131" y="394"/>
      <point x="128" y="380"/>
      <point x="128" y="380" type="curve"/>
      <point x="51" y="0" type="line"/>
    </contour>
    <contour>
      <point x="367" y="-10" type="curve"/>
      <point x="446" y="-11"/>
      <point x="493" y="77"/>
      <point x="507" y="102" type="curve"/>
      <point x="486" y="116" type="line"/>
      <point x="463" y="84"/>
      <point x="442" y="58"/>
      <point x="404" y="58" type="curve" smooth="yes"/>
      <point x="378" y="58"/>
      <point x="367" y="79"/>
      <point x="353" y="112" type="curve" smooth="yes"/>
      <point x="274" y="299" type="line"/>
      <point x="215" y="250" type="line"/>
      <point x="285" y="68" type="line" smooth="yes"/>
      <point x="296" y="40"/>
      <point x="316" y="-10"/>
    </contour>
  </outline>
</glyph>
